{"glyphs":{"0":{"ha":817,"x_min":49,"x_max":768,"o":"m 49 400 q 95 185 49 281 q 224 35 142 89 q 410 -18 306 -18 q 594 36 513 -18 q 722 186 676 90 q 768 401 768 282 q 722 608 768 517 q 594 752 676 700 q 410 804 513 804 q 224 752 306 804 q 95 608 142 700 q 49 400 49 515 m 139 404 q 174 572 139 497 q 270 688 208 646 q 410 731 332 731 q 547 688 486 731 q 643 569 608 644 q 678 397 678 493 q 643 222 678 300 q 547 101 608 144 q 410 57 486 57 q 270 101 332 57 q 174 225 208 146 q 139 404 139 304 z "},"1":{"ha":415,"x_min":14,"x_max":311,"o":"m 253 786 l 14 679 l 50 608 l 224 679 l 224 0 l 311 0 l 311 786 l 253 786 z "},"2":{"ha":661,"x_min":35,"x_max":633,"o":"m 304 804 q 165 783 225 804 q 53 732 104 763 l 85 661 q 190 713 144 694 q 303 732 236 732 q 447 691 394 732 q 500 576 500 650 q 463 459 500 511 q 329 324 426 407 l 35 69 l 35 0 l 633 0 l 622 68 l 147 69 l 383 269 q 540 433 490 360 q 590 581 590 506 q 556 697 590 646 q 456 776 521 747 q 304 804 392 804 z "},"3":{"ha":633,"x_min":0,"x_max":578,"o":"m 285 804 q 15 722 144 804 l 58 665 q 281 733 163 733 q 381 712 338 733 q 447 655 424 690 q 471 578 471 619 q 404 449 471 497 q 222 401 338 401 l 175 401 l 189 339 l 214 339 q 421 288 354 339 q 488 144 488 236 q 456 49 488 90 q 375 -13 425 8 q 268 -35 325 -35 q 149 -19 197 -35 q 46 28 100 -4 l 0 -33 q 123 -85 54 -64 q 264 -106 192 -106 q 430 -72 358 -106 q 540 18 501 -39 q 578 147 578 75 q 530 292 578 231 q 403 372 482 354 q 516 451 471 394 q 561 579 561 507 q 530 690 561 639 q 436 773 499 742 q 285 804 374 804 z "},"4":{"ha":711,"x_min":14,"x_max":683,"o":"m 539 793 l 482 793 l 14 174 l 26 103 l 453 103 l 453 -96 l 539 -96 l 539 103 l 672 103 l 683 174 l 539 174 l 539 793 m 107 174 l 453 633 l 453 174 l 107 174 z "},"5":{"ha":681,"x_min":49,"x_max":632,"o":"m 182 319 q 349 388 267 388 q 488 333 435 388 q 540 181 540 278 q 479 23 540 81 q 317 -35 418 -35 q 198 -19 247 -35 q 94 28 149 -4 l 49 -33 q 311 -106 185 -106 q 485 -67 413 -106 q 594 37 557 -28 q 632 181 632 101 q 559 381 631 303 q 343 458 488 458 q 263 444 304 458 q 185 407 221 431 l 199 714 l 567 714 l 578 786 l 115 786 l 94 319 l 182 319 z "},"6":{"ha":697,"x_min":49,"x_max":649,"o":"m 358 538 q 517 499 451 538 q 615 399 582 461 q 649 264 649 336 q 610 120 649 185 q 506 19 572 56 q 360 -18 440 -18 q 200 26 271 -18 q 89 157 129 71 q 49 361 49 243 q 119 622 49 510 q 299 800 189 735 q 528 881 410 865 l 553 814 q 378 763 468 810 q 223 633 289 717 q 140 443 157 550 q 358 538 238 538 m 357 56 q 467 83 421 56 q 539 157 514 111 q 564 257 564 203 q 509 410 564 351 q 358 468 454 468 q 233 434 293 468 q 135 353 172 400 q 357 56 143 56 z "},"7":{"ha":596,"x_min":14,"x_max":568,"o":"m 538 786 l 14 786 l 25 714 l 474 714 l 165 -68 l 249 -96 l 568 746 l 538 786 z "},"8":{"ha":718,"x_min":49,"x_max":669,"o":"m 360 893 q 213 862 274 893 q 119 779 151 831 q 88 668 88 728 q 130 549 88 601 q 239 471 172 497 q 144 422 188 460 q 74 335 100 385 q 49 235 49 285 q 85 106 49 164 q 191 15 121 49 q 360 -18 261 -18 q 527 17 457 -18 q 633 109 597 51 q 669 235 669 167 q 613 386 669 319 q 481 471 557 453 q 587 551 543 499 q 631 668 631 603 q 599 779 631 728 q 507 862 568 831 q 360 893 446 893 m 356 824 q 496 778 447 824 q 544 665 544 733 q 494 560 544 607 q 360 500 444 513 q 224 559 274 513 q 175 665 175 606 q 222 778 175 732 q 356 824 268 824 m 360 439 q 524 370 467 426 q 581 232 581 314 q 517 103 581 153 q 360 53 453 53 q 201 103 264 53 q 138 232 138 153 q 194 370 138 314 q 360 439 251 426 z "},"9":{"ha":697,"x_min":49,"x_max":649,"o":"m 338 804 q 497 760 426 804 q 608 629 568 715 q 649 425 649 543 q 578 164 649 276 q 398 -14 508 51 q 169 -94 288 -79 l 144 -28 q 319 23 229 -24 q 474 153 408 69 q 557 343 540 236 q 339 249 460 249 q 181 287 246 249 q 82 388 115 325 q 49 522 49 450 q 87 666 49 601 q 191 767 125 731 q 338 804 257 804 m 339 318 q 464 352 403 318 q 563 433 525 386 q 340 731 554 731 q 230 703 276 731 q 158 629 183 675 q 133 529 133 583 q 188 376 133 435 q 339 318 243 318 z "},"\r":{"ha":0,"x_min":0,"x_max":0,"o":""}," ":{"ha":326,"x_min":0,"x_max":0,"o":""},"\u0000":{"ha":0,"x_min":0,"x_max":0,"o":""}," ":{"ha":328,"x_min":0,"x_max":0,"o":""},"‌":{"ha":0,"x_min":-42,"x_max":42,"o":"m 42 1718 l -42 1718 l -42 -94 l 42 -94 l 42 1718 z "},"‍":{"ha":0,"x_min":-157,"x_max":158,"o":"m -157 1778 l -54 1675 l -157 1572 l -103 1518 l -42 1578 l -42 -94 l 42 -94 l 42 1579 l 104 1518 l 158 1572 l 56 1675 l 158 1778 l 103 1833 l 0 1731 l -101 1833 l -157 1778 z "},"◌":{"ha":840,"x_min":63,"x_max":778,"o":"m 419 638 q 449 649 438 638 q 460 678 460 660 q 449 708 460 696 q 419 719 438 719 q 390 708 401 719 q 379 678 379 696 q 390 649 379 660 q 419 638 401 638 m 296 697 q 267 686 278 697 q 256 657 256 675 q 267 628 256 639 q 296 617 278 617 q 325 628 314 617 q 336 657 336 639 q 325 686 336 675 q 296 697 314 697 m 544 617 q 574 628 563 617 q 585 657 585 639 q 574 686 585 675 q 544 697 563 697 q 515 686 526 697 q 504 657 504 675 q 515 628 504 639 q 544 617 526 617 m 190 628 q 160 616 172 628 q 149 586 149 604 q 160 557 149 568 q 190 546 172 546 q 219 557 208 546 q 231 586 231 568 q 219 616 231 604 q 190 628 208 628 m 650 546 q 680 557 668 546 q 692 586 692 568 q 680 616 692 604 q 650 628 668 628 q 621 616 632 628 q 610 586 610 604 q 621 557 610 568 q 650 546 632 546 m 124 518 q 94 506 106 518 q 82 476 82 494 q 94 447 82 458 q 124 436 106 436 q 153 447 142 436 q 164 476 164 458 q 153 506 164 494 q 124 518 142 518 m 717 436 q 746 447 735 436 q 757 476 757 458 q 746 506 757 494 q 717 518 735 518 q 688 506 699 518 q 676 476 676 494 q 688 447 676 458 q 717 436 699 436 m 104 399 q 74 387 86 399 q 63 357 63 375 q 74 328 63 339 q 104 318 86 318 q 133 328 122 318 q 144 357 144 339 q 133 387 144 375 q 104 399 122 399 m 736 318 q 766 328 754 318 q 778 357 778 339 q 766 387 778 375 q 736 399 754 399 q 707 387 718 399 q 696 357 696 375 q 707 328 696 339 q 736 318 718 318 m 124 282 q 94 271 106 282 q 82 242 82 260 q 94 213 82 224 q 124 201 106 201 q 153 213 142 201 q 164 242 164 224 q 153 271 164 260 q 124 282 142 282 m 717 201 q 746 213 735 201 q 757 242 757 224 q 746 271 757 260 q 717 282 735 282 q 688 271 699 282 q 676 242 676 260 q 688 213 676 224 q 717 201 699 201 m 189 171 q 159 160 171 171 q 147 131 147 149 q 159 101 147 113 q 189 90 171 90 q 218 101 207 90 q 229 131 229 113 q 218 160 229 149 q 189 171 207 171 m 651 90 q 681 101 669 90 q 693 131 693 113 q 681 160 693 149 q 651 171 669 171 q 622 160 633 171 q 611 131 611 149 q 622 101 611 113 q 651 90 633 90 m 296 103 q 267 91 278 103 q 256 61 256 79 q 267 32 256 43 q 296 21 278 21 q 325 32 314 21 q 336 61 336 43 q 325 91 336 79 q 296 103 314 103 m 544 21 q 574 32 563 21 q 585 61 585 43 q 574 91 585 79 q 544 103 563 103 q 515 91 526 103 q 504 61 504 79 q 515 32 504 43 q 544 21 526 21 m 419 0 q 449 11 438 0 q 460 40 460 22 q 449 70 460 58 q 419 82 438 82 q 390 70 401 82 q 379 40 379 58 q 390 11 379 22 q 419 0 401 0 z "},"A":{"ha":822,"x_min":14,"x_max":808,"o":"m 96 0 l 200 283 l 613 283 l 724 -7 l 808 7 l 447 944 l 357 944 l 14 0 l 96 0 m 403 833 l 588 353 l 224 353 l 403 833 z "},"B":{"ha":801,"x_min":132,"x_max":753,"o":"m 397 0 q 656 61 558 0 q 753 261 753 122 q 702 415 753 356 q 560 503 651 475 q 661 583 622 533 q 700 699 700 632 q 610 888 700 832 q 360 944 521 944 l 132 944 l 132 0 l 397 0 m 363 871 q 551 835 489 871 q 614 697 614 799 q 344 525 614 528 l 218 525 l 218 871 l 363 871 m 415 454 q 601 407 535 454 q 667 258 667 360 q 595 115 667 157 q 400 72 524 72 l 218 72 l 218 454 l 415 454 z "},"C":{"ha":769,"x_min":63,"x_max":735,"o":"m 735 913 q 628 950 700 936 q 504 964 556 964 q 271 898 371 964 q 117 719 171 832 q 63 467 63 606 q 112 224 63 335 q 259 47 161 113 q 496 -19 357 -19 q 626 -4 556 -19 q 735 32 696 11 l 701 99 q 609 68 657 79 q 493 57 561 57 q 312 112 389 57 q 194 260 235 167 q 154 468 154 354 q 201 683 154 588 q 327 834 247 779 q 506 889 407 889 q 615 879 574 889 q 707 849 656 869 l 735 913 z "},"D":{"ha":922,"x_min":132,"x_max":860,"o":"m 442 0 q 669 63 575 0 q 812 235 764 126 q 860 478 860 343 q 760 815 860 686 q 454 944 660 944 l 132 944 l 132 0 l 442 0 m 458 871 q 695 762 614 871 q 776 476 776 653 q 735 264 776 356 q 618 122 693 172 q 444 72 543 72 l 218 72 l 218 871 l 458 871 z "},"E":{"ha":699,"x_min":132,"x_max":671,"o":"m 218 69 l 218 453 l 558 453 l 551 515 l 218 515 l 218 882 l 639 882 l 632 944 l 132 944 l 132 0 l 671 0 l 663 69 l 218 69 z "},"F":{"ha":654,"x_min":132,"x_max":626,"o":"m 218 882 l 626 882 l 617 944 l 132 944 l 132 0 l 218 0 l 218 447 l 544 447 l 536 510 l 218 510 l 218 882 z "},"G":{"ha":869,"x_min":63,"x_max":793,"o":"m 707 89 q 538 57 619 57 q 342 107 429 57 q 205 251 256 157 q 154 468 154 344 q 210 692 154 597 q 358 838 267 788 q 550 889 449 888 q 658 879 617 889 q 751 849 700 869 l 778 913 q 671 950 743 936 q 547 964 599 964 q 301 901 413 964 q 126 726 190 839 q 63 467 63 613 q 122 218 63 329 q 290 44 182 107 q 539 -19 399 -19 q 678 -1 604 -19 q 793 44 751 17 l 793 475 l 503 475 l 494 413 l 707 413 l 707 89 z "},"H":{"ha":904,"x_min":132,"x_max":772,"o":"m 686 944 l 686 513 l 218 513 l 218 951 l 132 944 l 132 0 l 218 0 l 218 443 l 686 443 l 686 0 l 772 0 l 772 944 l 686 944 z "},"I":{"ha":350,"x_min":132,"x_max":218,"o":"m 132 944 l 132 0 l 218 0 l 218 944 l 132 944 z "},"J":{"ha":336,"x_min":14,"x_max":218,"o":"m 132 82 q 123 -3 133 26 q 89 -48 113 -32 q 14 -83 65 -64 l 47 -142 q 151 -96 115 -121 q 203 -35 188 -71 q 218 58 218 1 l 218 944 l 132 944 l 132 82 z "},"K":{"ha":824,"x_min":132,"x_max":810,"o":"m 218 357 l 218 0 l 132 0 l 132 944 l 218 944 l 218 465 l 699 965 l 754 913 l 388 532 l 810 0 l 707 0 l 331 474 l 218 357 z "},"L":{"ha":690,"x_min":132,"x_max":676,"o":"m 218 944 l 132 944 l 132 0 l 676 0 l 669 69 l 218 69 l 218 944 z "},"M":{"ha":1056,"x_min":132,"x_max":924,"o":"m 836 0 l 924 0 l 924 944 l 867 944 l 526 447 l 181 944 l 132 944 l 132 0 l 218 0 l 218 760 l 515 319 l 543 325 l 836 767 l 836 0 z "},"N":{"ha":951,"x_min":132,"x_max":819,"o":"m 238 738 l 763 0 l 819 0 l 819 944 l 732 944 l 732 179 l 685 261 l 189 944 l 132 944 l 132 0 l 218 0 l 218 778 l 238 738 z "},"O":{"ha":1001,"x_min":63,"x_max":939,"o":"m 504 967 q 277 899 378 964 q 119 721 176 833 q 63 468 63 608 q 118 217 63 328 q 273 43 174 106 q 496 -19 372 -19 q 724 47 622 -18 q 882 226 825 113 q 939 479 939 339 q 883 731 939 619 q 728 904 828 842 q 504 967 629 967 m 154 469 q 199 685 154 589 q 324 835 244 781 q 506 889 404 889 q 680 836 603 889 q 801 690 757 783 q 844 478 844 596 q 799 261 844 357 q 674 111 754 165 q 493 57 594 57 q 319 110 396 57 q 198 258 242 164 q 154 469 154 351 z "},"P":{"ha":765,"x_min":132,"x_max":717,"o":"m 361 367 q 617 440 518 367 q 717 660 715 514 q 625 876 717 807 q 376 944 533 944 l 132 944 l 132 0 l 218 0 l 218 367 l 361 367 m 379 871 q 565 822 501 871 q 629 658 629 774 q 556 493 628 546 q 364 440 483 440 l 218 440 l 218 871 l 379 871 z "},"Q":{"ha":1001,"x_min":63,"x_max":939,"o":"m 939 479 q 899 263 939 363 q 786 96 858 164 l 858 25 l 807 -19 l 731 53 q 496 -19 629 -17 q 273 43 372 -19 q 118 217 174 106 q 63 468 63 328 q 119 721 63 608 q 277 899 176 833 q 504 967 378 964 q 728 904 629 967 q 883 731 828 842 q 939 479 939 619 m 493 57 q 671 108 592 57 l 511 258 l 572 304 l 726 154 q 813 294 782 211 q 844 478 844 378 q 801 690 844 596 q 680 836 757 783 q 506 889 603 889 q 324 835 404 889 q 199 685 244 781 q 154 469 154 589 q 198 258 154 351 q 319 110 242 164 q 493 57 396 57 z "},"R":{"ha":806,"x_min":132,"x_max":792,"o":"m 218 0 l 218 397 l 361 397 q 471 404 413 397 l 694 0 l 792 0 l 547 428 q 717 675 715 494 q 626 881 717 817 q 376 944 535 944 l 132 944 l 132 0 l 218 0 m 379 871 q 565 828 500 871 q 629 672 629 785 q 555 515 628 563 q 364 468 482 468 l 218 468 l 218 871 l 379 871 z "},"S":{"ha":706,"x_min":63,"x_max":657,"o":"m 78 40 q 197 -1 124 15 q 331 -18 271 -18 q 505 13 431 -18 q 618 98 579 43 q 657 222 657 153 q 629 336 657 289 q 549 420 601 383 q 403 500 496 457 q 251 578 303 547 q 172 646 200 608 q 143 736 143 683 q 201 851 143 808 q 360 894 260 894 q 467 882 424 894 q 560 847 510 869 l 590 913 q 483 951 543 936 q 357 967 422 967 q 203 936 269 967 q 99 853 136 906 q 63 736 63 800 q 318 454 63 563 q 465 383 411 415 q 547 313 518 351 q 575 222 575 275 q 510 100 575 147 q 329 53 446 53 q 204 69 265 53 q 99 107 143 85 l 78 40 z "},"T":{"ha":768,"x_min":14,"x_max":754,"o":"m 14 876 l 340 876 l 340 0 l 428 0 l 428 876 l 754 876 l 747 944 l 14 944 l 14 876 z "},"U":{"ha":935,"x_min":118,"x_max":817,"o":"m 118 332 q 161 153 118 232 q 283 28 204 74 q 467 -17 363 -17 q 651 28 572 -17 q 774 153 731 74 q 817 332 817 232 l 817 944 l 729 944 l 729 344 q 698 198 729 264 q 607 94 667 132 q 467 57 547 57 q 329 95 389 57 q 237 199 269 133 q 204 344 204 264 l 204 944 l 118 944 l 118 332 z "},"V":{"ha":822,"x_min":14,"x_max":808,"o":"m 375 0 l 465 0 l 808 944 l 726 944 l 419 111 l 99 951 l 14 938 l 375 0 z "},"W":{"ha":1140,"x_min":14,"x_max":1126,"o":"m 790 0 l 571 807 l 368 0 l 278 0 l 14 938 l 99 951 l 322 119 l 532 944 l 614 944 l 835 119 l 1044 944 l 1126 944 l 881 0 l 790 0 z "},"X":{"ha":796,"x_min":14,"x_max":782,"o":"m 667 0 l 763 0 l 465 460 l 782 944 l 688 944 l 419 524 l 121 964 l 46 928 l 354 478 l 14 0 l 110 0 l 401 413 l 667 0 z "},"Y":{"ha":758,"x_min":14,"x_max":744,"o":"m 744 944 l 651 944 l 369 467 l 90 965 l 14 922 l 326 383 l 325 0 l 413 0 l 414 393 l 744 944 z "},"Z":{"ha":776,"x_min":35,"x_max":742,"o":"m 742 876 l 735 944 l 72 944 l 86 876 l 649 876 l 35 69 l 43 0 l 721 0 l 714 69 l 131 69 l 742 876 z "},"a":{"ha":671,"x_min":72,"x_max":586,"o":"m 146 572 q 237 608 200 597 q 339 619 274 619 q 459 576 418 619 q 500 458 500 532 l 500 390 l 313 390 q 139 338 206 392 q 72 189 72 283 q 131 40 72 97 q 299 -18 189 -18 q 412 9 354 -18 q 504 72 469 36 l 515 0 l 586 0 l 586 472 q 518 632 586 572 q 335 692 450 692 q 222 675 289 692 q 119 633 156 658 l 146 572 m 157 189 q 197 292 157 250 q 310 333 238 333 l 500 333 l 500 163 q 409 84 461 115 q 296 53 357 53 q 192 94 226 53 q 157 189 157 135 z "},"b":{"ha":722,"x_min":104,"x_max":674,"o":"m 367 692 q 593 594 513 692 q 674 336 674 497 q 635 154 672 235 q 528 28 599 74 q 361 -18 458 -18 q 179 57 272 -18 l 161 0 l 104 0 l 104 967 l 190 981 l 190 628 q 367 692 272 692 m 365 54 q 528 133 472 54 q 586 335 585 211 q 532 542 586 465 q 368 619 478 619 q 269 599 313 619 q 190 540 226 578 l 190 126 q 268 74 228 93 q 365 54 308 54 z "},"c":{"ha":626,"x_min":49,"x_max":583,"o":"m 549 101 q 462 65 496 75 q 363 54 428 54 q 194 133 253 54 q 136 342 136 213 q 199 542 138 464 q 369 619 261 619 q 469 608 432 619 q 556 572 506 597 l 583 633 q 481 675 544 658 q 374 692 417 692 q 203 647 276 692 q 89 521 129 601 q 49 340 49 440 q 86 153 49 235 q 195 27 124 72 q 364 -18 267 -18 q 474 -2 410 -18 q 576 39 538 14 l 549 101 z "},"d":{"ha":717,"x_min":49,"x_max":613,"o":"m 613 0 l 556 0 l 540 53 q 453 1 500 19 q 356 -18 406 -18 q 129 79 210 -18 q 49 338 49 176 q 87 519 50 439 q 194 646 124 600 q 361 692 264 692 q 525 631 442 692 l 525 967 l 613 979 l 613 0 m 354 54 q 525 126 453 54 l 525 553 q 451 602 490 585 q 357 619 411 619 q 194 541 250 619 q 136 339 138 463 q 190 131 136 208 q 354 54 244 54 z "},"e":{"ha":685,"x_min":49,"x_max":636,"o":"m 636 332 q 567 594 636 496 q 354 692 497 692 q 130 594 210 692 q 49 340 50 497 q 135 79 49 176 q 390 -18 221 -18 q 515 -2 463 -18 q 626 46 567 14 l 597 110 q 492 66 542 81 q 386 51 442 51 q 197 127 257 51 q 136 332 138 203 l 636 332 m 139 392 q 201 558 149 496 q 350 619 254 619 q 549 392 526 619 l 139 392 z "},"f":{"ha":381,"x_min":24,"x_max":381,"o":"m 125 0 l 211 0 l 211 594 l 363 594 l 333 660 l 211 660 l 211 782 q 307 896 211 896 q 338 892 319 896 q 364 883 356 888 l 381 957 q 289 975 333 975 q 169 922 214 975 q 125 782 125 869 l 125 660 l 24 660 l 25 594 l 125 594 l 125 0 z "},"g":{"ha":711,"x_min":49,"x_max":613,"o":"m 613 -86 q 578 -206 613 -153 q 478 -289 543 -258 q 326 -319 413 -319 q 209 -303 281 -319 q 97 -262 138 -286 l 124 -199 q 214 -233 168 -219 q 324 -247 260 -246 q 469 -206 413 -247 q 525 -85 525 -164 l 525 40 q 356 -18 446 -18 q 129 79 210 -18 q 49 338 49 176 q 87 519 50 439 q 194 646 124 600 q 361 692 264 692 q 536 622 446 692 l 556 674 l 613 674 l 613 -86 m 354 54 q 525 126 453 54 l 525 553 q 451 602 490 585 q 357 619 411 619 q 194 541 250 619 q 136 339 138 463 q 190 131 136 208 q 354 54 244 54 z "},"h":{"ha":731,"x_min":104,"x_max":646,"o":"m 439 692 q 594 631 543 692 q 646 468 646 569 l 646 1 l 560 1 l 560 451 q 429 618 560 618 q 306 578 376 618 q 190 481 236 539 l 190 0 l 104 0 l 104 967 l 190 981 l 190 572 q 305 657 233 622 q 439 692 376 692 z "},"i":{"ha":268,"x_min":68,"x_max":200,"o":"m 133 821 q 180 840 160 821 q 200 886 200 858 q 180 933 200 914 q 133 951 160 951 q 86 933 104 951 q 68 886 68 914 q 86 840 68 858 q 133 821 104 821 m 90 674 l 90 0 l 178 0 l 178 674 l 90 674 z "},"j":{"ha":299,"x_min":0,"x_max":214,"o":"m 147 821 q 100 840 118 821 q 82 886 82 858 q 100 933 82 914 q 147 951 118 951 q 194 933 174 951 q 214 886 214 914 q 194 840 214 858 q 147 821 174 821 m 192 -86 q 179 -187 192 -149 q 133 -255 167 -226 q 33 -304 99 -283 l 0 -244 q 69 -207 47 -226 q 98 -156 90 -187 q 104 -65 106 -125 l 104 674 l 192 674 l 192 -86 z "},"k":{"ha":635,"x_min":104,"x_max":635,"o":"m 290 367 l 531 0 l 635 0 l 346 424 l 557 640 l 503 692 l 190 369 l 190 981 l 104 967 l 104 0 l 190 0 l 190 264 l 290 367 z "},"l":{"ha":294,"x_min":104,"x_max":190,"o":"m 104 967 l 104 0 l 190 0 l 190 981 l 104 967 z "},"m":{"ha":1103,"x_min":90,"x_max":1018,"o":"m 825 692 q 972 631 925 692 q 1018 468 1018 571 l 1018 1 l 932 1 l 932 451 q 906 574 932 529 q 815 618 881 618 q 710 583 771 618 q 603 496 649 549 l 604 468 l 604 1 l 518 1 l 518 451 q 492 574 518 529 q 401 618 467 618 q 288 578 354 618 q 176 481 222 539 l 176 0 l 90 0 l 90 674 l 161 674 l 175 571 q 286 656 218 621 q 411 692 354 692 q 589 571 550 692 q 700 656 632 621 q 825 692 768 692 z "},"n":{"ha":717,"x_min":90,"x_max":632,"o":"m 176 481 q 292 578 222 539 q 415 618 363 618 q 546 451 546 618 l 546 1 l 632 1 l 632 468 q 581 631 632 569 q 425 692 529 692 q 290 656 363 692 q 175 571 218 621 l 161 674 l 90 674 l 90 0 l 176 0 l 176 481 z "},"o":{"ha":732,"x_min":49,"x_max":683,"o":"m 683 333 q 643 152 683 232 q 528 27 603 72 q 353 -18 453 -18 q 190 28 258 -18 q 85 155 121 74 q 49 340 49 236 q 89 520 50 440 q 201 646 128 600 q 371 692 274 692 q 601 597 519 692 q 683 333 683 501 m 363 54 q 533 132 471 54 q 596 332 594 210 q 538 540 596 461 q 369 619 479 619 q 199 542 261 619 q 136 342 138 464 q 194 133 136 213 q 363 54 253 54 z "},"p":{"ha":717,"x_min":99,"x_max":668,"o":"m 361 692 q 588 594 507 692 q 668 336 668 497 q 630 154 667 235 q 523 28 593 74 q 356 -18 453 -18 q 185 49 272 -18 l 185 -289 l 99 -304 l 99 674 l 156 674 l 174 618 q 262 672 214 653 q 361 692 310 692 m 360 54 q 523 133 467 54 q 581 335 579 211 q 526 542 581 465 q 363 619 472 619 q 264 599 307 619 q 185 540 221 578 l 185 126 q 263 74 222 93 q 360 54 303 54 z "},"q":{"ha":711,"x_min":49,"x_max":613,"o":"m 613 -289 l 525 -304 l 525 40 q 356 -18 446 -18 q 129 79 210 -18 q 49 338 49 176 q 87 519 50 439 q 194 646 124 600 q 361 692 264 692 q 536 622 449 692 l 556 674 l 613 674 l 613 -289 m 354 54 q 525 126 453 54 l 525 553 q 451 602 490 585 q 357 619 411 619 q 194 541 250 619 q 136 339 138 463 q 190 131 136 208 q 354 54 244 54 z "},"r":{"ha":431,"x_min":90,"x_max":417,"o":"m 176 481 q 288 567 219 528 q 417 606 357 606 l 393 674 q 283 640 346 674 q 172 567 219 606 l 147 674 l 90 674 l 90 0 l 176 0 l 176 481 z "},"s":{"ha":582,"x_min":51,"x_max":533,"o":"m 57 35 q 156 -3 93 11 q 267 -18 219 -18 q 464 33 394 -18 q 533 172 533 83 q 308 381 533 301 q 180 438 225 408 q 133 511 135 468 q 179 591 133 560 q 296 622 225 622 q 389 610 350 622 q 474 575 428 597 l 501 636 q 407 676 469 660 q 299 692 344 692 q 118 642 185 692 q 51 506 51 593 q 112 388 51 433 q 269 310 172 342 q 453 165 453 246 q 404 81 453 110 q 269 51 356 51 q 85 99 182 51 l 57 35 z "},"t":{"ha":414,"x_min":24,"x_max":379,"o":"m 211 865 l 124 835 l 124 660 l 24 660 l 25 594 l 124 594 l 124 161 q 168 28 124 75 q 288 -18 213 -18 q 351 -10 328 -18 q 379 -1 375 -3 l 363 69 q 306 57 333 57 q 234 88 257 57 q 211 171 211 118 l 211 594 l 363 594 l 333 660 l 211 660 l 211 865 z "},"u":{"ha":717,"x_min":85,"x_max":626,"o":"m 540 194 q 424 97 494 136 q 301 57 354 57 q 171 224 171 57 l 171 674 l 85 674 l 85 207 q 136 44 85 106 q 292 -17 188 -17 q 426 19 354 -17 q 542 104 499 54 l 556 0 l 626 0 l 626 675 l 540 675 l 540 194 z "},"v":{"ha":608,"x_min":14,"x_max":594,"o":"m 511 674 l 303 110 l 86 692 l 14 656 l 257 0 l 349 0 l 594 674 l 511 674 z "},"w":{"ha":892,"x_min":14,"x_max":878,"o":"m 793 674 l 640 115 l 481 674 l 399 674 l 246 115 l 86 690 l 14 654 l 200 0 l 293 0 l 438 546 l 596 0 l 689 0 l 878 674 l 793 674 z "},"x":{"ha":596,"x_min":14,"x_max":582,"o":"m 468 0 l 563 0 l 351 324 l 582 674 l 488 674 l 304 388 l 113 688 l 36 653 l 240 340 l 14 0 l 111 0 l 288 276 l 468 0 z "},"y":{"ha":608,"x_min":14,"x_max":594,"o":"m 222 -136 q 179 -199 206 -179 q 90 -249 153 -219 l 114 -304 q 229 -251 181 -290 q 299 -156 278 -212 l 594 674 l 511 674 l 303 115 l 82 690 l 14 654 l 267 -10 l 222 -136 z "},"z":{"ha":600,"x_min":32,"x_max":568,"o":"m 94 606 l 458 606 l 32 43 l 43 0 l 560 0 l 546 67 l 136 67 l 568 629 l 564 674 l 72 674 l 94 606 z "},"ﬁ":{"ha":649,"x_min":24,"x_max":581,"o":"m 125 0 l 211 0 l 211 594 l 363 594 l 333 660 l 211 660 l 211 782 q 307 896 211 896 q 338 892 319 896 q 364 883 356 888 l 381 957 q 289 975 333 975 q 169 922 214 975 q 125 782 125 869 l 125 660 l 24 660 l 25 594 l 125 594 l 125 0 m 514 821 q 560 840 540 821 q 581 886 581 858 q 560 933 581 914 q 514 951 540 951 q 467 933 485 951 q 449 886 449 914 q 467 840 449 858 q 514 821 485 821 m 471 674 l 471 0 l 558 0 l 558 674 l 471 674 z "},"ﬂ":{"ha":675,"x_min":24,"x_max":571,"o":"m 125 0 l 211 0 l 211 594 l 363 594 l 333 660 l 211 660 l 211 782 q 307 896 211 896 q 338 892 319 896 q 364 883 356 888 l 381 957 q 289 975 333 975 q 169 922 214 975 q 125 782 125 869 l 125 660 l 24 660 l 25 594 l 125 594 l 125 0 m 485 967 l 485 0 l 571 0 l 571 981 l 485 967 z "},"`":{"ha":201,"x_min":14,"x_max":188,"o":"m 113 1031 l 14 1031 l 132 818 l 188 836 l 113 1031 z "},"¨":{"ha":365,"x_min":14,"x_max":351,"o":"m 74 858 q 117 876 100 858 q 135 919 135 893 q 117 960 135 943 q 74 978 100 978 q 32 960 50 978 q 14 919 14 943 q 32 876 14 894 q 74 858 50 858 m 292 858 q 335 876 318 858 q 351 919 351 893 q 335 961 351 944 q 292 978 318 978 q 249 960 267 978 q 232 919 232 943 q 249 876 232 893 q 292 858 267 858 z "},"¯":{"ha":363,"x_min":14,"x_max":349,"o":"m 340 957 l 14 957 l 14 889 l 349 889 l 340 957 z "},"´":{"ha":201,"x_min":14,"x_max":188,"o":"m 89 1031 l 14 836 l 69 818 l 188 1031 l 89 1031 z "},"ˆ":{"ha":392,"x_min":14,"x_max":378,"o":"m 378 832 l 236 1031 l 153 1031 l 14 832 l 90 818 l 194 969 l 297 818 l 378 832 z "},"ˇ":{"ha":392,"x_min":14,"x_max":378,"o":"m 14 1017 l 156 818 l 239 818 l 378 1017 l 301 1031 l 197 879 l 94 1031 l 14 1017 z "},"˘":{"ha":389,"x_min":14,"x_max":375,"o":"m 310 1015 q 278 937 310 972 q 194 901 246 901 q 109 937 140 901 q 78 1015 78 972 l 14 1015 q 59 888 14 939 q 194 835 104 836 q 330 888 285 836 q 375 1015 375 939 l 310 1015 z "},"˙":{"ha":160,"x_min":14,"x_max":146,"o":"m 81 858 q 126 878 107 858 q 146 925 146 897 q 126 972 146 951 q 81 992 107 992 q 33 972 53 992 q 14 925 14 951 q 33 878 14 897 q 81 858 53 858 z "},"˚":{"ha":274,"x_min":14,"x_max":260,"o":"m 138 1054 q 51 1021 88 1054 q 14 938 14 988 q 50 857 14 889 q 138 825 86 825 q 224 857 189 825 q 260 938 260 889 q 224 1021 260 988 q 138 1054 188 1054 m 138 879 q 94 896 113 879 q 76 938 76 913 q 94 981 76 964 q 138 999 113 999 q 181 981 163 999 q 199 938 199 964 q 181 896 199 913 q 138 879 163 879 z "},"˜":{"ha":424,"x_min":14,"x_max":403,"o":"m 339 971 q 321 926 336 940 q 286 911 306 911 q 219 944 250 911 q 129 976 188 976 q 14 850 14 976 l 76 850 q 95 896 79 881 q 131 911 111 911 q 203 878 165 911 q 286 844 238 844 q 403 971 403 844 l 339 971 z "},"˝":{"ha":396,"x_min":14,"x_max":382,"o":"m 89 1031 l 14 836 l 69 818 l 188 1031 l 89 1031 m 283 1031 l 208 836 l 264 818 l 382 1031 l 283 1031 z "},"˛":{"ha":283,"x_min":14,"x_max":269,"o":"m 107 6 q 40 -72 67 -26 q 14 -154 14 -117 q 55 -250 14 -212 q 158 -287 96 -287 q 222 -276 192 -287 q 269 -246 251 -264 l 239 -193 q 163 -222 203 -222 q 111 -205 132 -222 q 90 -149 90 -187 q 115 -67 90 -110 q 175 0 139 -25 l 107 6 z "},"¸":{"ha":286,"x_min":14,"x_max":272,"o":"m 72 -112 q 161 -138 125 -118 q 197 -186 197 -158 q 173 -226 197 -211 q 117 -242 149 -242 q 35 -222 82 -242 l 14 -281 q 62 -299 32 -292 q 117 -307 92 -307 q 228 -275 183 -307 q 272 -183 272 -243 q 240 -113 272 -146 q 161 -75 207 -81 l 197 18 l 124 18 l 72 -112 z "},"":{"ha":0,"x_min":14,"x_max":167,"o":"m 100 -29 q 53 -49 74 -29 q 33 -96 33 -68 q 50 -139 33 -119 q 93 -161 67 -158 q 72 -220 92 -194 q 14 -271 51 -246 l 39 -312 q 130 -226 93 -286 q 167 -104 167 -167 q 148 -50 167 -71 q 100 -29 129 -29 z "},"Þ":{"ha":765,"x_min":132,"x_max":717,"o":"m 376 833 q 625 765 533 833 q 717 549 717 696 q 617 329 715 403 q 361 256 518 256 l 218 256 l 218 0 l 132 0 l 132 944 l 218 944 l 218 833 l 376 833 m 364 329 q 556 382 483 329 q 629 547 628 435 q 565 711 629 663 q 379 760 501 760 l 218 760 l 218 329 l 364 329 z "},"Ð":{"ha":922,"x_min":29,"x_max":860,"o":"m 454 944 q 760 815 660 944 q 860 478 860 686 q 812 235 860 343 q 669 63 764 126 q 442 0 575 0 l 132 0 l 132 429 l 40 429 l 29 499 l 132 499 l 132 944 l 454 944 m 444 72 q 618 122 543 72 q 735 264 693 172 q 776 476 776 356 q 695 762 776 653 q 458 871 614 871 l 218 871 l 218 499 l 374 499 l 385 429 l 218 429 l 218 72 l 444 72 z "},"Æ":{"ha":1169,"x_min":14,"x_max":1142,"o":"m 1136 69 l 690 69 l 690 453 l 1031 453 l 1022 515 l 690 515 l 690 882 l 1114 882 l 1106 944 l 592 944 l 14 7 l 93 -7 l 268 283 l 603 283 l 603 0 l 1142 0 l 1136 69 m 311 353 l 603 826 l 603 353 l 311 353 z "},"Đ":{"ha":922,"x_min":29,"x_max":860,"o":"m 454 944 q 760 815 660 944 q 860 478 860 686 q 812 235 860 343 q 669 63 764 126 q 442 0 575 0 l 132 0 l 132 429 l 40 429 l 29 499 l 132 499 l 132 944 l 454 944 m 444 72 q 618 122 543 72 q 735 264 693 172 q 776 476 776 356 q 695 762 776 653 q 458 871 614 871 l 218 871 l 218 499 l 374 499 l 385 429 l 218 429 l 218 72 l 444 72 z "},"Ł":{"ha":676,"x_min":21,"x_max":663,"o":"m 63 300 l 21 354 l 118 439 l 118 944 l 204 944 l 204 514 l 367 656 l 408 604 l 204 425 l 204 69 l 656 69 l 663 0 l 118 0 l 118 349 l 63 300 z "},"Œ":{"ha":1265,"x_min":63,"x_max":1238,"o":"m 699 17 q 599 -9 656 1 q 496 -19 543 -19 q 259 47 357 -19 q 112 224 161 113 q 63 467 63 335 q 117 719 63 606 q 271 898 171 832 q 504 964 371 964 q 600 955 543 964 q 699 931 657 946 l 699 944 l 1199 944 l 1206 882 l 785 882 l 785 515 l 1118 515 l 1125 453 l 785 453 l 785 69 l 1229 69 l 1238 0 l 699 0 l 699 17 m 493 57 q 608 67 561 57 q 699 97 656 78 l 699 851 q 612 880 653 871 q 506 889 571 889 q 327 834 407 889 q 201 683 247 779 q 154 468 154 588 q 194 260 154 354 q 312 112 235 167 q 493 57 389 57 z "},"Ø":{"ha":1001,"x_min":63,"x_max":939,"o":"m 504 967 q 728 904 629 967 q 883 731 828 842 q 939 479 939 619 q 882 226 939 339 q 724 47 825 113 q 496 -19 622 -18 q 273 43 372 -19 q 118 217 174 106 q 63 468 63 328 q 119 721 63 608 q 277 899 176 833 q 504 967 378 964 m 154 469 q 194 265 154 357 q 306 119 235 174 l 632 863 q 506 889 571 889 q 324 835 404 889 q 199 685 244 781 q 154 469 154 589 m 493 57 q 674 111 594 57 q 799 261 754 165 q 844 478 844 357 q 805 680 844 590 q 696 824 765 769 l 372 81 q 493 57 431 57 z "},"ß":{"ha":774,"x_min":104,"x_max":718,"o":"m 190 657 q 244 813 190 754 q 397 871 297 871 q 531 827 478 871 q 583 697 583 783 q 530 567 583 608 q 354 525 476 525 l 317 525 l 317 454 l 379 454 q 565 407 499 454 q 631 258 631 360 q 560 114 631 156 q 365 72 489 72 l 294 72 l 294 0 l 363 0 q 622 61 525 0 q 718 261 718 122 q 551 494 718 428 q 669 699 669 554 q 592 881 669 818 q 400 944 515 944 q 185 869 267 944 q 104 657 104 794 l 104 0 l 190 0 l 190 657 z "},"ð":{"ha":732,"x_min":49,"x_max":683,"o":"m 407 915 q 618 664 553 810 q 683 333 683 518 q 643 152 683 232 q 528 27 603 72 q 353 -18 453 -18 q 190 28 258 -18 q 85 155 121 74 q 49 340 49 236 q 89 520 50 440 q 201 646 128 600 q 371 692 274 692 q 542 638 467 692 q 333 879 478 781 l 161 792 l 125 847 l 269 918 q 132 983 217 949 l 157 1042 q 344 956 260 1006 l 497 1031 l 532 979 l 407 915 m 363 54 q 533 132 471 54 q 596 332 594 210 q 576 531 596 442 q 485 597 539 574 q 369 619 432 619 q 199 542 261 619 q 136 342 138 464 q 194 133 136 213 q 363 54 253 54 z "},"þ":{"ha":717,"x_min":99,"x_max":668,"o":"m 361 692 q 588 594 507 692 q 668 336 668 497 q 630 154 667 235 q 523 28 593 74 q 356 -18 453 -18 q 185 49 272 -18 l 185 -289 l 99 -304 l 99 967 l 185 981 l 185 628 q 361 692 267 692 m 360 54 q 523 133 467 54 q 581 335 579 211 q 526 542 581 465 q 363 619 472 619 q 264 599 307 619 q 185 540 221 578 l 185 126 q 263 74 222 93 q 360 54 303 54 z "},"ƒ":{"ha":424,"x_min":0,"x_max":424,"o":"m 168 594 l 168 101 q 71 -12 168 -12 q 41 -8 58 -12 q 15 0 24 -4 l 0 -74 q 93 -90 50 -90 q 210 -37 167 -90 q 254 103 254 15 l 254 594 l 406 594 l 376 660 l 254 660 l 254 782 q 350 896 254 896 q 381 892 363 896 q 407 883 399 888 l 424 957 q 332 975 376 975 q 213 922 257 975 q 168 782 168 869 l 168 660 l 67 660 l 68 594 l 168 594 z "},"æ":{"ha":1135,"x_min":72,"x_max":1086,"o":"m 836 53 q 942 67 892 53 q 1047 111 992 82 l 1076 47 q 965 -1 1017 15 q 840 -17 913 -17 q 672 17 743 -17 q 560 113 601 50 q 449 19 508 56 q 299 -18 389 -18 q 131 40 189 -18 q 72 189 72 97 q 139 338 72 283 q 313 390 206 392 l 500 390 l 500 458 q 459 576 500 532 q 339 619 418 619 q 237 608 274 619 q 146 572 200 597 l 119 633 q 222 675 156 658 q 335 692 289 692 q 476 660 417 692 q 563 574 535 629 q 664 662 603 631 q 804 693 725 693 q 1017 595 947 693 q 1086 333 1086 497 l 586 333 q 647 128 588 204 q 836 53 707 53 m 800 621 q 651 559 704 621 q 589 393 599 497 l 999 393 q 800 621 976 621 m 296 53 q 405 71 361 53 q 474 115 449 89 q 525 178 499 140 q 499 333 501 244 l 310 333 q 197 292 238 333 q 157 189 157 250 q 192 94 157 135 q 296 53 226 53 z "},"đ":{"ha":717,"x_min":49,"x_max":725,"o":"m 613 786 l 613 0 l 556 0 l 540 53 q 453 1 500 19 q 356 -18 406 -18 q 129 79 210 -18 q 49 338 49 176 q 87 519 50 439 q 194 646 124 600 q 361 692 264 692 q 525 631 442 692 l 525 786 l 381 786 l 371 849 l 525 849 l 525 967 l 613 979 l 613 849 l 715 849 l 725 786 l 613 786 m 354 54 q 525 126 453 54 l 525 553 q 451 602 490 585 q 357 619 411 619 q 194 541 250 619 q 136 339 138 463 q 190 131 136 208 q 354 54 244 54 z "},"œ":{"ha":1078,"x_min":49,"x_max":1029,"o":"m 779 51 q 885 66 835 51 q 990 110 935 81 l 1019 46 q 908 -2 960 14 q 783 -18 856 -18 q 575 38 660 -18 q 472 -2 535 14 q 364 -18 410 -18 q 195 27 267 -18 q 86 153 124 72 q 49 340 49 235 q 89 521 49 440 q 203 647 129 601 q 374 692 276 692 q 473 677 414 692 q 572 640 532 663 q 747 692 643 692 q 960 594 890 692 q 1029 332 1029 496 l 529 332 q 590 127 531 203 q 779 51 650 51 m 363 54 q 451 63 417 54 q 521 88 486 71 q 442 340 442 179 q 461 479 442 415 q 519 590 481 543 q 369 619 450 619 q 199 542 261 619 q 136 342 138 464 q 194 133 136 213 q 363 54 253 54 m 743 619 q 594 558 647 619 q 532 392 542 496 l 942 392 q 743 619 919 619 z "},"ĺ":{"ha":294,"x_min":104,"x_max":289,"o":"m 190 1239 l 115 1044 l 171 1026 l 289 1239 l 190 1239 m 104 935 l 104 0 l 190 0 l 190 951 l 104 935 z "},"ł":{"ha":385,"x_min":0,"x_max":385,"o":"m 236 981 l 150 967 l 150 514 l 0 383 l 42 329 l 150 425 l 150 0 l 236 0 l 236 500 l 385 632 l 344 686 l 236 589 l 236 981 z "},"ı":{"ha":268,"x_min":90,"x_max":178,"o":"m 90 674 l 90 0 l 178 0 l 178 674 l 90 674 z "},"ø":{"ha":732,"x_min":49,"x_max":683,"o":"m 371 692 q 601 597 519 692 q 683 333 683 501 q 643 152 683 232 q 528 27 603 72 q 353 -18 453 -18 q 190 28 258 -18 q 85 155 121 74 q 49 340 49 236 q 89 520 50 440 q 201 646 128 600 q 371 692 274 692 m 136 342 q 157 206 136 265 q 218 107 178 146 l 471 597 q 369 619 424 619 q 199 542 261 619 q 136 342 138 464 m 363 54 q 533 132 471 54 q 596 332 594 210 q 579 456 596 400 q 529 550 563 513 l 282 68 q 363 54 315 54 z "},"À":{"ha":822,"x_min":14,"x_max":808,"o":"m 96 0 l 200 283 l 613 283 l 724 -7 l 808 7 l 447 944 l 357 944 l 14 0 l 96 0 m 403 833 l 588 353 l 224 353 l 403 833 m 382 1239 l 283 1239 l 401 1026 l 457 1044 l 382 1239 z "},"Á":{"ha":822,"x_min":14,"x_max":808,"o":"m 96 0 l 200 283 l 613 283 l 724 -7 l 808 7 l 447 944 l 357 944 l 14 0 l 96 0 m 403 833 l 588 353 l 224 353 l 403 833 m 415 1239 l 340 1044 l 396 1026 l 514 1239 l 415 1239 z "},"Â":{"ha":822,"x_min":14,"x_max":808,"o":"m 96 0 l 200 283 l 613 283 l 724 -7 l 808 7 l 447 944 l 357 944 l 14 0 l 96 0 m 403 833 l 588 353 l 224 353 l 403 833 m 576 1040 l 435 1239 l 351 1239 l 213 1040 l 289 1026 l 393 1178 l 496 1026 l 576 1040 z "},"Ã":{"ha":822,"x_min":14,"x_max":808,"o":"m 96 0 l 200 283 l 613 283 l 724 -7 l 808 7 l 447 944 l 357 944 l 14 0 l 96 0 m 403 833 l 588 353 l 224 353 l 403 833 m 524 1179 q 506 1134 521 1149 q 471 1119 490 1119 q 404 1153 435 1119 q 314 1185 372 1185 q 199 1058 199 1185 l 261 1058 q 280 1104 264 1089 q 315 1119 296 1119 q 388 1086 350 1119 q 471 1053 422 1053 q 588 1179 588 1053 l 524 1179 z "},"Ä":{"ha":822,"x_min":14,"x_max":808,"o":"m 96 0 l 200 283 l 613 283 l 724 -7 l 808 7 l 447 944 l 357 944 l 14 0 l 96 0 m 403 833 l 588 353 l 224 353 l 403 833 m 288 1067 q 331 1084 314 1067 q 349 1128 349 1101 q 331 1169 349 1151 q 288 1186 314 1186 q 246 1169 264 1186 q 228 1128 228 1151 q 246 1085 228 1103 q 288 1067 264 1067 m 506 1067 q 549 1084 532 1067 q 565 1128 565 1101 q 549 1169 565 1153 q 506 1186 532 1186 q 463 1169 481 1186 q 446 1128 446 1151 q 463 1084 446 1101 q 506 1067 481 1067 z "},"Å":{"ha":822,"x_min":14,"x_max":808,"o":"m 96 0 l 200 283 l 613 283 l 724 -7 l 808 7 l 447 944 l 357 944 l 14 0 l 96 0 m 403 833 l 588 353 l 224 353 l 403 833 m 404 1263 q 317 1229 354 1263 q 281 1146 281 1196 q 317 1065 281 1097 q 404 1033 353 1033 q 491 1065 456 1033 q 526 1146 526 1097 q 490 1229 526 1196 q 404 1263 454 1263 m 404 1088 q 361 1104 379 1088 q 343 1146 343 1121 q 361 1190 343 1172 q 404 1207 379 1207 q 447 1190 429 1207 q 465 1146 465 1172 q 447 1104 465 1121 q 404 1088 429 1088 z "},"Ă":{"ha":822,"x_min":14,"x_max":808,"o":"m 96 0 l 200 283 l 613 283 l 724 -7 l 808 7 l 447 944 l 357 944 l 14 0 l 96 0 m 403 833 l 588 353 l 224 353 l 403 833 m 515 1224 q 483 1145 515 1181 q 400 1110 451 1110 q 315 1145 346 1110 q 283 1224 283 1181 l 219 1224 q 265 1096 219 1147 q 400 1043 310 1044 q 535 1096 490 1044 q 581 1224 581 1147 l 515 1224 z "},"Ą":{"ha":822,"x_min":14,"x_max":899,"o":"m 899 -246 q 851 -276 881 -264 q 788 -287 821 -287 q 684 -250 725 -287 q 643 -154 643 -212 q 665 -78 643 -119 q 724 -6 688 -37 l 613 283 l 200 283 l 96 0 l 14 0 l 357 944 l 447 944 l 808 7 l 779 1 l 804 0 q 744 -67 768 -25 q 719 -149 719 -110 q 740 -205 719 -187 q 792 -222 761 -222 q 868 -193 832 -222 l 899 -246 m 403 833 l 224 353 l 588 353 l 403 833 z "},"Ā":{"ha":822,"x_min":14,"x_max":808,"o":"m 96 0 l 200 283 l 613 283 l 724 -7 l 808 7 l 447 944 l 357 944 l 14 0 l 96 0 m 403 833 l 588 353 l 224 353 l 403 833 m 561 1165 l 235 1165 l 235 1097 l 569 1097 l 561 1165 z "},"Ç":{"ha":769,"x_min":63,"x_max":735,"o":"m 735 32 q 640 -1 701 14 q 522 -18 579 -15 l 500 -75 q 578 -113 546 -81 q 611 -183 611 -146 q 567 -275 611 -243 q 456 -307 522 -307 q 401 -299 431 -307 q 353 -281 371 -292 l 374 -222 q 456 -242 421 -242 q 511 -226 486 -242 q 536 -186 536 -211 q 500 -138 536 -158 q 411 -112 464 -118 l 449 -17 q 238 63 325 -6 q 106 236 150 131 q 63 467 63 342 q 117 719 63 606 q 271 898 171 832 q 504 964 371 964 q 628 950 556 964 q 735 913 700 936 l 707 849 q 615 879 656 869 q 506 889 574 889 q 327 834 407 889 q 201 683 247 779 q 154 468 154 588 q 194 260 154 354 q 312 112 235 167 q 493 57 389 57 q 609 68 561 57 q 701 99 657 79 l 735 32 z "},"Ć":{"ha":769,"x_min":63,"x_max":735,"o":"m 735 913 q 628 950 700 936 q 504 964 556 964 q 271 898 371 964 q 117 719 171 832 q 63 467 63 606 q 112 224 63 335 q 259 47 161 113 q 496 -19 357 -19 q 626 -4 556 -19 q 735 32 696 11 l 701 99 q 609 68 657 79 q 493 57 561 57 q 312 112 389 57 q 194 260 235 167 q 154 468 154 354 q 201 683 154 588 q 327 834 247 779 q 506 889 407 889 q 615 879 574 889 q 707 849 656 869 l 735 913 m 517 1239 l 442 1044 l 497 1026 l 615 1239 l 517 1239 z "},"Č":{"ha":769,"x_min":63,"x_max":735,"o":"m 735 913 q 628 950 700 936 q 504 964 556 964 q 271 898 371 964 q 117 719 171 832 q 63 467 63 606 q 112 224 63 335 q 259 47 161 113 q 496 -19 357 -19 q 626 -4 556 -19 q 735 32 696 11 l 701 99 q 609 68 657 79 q 493 57 561 57 q 312 112 389 57 q 194 260 235 167 q 154 468 154 354 q 201 683 154 588 q 327 834 247 779 q 506 889 407 889 q 615 879 574 889 q 707 849 656 869 l 735 913 m 321 1225 l 463 1026 l 546 1026 l 685 1225 l 608 1239 l 504 1088 l 401 1239 l 321 1225 z "},"Ď":{"ha":922,"x_min":132,"x_max":860,"o":"m 442 0 q 669 63 575 0 q 812 235 764 126 q 860 478 860 343 q 760 815 860 686 q 454 944 660 944 l 132 944 l 132 0 l 442 0 m 458 871 q 695 762 614 871 q 776 476 776 653 q 735 264 776 356 q 618 122 693 172 q 444 72 543 72 l 218 72 l 218 871 l 458 871 m 258 1225 l 400 1026 l 483 1026 l 622 1225 l 546 1239 l 442 1088 l 339 1239 l 258 1225 z "},"È":{"ha":699,"x_min":132,"x_max":671,"o":"m 218 69 l 218 453 l 558 453 l 551 515 l 218 515 l 218 882 l 639 882 l 632 944 l 132 944 l 132 0 l 671 0 l 663 69 l 218 69 m 365 1239 l 267 1239 l 385 1026 l 440 1044 l 365 1239 z "},"É":{"ha":699,"x_min":132,"x_max":671,"o":"m 218 69 l 218 453 l 558 453 l 551 515 l 218 515 l 218 882 l 639 882 l 632 944 l 132 944 l 132 0 l 671 0 l 663 69 l 218 69 m 399 1239 l 324 1044 l 379 1026 l 497 1239 l 399 1239 z "},"Ê":{"ha":699,"x_min":132,"x_max":671,"o":"m 218 69 l 218 453 l 558 453 l 551 515 l 218 515 l 218 882 l 639 882 l 632 944 l 132 944 l 132 0 l 671 0 l 663 69 l 218 69 m 560 1040 l 418 1239 l 335 1239 l 196 1040 l 272 1026 l 376 1178 l 479 1026 l 560 1040 z "},"Ë":{"ha":699,"x_min":132,"x_max":671,"o":"m 218 69 l 218 453 l 558 453 l 551 515 l 218 515 l 218 882 l 639 882 l 632 944 l 132 944 l 132 0 l 671 0 l 663 69 l 218 69 m 271 1067 q 315 1084 297 1067 q 332 1128 332 1101 q 315 1169 332 1151 q 271 1186 297 1186 q 229 1169 247 1186 q 211 1128 211 1151 q 229 1085 211 1103 q 271 1067 247 1067 m 489 1067 q 532 1084 515 1067 q 549 1128 549 1101 q 532 1169 549 1153 q 489 1186 515 1186 q 447 1169 464 1186 q 429 1128 429 1151 q 447 1084 429 1101 q 489 1067 464 1067 z "},"Ē":{"ha":699,"x_min":132,"x_max":671,"o":"m 218 69 l 218 453 l 558 453 l 551 515 l 218 515 l 218 882 l 639 882 l 632 944 l 132 944 l 132 0 l 671 0 l 663 69 l 218 69 m 544 1165 l 218 1165 l 218 1097 l 553 1097 l 544 1165 z "},"Ė":{"ha":699,"x_min":132,"x_max":671,"o":"m 218 69 l 218 453 l 558 453 l 551 515 l 218 515 l 218 882 l 639 882 l 632 944 l 132 944 l 132 0 l 671 0 l 663 69 l 218 69 m 385 1067 q 431 1086 411 1067 q 450 1133 450 1106 q 431 1180 450 1160 q 385 1200 411 1200 q 338 1180 357 1200 q 318 1133 318 1160 q 338 1086 318 1106 q 385 1067 357 1067 z "},"Ę":{"ha":699,"x_min":132,"x_max":678,"o":"m 678 -246 q 630 -276 660 -264 q 567 -287 600 -287 q 463 -250 504 -287 q 422 -154 422 -212 q 447 -76 422 -119 q 508 0 471 -32 l 132 0 l 132 944 l 632 944 l 639 882 l 218 882 l 218 515 l 551 515 l 558 453 l 218 453 l 218 69 l 663 69 l 671 0 l 583 0 q 523 -67 547 -25 q 499 -149 499 -110 q 519 -205 499 -187 q 571 -222 540 -222 q 647 -193 611 -222 l 678 -246 z "},"Ě":{"ha":699,"x_min":132,"x_max":671,"o":"m 218 69 l 218 453 l 558 453 l 551 515 l 218 515 l 218 882 l 639 882 l 632 944 l 132 944 l 132 0 l 671 0 l 663 69 l 218 69 m 203 1225 l 344 1026 l 428 1026 l 567 1225 l 490 1239 l 386 1088 l 283 1239 l 203 1225 z "},"Ğ":{"ha":869,"x_min":63,"x_max":793,"o":"m 707 89 q 538 57 619 57 q 342 107 429 57 q 205 251 256 157 q 154 468 154 344 q 210 692 154 597 q 358 838 267 788 q 550 889 449 888 q 658 879 617 889 q 751 849 700 869 l 778 913 q 671 950 743 936 q 547 964 599 964 q 301 901 413 964 q 126 726 190 839 q 63 467 63 613 q 122 218 63 329 q 290 44 182 107 q 539 -19 399 -19 q 678 -1 604 -19 q 793 44 751 17 l 793 475 l 503 475 l 494 413 l 707 413 l 707 89 m 631 1224 q 599 1145 631 1181 q 515 1110 567 1110 q 430 1145 461 1110 q 399 1224 399 1181 l 335 1224 q 380 1096 335 1147 q 515 1043 425 1044 q 651 1096 606 1044 q 696 1224 696 1147 l 631 1224 z "},"Ì":{"ha":350,"x_min":57,"x_max":231,"o":"m 132 944 l 132 0 l 218 0 l 218 944 l 132 944 m 156 1239 l 57 1239 l 175 1026 l 231 1044 l 156 1239 z "},"Í":{"ha":350,"x_min":114,"x_max":288,"o":"m 132 944 l 132 0 l 218 0 l 218 944 l 132 944 m 189 1239 l 114 1044 l 169 1026 l 288 1239 l 189 1239 z "},"Î":{"ha":350,"x_min":-14,"x_max":350,"o":"m 132 944 l 132 0 l 218 0 l 218 944 l 132 944 m 350 1040 l 208 1239 l 125 1239 l -14 1040 l 63 1026 l 167 1178 l 269 1026 l 350 1040 z "},"Ï":{"ha":350,"x_min":1,"x_max":339,"o":"m 132 944 l 132 0 l 218 0 l 218 944 l 132 944 m 61 1067 q 105 1084 88 1067 q 122 1128 122 1101 q 105 1169 122 1151 q 61 1186 88 1186 q 19 1169 38 1186 q 1 1128 1 1151 q 19 1085 1 1103 q 61 1067 38 1067 m 279 1067 q 322 1084 306 1067 q 339 1128 339 1101 q 322 1169 339 1153 q 279 1186 306 1186 q 237 1169 254 1186 q 219 1128 219 1151 q 237 1084 219 1101 q 279 1067 254 1067 z "},"Ī":{"ha":350,"x_min":8,"x_max":343,"o":"m 132 944 l 132 0 l 218 0 l 218 944 l 132 944 m 335 1165 l 8 1165 l 8 1097 l 343 1097 l 335 1165 z "},"Į":{"ha":350,"x_min":54,"x_max":310,"o":"m 310 -246 q 262 -276 292 -264 q 199 -287 232 -287 q 95 -250 136 -287 q 54 -154 54 -212 q 78 -76 54 -119 q 140 0 103 -32 l 132 0 l 132 944 l 218 944 l 218 0 l 215 0 q 155 -67 179 -25 q 131 -149 131 -110 q 151 -205 131 -187 q 203 -222 172 -222 q 279 -193 243 -222 l 310 -246 z "},"İ":{"ha":350,"x_min":108,"x_max":240,"o":"m 132 944 l 132 0 l 218 0 l 218 944 l 132 944 m 175 1067 q 221 1086 201 1067 q 240 1133 240 1106 q 221 1180 240 1160 q 175 1200 201 1200 q 128 1180 147 1200 q 108 1133 108 1160 q 128 1086 108 1106 q 175 1067 147 1067 z "},"Ĺ":{"ha":690,"x_min":132,"x_max":676,"o":"m 218 944 l 132 944 l 132 0 l 676 0 l 669 69 l 218 69 l 218 944 m 272 1239 l 197 1044 l 253 1026 l 371 1239 l 272 1239 z "},"Ľ":{"ha":690,"x_min":132,"x_max":676,"o":"m 218 944 l 132 944 l 132 0 l 676 0 l 669 69 l 218 69 l 218 944 m 522 975 q 474 955 493 975 q 454 908 454 935 q 471 864 454 883 q 513 842 488 844 q 490 781 510 807 q 435 732 471 756 l 460 692 q 550 778 513 718 q 588 899 588 838 q 568 953 588 932 q 522 975 549 975 z "},"Ñ":{"ha":951,"x_min":132,"x_max":819,"o":"m 238 738 l 763 0 l 819 0 l 819 944 l 732 944 l 732 179 l 685 261 l 189 944 l 132 944 l 132 0 l 218 0 l 218 778 l 238 738 m 594 1179 q 576 1134 592 1149 q 542 1119 561 1119 q 475 1153 506 1119 q 385 1185 443 1185 q 269 1058 269 1185 l 332 1058 q 351 1104 335 1089 q 386 1119 367 1119 q 458 1086 421 1119 q 542 1053 493 1053 q 658 1179 658 1053 l 594 1179 z "},"Ń":{"ha":951,"x_min":132,"x_max":819,"o":"m 238 738 l 763 0 l 819 0 l 819 944 l 732 944 l 732 179 l 685 261 l 189 944 l 132 944 l 132 0 l 218 0 l 218 778 l 238 738 m 486 1239 l 411 1044 l 467 1026 l 585 1239 l 486 1239 z "},"Ň":{"ha":951,"x_min":132,"x_max":819,"o":"m 238 738 l 763 0 l 819 0 l 819 944 l 732 944 l 732 179 l 685 261 l 189 944 l 132 944 l 132 0 l 218 0 l 218 778 l 238 738 m 290 1225 l 432 1026 l 515 1026 l 654 1225 l 578 1239 l 474 1088 l 371 1239 l 290 1225 z "},"Ò":{"ha":1001,"x_min":63,"x_max":939,"o":"m 504 967 q 277 899 378 964 q 119 721 176 833 q 63 468 63 608 q 118 217 63 328 q 273 43 174 106 q 496 -19 372 -19 q 724 47 622 -18 q 882 226 825 113 q 939 479 939 339 q 883 731 939 619 q 728 904 828 842 q 504 967 629 967 m 154 469 q 199 685 154 589 q 324 835 244 781 q 506 889 404 889 q 680 836 603 889 q 801 690 757 783 q 844 478 844 596 q 799 261 844 357 q 674 111 754 165 q 493 57 594 57 q 319 110 396 57 q 198 258 242 164 q 154 469 154 351 m 483 1239 l 385 1239 l 503 1026 l 558 1044 l 483 1239 z "},"Ó":{"ha":1001,"x_min":63,"x_max":939,"o":"m 504 967 q 277 899 378 964 q 119 721 176 833 q 63 468 63 608 q 118 217 63 328 q 273 43 174 106 q 496 -19 372 -19 q 724 47 622 -18 q 882 226 825 113 q 939 479 939 339 q 883 731 939 619 q 728 904 828 842 q 504 967 629 967 m 154 469 q 199 685 154 589 q 324 835 244 781 q 506 889 404 889 q 680 836 603 889 q 801 690 757 783 q 844 478 844 596 q 799 261 844 357 q 674 111 754 165 q 493 57 594 57 q 319 110 396 57 q 198 258 242 164 q 154 469 154 351 m 517 1239 l 442 1044 l 497 1026 l 615 1239 l 517 1239 z "},"Ô":{"ha":1001,"x_min":63,"x_max":939,"o":"m 504 967 q 277 899 378 964 q 119 721 176 833 q 63 468 63 608 q 118 217 63 328 q 273 43 174 106 q 496 -19 372 -19 q 724 47 622 -18 q 882 226 825 113 q 939 479 939 339 q 883 731 939 619 q 728 904 828 842 q 504 967 629 967 m 154 469 q 199 685 154 589 q 324 835 244 781 q 506 889 404 889 q 680 836 603 889 q 801 690 757 783 q 844 478 844 596 q 799 261 844 357 q 674 111 754 165 q 493 57 594 57 q 319 110 396 57 q 198 258 242 164 q 154 469 154 351 m 678 1040 l 536 1239 l 453 1239 l 314 1040 l 390 1026 l 494 1178 l 597 1026 l 678 1040 z "},"Õ":{"ha":1001,"x_min":63,"x_max":939,"o":"m 504 967 q 277 899 378 964 q 119 721 176 833 q 63 468 63 608 q 118 217 63 328 q 273 43 174 106 q 496 -19 372 -19 q 724 47 622 -18 q 882 226 825 113 q 939 479 939 339 q 883 731 939 619 q 728 904 828 842 q 504 967 629 967 m 154 469 q 199 685 154 589 q 324 835 244 781 q 506 889 404 889 q 680 836 603 889 q 801 690 757 783 q 844 478 844 596 q 799 261 844 357 q 674 111 754 165 q 493 57 594 57 q 319 110 396 57 q 198 258 242 164 q 154 469 154 351 m 625 1179 q 607 1134 622 1149 q 572 1119 592 1119 q 506 1153 536 1119 q 415 1185 474 1185 q 300 1058 300 1185 l 363 1058 q 381 1104 365 1089 q 417 1119 397 1119 q 489 1086 451 1119 q 572 1053 524 1053 q 689 1179 689 1053 l 625 1179 z "},"Ö":{"ha":1001,"x_min":63,"x_max":939,"o":"m 504 967 q 277 899 378 964 q 119 721 176 833 q 63 468 63 608 q 118 217 63 328 q 273 43 174 106 q 496 -19 372 -19 q 724 47 622 -18 q 882 226 825 113 q 939 479 939 339 q 883 731 939 619 q 728 904 828 842 q 504 967 629 967 m 154 469 q 199 685 154 589 q 324 835 244 781 q 506 889 404 889 q 680 836 603 889 q 801 690 757 783 q 844 478 844 596 q 799 261 844 357 q 674 111 754 165 q 493 57 594 57 q 319 110 396 57 q 198 258 242 164 q 154 469 154 351 m 389 1067 q 433 1084 415 1067 q 450 1128 450 1101 q 433 1169 450 1151 q 389 1186 415 1186 q 347 1169 365 1186 q 329 1128 329 1151 q 347 1085 329 1103 q 389 1067 365 1067 m 607 1067 q 650 1084 633 1067 q 667 1128 667 1101 q 650 1169 667 1153 q 607 1186 633 1186 q 565 1169 582 1186 q 547 1128 547 1151 q 565 1084 547 1101 q 607 1067 582 1067 z "},"Ō":{"ha":1001,"x_min":63,"x_max":939,"o":"m 504 967 q 277 899 378 964 q 119 721 176 833 q 63 468 63 608 q 118 217 63 328 q 273 43 174 106 q 496 -19 372 -19 q 724 47 622 -18 q 882 226 825 113 q 939 479 939 339 q 883 731 939 619 q 728 904 828 842 q 504 967 629 967 m 154 469 q 199 685 154 589 q 324 835 244 781 q 506 889 404 889 q 680 836 603 889 q 801 690 757 783 q 844 478 844 596 q 799 261 844 357 q 674 111 754 165 q 493 57 594 57 q 319 110 396 57 q 198 258 242 164 q 154 469 154 351 m 663 1165 l 336 1165 l 336 1097 l 671 1097 l 663 1165 z "},"Ő":{"ha":1001,"x_min":63,"x_max":939,"o":"m 504 967 q 277 899 378 964 q 119 721 176 833 q 63 468 63 608 q 118 217 63 328 q 273 43 174 106 q 496 -19 372 -19 q 724 47 622 -18 q 882 226 825 113 q 939 479 939 339 q 883 731 939 619 q 728 904 828 842 q 504 967 629 967 m 154 469 q 199 685 154 589 q 324 835 244 781 q 506 889 404 889 q 680 836 603 889 q 801 690 757 783 q 844 478 844 596 q 799 261 844 357 q 674 111 754 165 q 493 57 594 57 q 319 110 396 57 q 198 258 242 164 q 154 469 154 351 m 433 1239 l 358 1044 l 414 1026 l 532 1239 l 433 1239 m 628 1239 l 553 1044 l 608 1026 l 726 1239 l 628 1239 z "},"Ŕ":{"ha":806,"x_min":132,"x_max":792,"o":"m 218 0 l 218 397 l 361 397 q 471 404 413 397 l 694 0 l 792 0 l 547 428 q 717 675 715 494 q 626 881 717 817 q 376 944 535 944 l 132 944 l 132 0 l 218 0 m 379 871 q 565 828 500 871 q 629 672 629 785 q 555 515 628 563 q 364 468 482 468 l 218 468 l 218 871 l 379 871 m 389 1239 l 314 1044 l 369 1026 l 488 1239 l 389 1239 z "},"Ř":{"ha":806,"x_min":132,"x_max":792,"o":"m 218 0 l 218 397 l 361 397 q 471 404 413 397 l 694 0 l 792 0 l 547 428 q 717 675 715 494 q 626 881 717 817 q 376 944 535 944 l 132 944 l 132 0 l 218 0 m 379 871 q 565 828 500 871 q 629 672 629 785 q 555 515 628 563 q 364 468 482 468 l 218 468 l 218 871 l 379 871 m 193 1225 l 335 1026 l 418 1026 l 557 1225 l 481 1239 l 376 1088 l 274 1239 l 193 1225 z "},"Ś":{"ha":706,"x_min":63,"x_max":657,"o":"m 78 40 q 197 -1 124 15 q 331 -18 271 -18 q 505 13 431 -18 q 618 98 579 43 q 657 222 657 153 q 629 336 657 289 q 549 420 601 383 q 403 500 496 457 q 251 578 303 547 q 172 646 200 608 q 143 736 143 683 q 201 851 143 808 q 360 894 260 894 q 467 882 424 894 q 560 847 510 869 l 590 913 q 483 951 543 936 q 357 967 422 967 q 203 936 269 967 q 99 853 136 906 q 63 736 63 800 q 318 454 63 563 q 465 383 411 415 q 547 313 518 351 q 575 222 575 275 q 510 100 575 147 q 329 53 446 53 q 204 69 265 53 q 99 107 143 85 l 78 40 m 369 1239 l 294 1044 l 350 1026 l 468 1239 l 369 1239 z "},"Š":{"ha":706,"x_min":63,"x_max":657,"o":"m 78 40 q 197 -1 124 15 q 331 -18 271 -18 q 505 13 431 -18 q 618 98 579 43 q 657 222 657 153 q 629 336 657 289 q 549 420 601 383 q 403 500 496 457 q 251 578 303 547 q 172 646 200 608 q 143 736 143 683 q 201 851 143 808 q 360 894 260 894 q 467 882 424 894 q 560 847 510 869 l 590 913 q 483 951 543 936 q 357 967 422 967 q 203 936 269 967 q 99 853 136 906 q 63 736 63 800 q 318 454 63 563 q 465 383 411 415 q 547 313 518 351 q 575 222 575 275 q 510 100 575 147 q 329 53 446 53 q 204 69 265 53 q 99 107 143 85 l 78 40 m 174 1225 l 315 1026 l 399 1026 l 538 1225 l 461 1239 l 357 1088 l 254 1239 l 174 1225 z "},"Ť":{"ha":768,"x_min":14,"x_max":754,"o":"m 14 876 l 340 876 l 340 0 l 428 0 l 428 876 l 754 876 l 747 944 l 14 944 l 14 876 m 203 1225 l 344 1026 l 428 1026 l 567 1225 l 490 1239 l 386 1088 l 283 1239 l 203 1225 z "},"Ù":{"ha":935,"x_min":118,"x_max":817,"o":"m 118 332 q 161 153 118 232 q 283 28 204 74 q 467 -17 363 -17 q 651 28 572 -17 q 774 153 731 74 q 817 332 817 232 l 817 944 l 729 944 l 729 344 q 698 198 729 264 q 607 94 667 132 q 467 57 547 57 q 329 95 389 57 q 237 199 269 133 q 204 344 204 264 l 204 944 l 118 944 l 118 332 m 446 1239 l 347 1239 l 465 1026 l 521 1044 l 446 1239 z "},"Ú":{"ha":935,"x_min":118,"x_max":817,"o":"m 118 332 q 161 153 118 232 q 283 28 204 74 q 467 -17 363 -17 q 651 28 572 -17 q 774 153 731 74 q 817 332 817 232 l 817 944 l 729 944 l 729 344 q 698 198 729 264 q 607 94 667 132 q 467 57 547 57 q 329 95 389 57 q 237 199 269 133 q 204 344 204 264 l 204 944 l 118 944 l 118 332 m 479 1239 l 404 1044 l 460 1026 l 578 1239 l 479 1239 z "},"Û":{"ha":935,"x_min":118,"x_max":817,"o":"m 118 332 q 161 153 118 232 q 283 28 204 74 q 467 -17 363 -17 q 651 28 572 -17 q 774 153 731 74 q 817 332 817 232 l 817 944 l 729 944 l 729 344 q 698 198 729 264 q 607 94 667 132 q 467 57 547 57 q 329 95 389 57 q 237 199 269 133 q 204 344 204 264 l 204 944 l 118 944 l 118 332 m 640 1040 l 499 1239 l 415 1239 l 276 1040 l 353 1026 l 457 1178 l 560 1026 l 640 1040 z "},"Ü":{"ha":935,"x_min":118,"x_max":817,"o":"m 118 332 q 161 153 118 232 q 283 28 204 74 q 467 -17 363 -17 q 651 28 572 -17 q 774 153 731 74 q 817 332 817 232 l 817 944 l 729 944 l 729 344 q 698 198 729 264 q 607 94 667 132 q 467 57 547 57 q 329 95 389 57 q 237 199 269 133 q 204 344 204 264 l 204 944 l 118 944 l 118 332 m 351 1067 q 395 1084 378 1067 q 413 1128 413 1101 q 395 1169 413 1151 q 351 1186 378 1186 q 310 1169 328 1186 q 292 1128 292 1151 q 310 1085 292 1103 q 351 1067 328 1067 m 569 1067 q 613 1084 596 1067 q 629 1128 629 1101 q 613 1169 629 1153 q 569 1186 596 1186 q 527 1169 544 1186 q 510 1128 510 1151 q 527 1084 510 1101 q 569 1067 544 1067 z "},"Ū":{"ha":935,"x_min":118,"x_max":817,"o":"m 118 332 q 161 153 118 232 q 283 28 204 74 q 467 -17 363 -17 q 651 28 572 -17 q 774 153 731 74 q 817 332 817 232 l 817 944 l 729 944 l 729 344 q 698 198 729 264 q 607 94 667 132 q 467 57 547 57 q 329 95 389 57 q 237 199 269 133 q 204 344 204 264 l 204 944 l 118 944 l 118 332 m 625 1165 l 299 1165 l 299 1097 l 633 1097 l 625 1165 z "},"Ů":{"ha":935,"x_min":118,"x_max":817,"o":"m 118 332 q 161 153 118 232 q 283 28 204 74 q 467 -17 363 -17 q 651 28 572 -17 q 774 153 731 74 q 817 332 817 232 l 817 944 l 729 944 l 729 344 q 698 198 729 264 q 607 94 667 132 q 467 57 547 57 q 329 95 389 57 q 237 199 269 133 q 204 344 204 264 l 204 944 l 118 944 l 118 332 m 468 1263 q 381 1229 418 1263 q 344 1146 344 1196 q 381 1065 344 1097 q 468 1033 417 1033 q 555 1065 519 1033 q 590 1146 590 1097 q 554 1229 590 1196 q 468 1263 518 1263 m 468 1088 q 425 1104 443 1088 q 407 1146 407 1121 q 425 1190 407 1172 q 468 1207 443 1207 q 511 1190 493 1207 q 529 1146 529 1172 q 511 1104 529 1121 q 468 1088 493 1088 z "},"Ű":{"ha":935,"x_min":118,"x_max":817,"o":"m 118 332 q 161 153 118 232 q 283 28 204 74 q 467 -17 363 -17 q 651 28 572 -17 q 774 153 731 74 q 817 332 817 232 l 817 944 l 729 944 l 729 344 q 698 198 729 264 q 607 94 667 132 q 467 57 547 57 q 329 95 389 57 q 237 199 269 133 q 204 344 204 264 l 204 944 l 118 944 l 118 332 m 396 1239 l 321 1044 l 376 1026 l 494 1239 l 396 1239 m 590 1239 l 515 1044 l 571 1026 l 689 1239 l 590 1239 z "},"Ų":{"ha":935,"x_min":118,"x_max":817,"o":"m 817 332 q 776 157 817 235 q 660 33 735 79 q 483 -17 585 -12 q 438 -79 456 -43 q 419 -149 419 -115 q 440 -205 419 -187 q 492 -222 461 -222 q 568 -193 532 -222 l 599 -246 q 551 -276 581 -264 q 488 -287 521 -287 q 384 -250 425 -287 q 343 -154 343 -212 q 363 -84 343 -122 q 415 -14 383 -46 q 199 99 279 4 q 118 332 118 193 l 118 944 l 204 944 l 204 344 q 237 199 204 264 q 329 95 269 133 q 467 57 389 57 q 607 94 547 57 q 698 198 667 132 q 729 344 729 264 l 729 944 l 817 944 l 817 332 z "},"Ý":{"ha":758,"x_min":14,"x_max":744,"o":"m 744 944 l 651 944 l 369 467 l 90 965 l 14 922 l 326 383 l 325 0 l 413 0 l 414 393 l 744 944 m 382 1239 l 307 1044 l 363 1026 l 481 1239 l 382 1239 z "},"Ÿ":{"ha":758,"x_min":14,"x_max":744,"o":"m 744 944 l 651 944 l 369 467 l 90 965 l 14 922 l 326 383 l 325 0 l 413 0 l 414 393 l 744 944 m 254 1067 q 298 1084 281 1067 q 315 1128 315 1101 q 298 1169 315 1151 q 254 1186 281 1186 q 213 1169 231 1186 q 194 1128 194 1151 q 213 1085 194 1103 q 254 1067 231 1067 m 472 1067 q 515 1084 499 1067 q 532 1128 532 1101 q 515 1169 532 1153 q 472 1186 499 1186 q 430 1169 447 1186 q 413 1128 413 1151 q 430 1084 413 1101 q 472 1067 447 1067 z "},"Ź":{"ha":776,"x_min":35,"x_max":742,"o":"m 742 876 l 735 944 l 72 944 l 86 876 l 649 876 l 35 69 l 43 0 l 721 0 l 714 69 l 131 69 l 742 876 m 410 1239 l 335 1044 l 390 1026 l 508 1239 l 410 1239 z "},"Ż":{"ha":776,"x_min":35,"x_max":742,"o":"m 742 876 l 735 944 l 72 944 l 86 876 l 649 876 l 35 69 l 43 0 l 721 0 l 714 69 l 131 69 l 742 876 m 396 1067 q 442 1086 422 1067 q 461 1133 461 1106 q 442 1180 461 1160 q 396 1200 422 1200 q 349 1180 368 1200 q 329 1133 329 1160 q 349 1086 329 1106 q 396 1067 368 1067 z "},"Ž":{"ha":776,"x_min":35,"x_max":742,"o":"m 742 876 l 735 944 l 72 944 l 86 876 l 649 876 l 35 69 l 43 0 l 721 0 l 714 69 l 131 69 l 742 876 m 214 1225 l 356 1026 l 439 1026 l 578 1225 l 501 1239 l 397 1088 l 294 1239 l 214 1225 z "},"Ş":{"ha":706,"x_min":63,"x_max":657,"o":"m 657 222 q 577 55 657 121 q 358 -18 497 -11 l 336 -75 q 415 -113 382 -81 q 447 -183 447 -146 q 403 -275 447 -243 q 292 -307 358 -307 q 237 -299 267 -307 q 189 -281 207 -292 l 210 -222 q 292 -242 257 -242 q 347 -226 322 -242 q 372 -186 372 -211 q 336 -138 372 -158 q 247 -112 300 -118 l 285 -15 q 172 5 229 -10 q 78 40 114 19 l 99 107 q 204 69 143 85 q 329 53 265 53 q 510 100 446 53 q 575 222 575 147 q 547 313 575 275 q 465 383 518 351 q 318 454 411 415 q 63 736 63 563 q 99 853 63 800 q 203 936 136 906 q 357 967 269 967 q 483 951 422 967 q 590 913 543 936 l 560 847 q 467 882 510 869 q 360 894 424 894 q 201 851 260 894 q 143 736 143 808 q 172 646 143 683 q 251 578 200 608 q 403 500 303 547 q 549 420 496 457 q 629 336 601 383 q 657 222 657 289 z "},"Ţ":{"ha":768,"x_min":14,"x_max":754,"o":"m 393 -75 q 472 -113 439 -81 q 504 -183 504 -146 q 460 -275 504 -243 q 349 -307 415 -307 q 294 -299 324 -307 q 246 -281 264 -292 l 267 -222 q 349 -242 314 -242 q 405 -226 381 -242 q 429 -186 429 -211 q 393 -138 429 -158 q 304 -112 357 -118 l 349 0 l 340 0 l 340 876 l 14 876 l 14 944 l 747 944 l 754 876 l 428 876 l 428 18 l 429 18 l 428 14 l 428 0 l 422 0 l 393 -75 z "},"Ș":{"ha":706,"x_min":63,"x_max":657,"o":"m 78 40 q 197 -1 124 15 q 331 -18 271 -18 q 505 13 431 -18 q 618 98 579 43 q 657 222 657 153 q 629 336 657 289 q 549 420 601 383 q 403 500 496 457 q 251 578 303 547 q 172 646 200 608 q 143 736 143 683 q 201 851 143 808 q 360 894 260 894 q 467 882 424 894 q 560 847 510 869 l 590 913 q 483 951 543 936 q 357 967 422 967 q 203 936 269 967 q 99 853 136 906 q 63 736 63 800 q 318 454 63 563 q 465 383 411 415 q 547 313 518 351 q 575 222 575 275 q 510 100 575 147 q 329 53 446 53 q 204 69 265 53 q 99 107 143 85 l 78 40 m 332 -29 q 285 -49 306 -29 q 265 -96 265 -68 q 282 -139 265 -119 q 325 -161 299 -158 q 303 -220 324 -194 q 246 -271 283 -246 l 271 -312 q 362 -226 325 -286 q 399 -104 399 -167 q 380 -50 399 -71 q 332 -29 361 -29 z "},"à":{"ha":671,"x_min":72,"x_max":586,"o":"m 146 572 q 237 608 200 597 q 339 619 274 619 q 459 576 418 619 q 500 458 500 532 l 500 390 l 313 390 q 139 338 206 392 q 72 189 72 283 q 131 40 72 97 q 299 -18 189 -18 q 412 9 354 -18 q 504 72 469 36 l 515 0 l 586 0 l 586 472 q 518 632 586 572 q 335 692 450 692 q 222 675 289 692 q 119 633 156 658 l 146 572 m 157 189 q 197 292 157 250 q 310 333 238 333 l 500 333 l 500 163 q 409 84 461 115 q 296 53 357 53 q 192 94 226 53 q 157 189 157 135 m 331 1031 l 232 1031 l 350 818 l 406 836 l 331 1031 z "},"á":{"ha":671,"x_min":72,"x_max":586,"o":"m 146 572 q 237 608 200 597 q 339 619 274 619 q 459 576 418 619 q 500 458 500 532 l 500 390 l 313 390 q 139 338 206 392 q 72 189 72 283 q 131 40 72 97 q 299 -18 189 -18 q 412 9 354 -18 q 504 72 469 36 l 515 0 l 586 0 l 586 472 q 518 632 586 572 q 335 692 450 692 q 222 675 289 692 q 119 633 156 658 l 146 572 m 157 189 q 197 292 157 250 q 310 333 238 333 l 500 333 l 500 163 q 409 84 461 115 q 296 53 357 53 q 192 94 226 53 q 157 189 157 135 m 356 1031 l 281 836 l 336 818 l 454 1031 l 356 1031 z "},"â":{"ha":671,"x_min":72,"x_max":586,"o":"m 146 572 q 237 608 200 597 q 339 619 274 619 q 459 576 418 619 q 500 458 500 532 l 500 390 l 313 390 q 139 338 206 392 q 72 189 72 283 q 131 40 72 97 q 299 -18 189 -18 q 412 9 354 -18 q 504 72 469 36 l 515 0 l 586 0 l 586 472 q 518 632 586 572 q 335 692 450 692 q 222 675 289 692 q 119 633 156 658 l 146 572 m 157 189 q 197 292 157 250 q 310 333 238 333 l 500 333 l 500 163 q 409 84 461 115 q 296 53 357 53 q 192 94 226 53 q 157 189 157 135 m 525 832 l 383 1031 l 300 1031 l 161 832 l 238 818 l 342 969 l 444 818 l 525 832 z "},"ã":{"ha":671,"x_min":72,"x_max":586,"o":"m 146 572 q 237 608 200 597 q 339 619 274 619 q 459 576 418 619 q 500 458 500 532 l 500 390 l 313 390 q 139 338 206 392 q 72 189 72 283 q 131 40 72 97 q 299 -18 189 -18 q 412 9 354 -18 q 504 72 469 36 l 515 0 l 586 0 l 586 472 q 518 632 586 572 q 335 692 450 692 q 222 675 289 692 q 119 633 156 658 l 146 572 m 157 189 q 197 292 157 250 q 310 333 238 333 l 500 333 l 500 163 q 409 84 461 115 q 296 53 357 53 q 192 94 226 53 q 157 189 157 135 m 457 971 q 439 926 454 940 q 404 911 424 911 q 338 944 368 911 q 247 976 306 976 q 132 850 132 976 l 194 850 q 213 896 197 881 q 249 911 229 911 q 321 878 283 911 q 404 844 356 844 q 521 971 521 844 l 457 971 z "},"ä":{"ha":671,"x_min":72,"x_max":586,"o":"m 146 572 q 237 608 200 597 q 339 619 274 619 q 459 576 418 619 q 500 458 500 532 l 500 390 l 313 390 q 139 338 206 392 q 72 189 72 283 q 131 40 72 97 q 299 -18 189 -18 q 412 9 354 -18 q 504 72 469 36 l 515 0 l 586 0 l 586 472 q 518 632 586 572 q 335 692 450 692 q 222 675 289 692 q 119 633 156 658 l 146 572 m 157 189 q 197 292 157 250 q 310 333 238 333 l 500 333 l 500 163 q 409 84 461 115 q 296 53 357 53 q 192 94 226 53 q 157 189 157 135 m 232 858 q 276 876 258 858 q 293 919 293 893 q 276 960 293 943 q 232 978 258 978 q 190 960 208 978 q 172 919 172 943 q 190 876 172 894 q 232 858 208 858 m 450 858 q 493 876 476 858 q 510 919 510 893 q 493 961 510 944 q 450 978 476 978 q 408 960 425 978 q 390 919 390 943 q 408 876 390 893 q 450 858 425 858 z "},"å":{"ha":671,"x_min":72,"x_max":586,"o":"m 146 572 q 237 608 200 597 q 339 619 274 619 q 459 576 418 619 q 500 458 500 532 l 500 390 l 313 390 q 139 338 206 392 q 72 189 72 283 q 131 40 72 97 q 299 -18 189 -18 q 412 9 354 -18 q 504 72 469 36 l 515 0 l 586 0 l 586 472 q 518 632 586 572 q 335 692 450 692 q 222 675 289 692 q 119 633 156 658 l 146 572 m 157 189 q 197 292 157 250 q 310 333 238 333 l 500 333 l 500 163 q 409 84 461 115 q 296 53 357 53 q 192 94 226 53 q 157 189 157 135 m 347 1054 q 260 1021 297 1054 q 224 938 224 988 q 260 857 224 889 q 347 825 296 825 q 434 857 399 825 q 469 938 469 889 q 433 1021 469 988 q 347 1054 397 1054 m 347 879 q 304 896 322 879 q 286 938 286 913 q 304 981 286 964 q 347 999 322 999 q 390 981 372 999 q 408 938 408 964 q 390 896 408 913 q 347 879 372 879 z "},"ā":{"ha":671,"x_min":72,"x_max":586,"o":"m 146 572 q 237 608 200 597 q 339 619 274 619 q 459 576 418 619 q 500 458 500 532 l 500 390 l 313 390 q 139 338 206 392 q 72 189 72 283 q 131 40 72 97 q 299 -18 189 -18 q 412 9 354 -18 q 504 72 469 36 l 515 0 l 586 0 l 586 472 q 518 632 586 572 q 335 692 450 692 q 222 675 289 692 q 119 633 156 658 l 146 572 m 157 189 q 197 292 157 250 q 310 333 238 333 l 500 333 l 500 163 q 409 84 461 115 q 296 53 357 53 q 192 94 226 53 q 157 189 157 135 m 493 957 l 167 957 l 167 889 l 501 889 l 493 957 z "},"ă":{"ha":671,"x_min":72,"x_max":586,"o":"m 146 572 q 237 608 200 597 q 339 619 274 619 q 459 576 418 619 q 500 458 500 532 l 500 390 l 313 390 q 139 338 206 392 q 72 189 72 283 q 131 40 72 97 q 299 -18 189 -18 q 412 9 354 -18 q 504 72 469 36 l 515 0 l 586 0 l 586 472 q 518 632 586 572 q 335 692 450 692 q 222 675 289 692 q 119 633 156 658 l 146 572 m 157 189 q 197 292 157 250 q 310 333 238 333 l 500 333 l 500 163 q 409 84 461 115 q 296 53 357 53 q 192 94 226 53 q 157 189 157 135 m 453 1015 q 421 937 453 972 q 338 901 389 901 q 252 937 283 901 q 221 1015 221 972 l 157 1015 q 202 888 157 939 q 338 835 247 836 q 473 888 428 836 q 518 1015 518 939 l 453 1015 z "},"ą":{"ha":671,"x_min":72,"x_max":689,"o":"m 689 -246 q 641 -276 671 -264 q 578 -287 611 -287 q 474 -250 515 -287 q 433 -154 433 -212 q 458 -76 433 -119 q 519 0 482 -32 l 515 0 l 504 72 q 412 9 469 36 q 299 -18 354 -18 q 131 40 189 -18 q 72 189 72 97 q 139 338 72 283 q 313 390 206 392 l 500 390 l 500 458 q 459 576 500 532 q 339 619 418 619 q 237 608 274 619 q 146 572 200 597 l 119 633 q 222 675 156 658 q 335 692 289 692 q 518 632 450 692 q 586 472 586 572 l 586 0 l 594 0 q 534 -67 558 -25 q 510 -149 510 -110 q 531 -205 510 -187 q 582 -222 551 -222 q 658 -193 622 -222 l 689 -246 m 310 333 q 197 292 238 333 q 157 189 157 250 q 192 94 157 135 q 296 53 226 53 q 409 84 357 53 q 500 163 461 115 l 500 333 l 310 333 z "},"ç":{"ha":626,"x_min":49,"x_max":583,"o":"m 576 39 q 490 3 543 18 q 392 -17 438 -12 l 369 -75 q 448 -113 415 -81 q 481 -183 481 -146 q 436 -275 481 -243 q 325 -307 392 -307 q 270 -299 300 -307 q 222 -281 240 -292 l 243 -222 q 325 -242 290 -242 q 381 -226 356 -242 q 406 -186 406 -211 q 369 -138 406 -158 q 281 -112 333 -118 l 319 -15 q 120 97 192 0 q 49 340 49 193 q 89 521 49 440 q 203 647 129 601 q 374 692 276 692 q 481 675 417 692 q 583 633 544 658 l 556 572 q 469 608 506 597 q 369 619 432 619 q 199 542 261 619 q 136 342 138 464 q 194 133 136 213 q 363 54 253 54 q 462 65 428 54 q 549 101 496 75 l 576 39 z "},"ć":{"ha":626,"x_min":49,"x_max":583,"o":"m 549 101 q 462 65 496 75 q 363 54 428 54 q 194 133 253 54 q 136 342 136 213 q 199 542 138 464 q 369 619 261 619 q 469 608 432 619 q 556 572 506 597 l 583 633 q 481 675 544 658 q 374 692 417 692 q 203 647 276 692 q 89 521 129 601 q 49 340 49 440 q 86 153 49 235 q 195 27 124 72 q 364 -18 267 -18 q 474 -2 410 -18 q 576 39 538 14 l 549 101 m 379 1031 l 304 836 l 360 818 l 478 1031 l 379 1031 z "},"č":{"ha":626,"x_min":49,"x_max":583,"o":"m 549 101 q 462 65 496 75 q 363 54 428 54 q 194 133 253 54 q 136 342 136 213 q 199 542 138 464 q 369 619 261 619 q 469 608 432 619 q 556 572 506 597 l 583 633 q 481 675 544 658 q 374 692 417 692 q 203 647 276 692 q 89 521 129 601 q 49 340 49 440 q 86 153 49 235 q 195 27 124 72 q 364 -18 267 -18 q 474 -2 410 -18 q 576 39 538 14 l 549 101 m 189 1017 l 331 818 l 414 818 l 553 1017 l 476 1031 l 372 879 l 269 1031 l 189 1017 z "},"ď":{"ha":899,"x_min":49,"x_max":857,"o":"m 613 979 l 613 0 l 556 0 l 540 53 q 453 1 500 19 q 356 -18 406 -18 q 129 79 210 -18 q 49 338 49 176 q 87 519 50 439 q 194 646 124 600 q 361 692 264 692 q 525 631 442 692 l 525 967 l 613 979 m 792 975 q 838 953 818 975 q 857 899 857 932 q 819 778 857 838 q 729 692 782 718 l 704 732 q 760 781 740 756 q 782 842 779 807 q 740 864 757 844 q 724 908 724 883 q 743 955 724 935 q 792 975 763 975 m 354 54 q 525 126 453 54 l 525 553 q 451 602 490 585 q 357 619 411 619 q 194 541 250 619 q 136 339 138 463 q 190 131 136 208 q 354 54 244 54 z "},"è":{"ha":685,"x_min":49,"x_max":636,"o":"m 636 332 q 567 594 636 496 q 354 692 497 692 q 130 594 210 692 q 49 340 50 497 q 135 79 49 176 q 390 -18 221 -18 q 515 -2 463 -18 q 626 46 567 14 l 597 110 q 492 66 542 81 q 386 51 442 51 q 197 127 257 51 q 136 332 138 203 l 636 332 m 139 392 q 201 558 149 496 q 350 619 254 619 q 549 392 526 619 l 139 392 m 338 1031 l 239 1031 l 357 818 l 413 836 l 338 1031 z "},"é":{"ha":685,"x_min":49,"x_max":636,"o":"m 636 332 q 567 594 636 496 q 354 692 497 692 q 130 594 210 692 q 49 340 50 497 q 135 79 49 176 q 390 -18 221 -18 q 515 -2 463 -18 q 626 46 567 14 l 597 110 q 492 66 542 81 q 386 51 442 51 q 197 127 257 51 q 136 332 138 203 l 636 332 m 139 392 q 201 558 149 496 q 350 619 254 619 q 549 392 526 619 l 139 392 m 363 1031 l 288 836 l 343 818 l 461 1031 l 363 1031 z "},"ê":{"ha":685,"x_min":49,"x_max":636,"o":"m 636 332 q 567 594 636 496 q 354 692 497 692 q 130 594 210 692 q 49 340 50 497 q 135 79 49 176 q 390 -18 221 -18 q 515 -2 463 -18 q 626 46 567 14 l 597 110 q 492 66 542 81 q 386 51 442 51 q 197 127 257 51 q 136 332 138 203 l 636 332 m 139 392 q 201 558 149 496 q 350 619 254 619 q 549 392 526 619 l 139 392 m 532 832 l 390 1031 l 307 1031 l 168 832 l 244 818 l 349 969 l 451 818 l 532 832 z "},"ë":{"ha":685,"x_min":49,"x_max":636,"o":"m 636 332 q 567 594 636 496 q 354 692 497 692 q 130 594 210 692 q 49 340 50 497 q 135 79 49 176 q 390 -18 221 -18 q 515 -2 463 -18 q 626 46 567 14 l 597 110 q 492 66 542 81 q 386 51 442 51 q 197 127 257 51 q 136 332 138 203 l 636 332 m 139 392 q 201 558 149 496 q 350 619 254 619 q 549 392 526 619 l 139 392 m 239 858 q 283 876 265 858 q 300 919 300 893 q 283 960 300 943 q 239 978 265 978 q 197 960 215 978 q 179 919 179 943 q 197 876 179 894 q 239 858 215 858 m 457 858 q 500 876 483 858 q 517 919 517 893 q 500 961 517 944 q 457 978 483 978 q 415 960 432 978 q 397 919 397 943 q 415 876 397 893 q 457 858 432 858 z "},"ē":{"ha":685,"x_min":49,"x_max":636,"o":"m 636 332 q 567 594 636 496 q 354 692 497 692 q 130 594 210 692 q 49 340 50 497 q 135 79 49 176 q 390 -18 221 -18 q 515 -2 463 -18 q 626 46 567 14 l 597 110 q 492 66 542 81 q 386 51 442 51 q 197 127 257 51 q 136 332 138 203 l 636 332 m 139 392 q 201 558 149 496 q 350 619 254 619 q 549 392 526 619 l 139 392 m 500 957 l 174 957 l 174 889 l 508 889 l 500 957 z "},"ė":{"ha":685,"x_min":49,"x_max":636,"o":"m 636 332 q 567 594 636 496 q 354 692 497 692 q 130 594 210 692 q 49 340 50 497 q 135 79 49 176 q 390 -18 221 -18 q 515 -2 463 -18 q 626 46 567 14 l 597 110 q 492 66 542 81 q 386 51 442 51 q 197 127 257 51 q 136 332 138 203 l 636 332 m 139 392 q 201 558 149 496 q 350 619 254 619 q 549 392 526 619 l 139 392 m 353 858 q 399 878 379 858 q 418 925 418 897 q 399 972 418 951 q 353 992 379 992 q 306 972 325 992 q 286 925 286 951 q 306 878 286 897 q 353 858 325 858 z "},"ę":{"ha":685,"x_min":49,"x_max":636,"o":"m 497 -7 q 442 -72 464 -32 q 421 -149 421 -111 q 442 -205 421 -187 q 493 -222 463 -222 q 569 -193 533 -222 l 600 -246 q 552 -276 582 -264 q 489 -287 522 -287 q 385 -250 426 -287 q 344 -154 344 -212 q 363 -85 344 -122 q 413 -18 382 -49 l 390 -18 q 135 79 221 -18 q 49 340 49 176 q 130 594 50 497 q 354 692 210 692 q 567 594 497 692 q 636 332 636 496 l 136 332 q 197 127 138 203 q 386 51 257 51 q 492 66 442 51 q 597 110 542 81 l 626 46 q 497 -7 551 7 m 350 619 q 201 558 254 619 q 139 392 149 496 l 549 392 q 350 619 526 619 z "},"ě":{"ha":685,"x_min":49,"x_max":636,"o":"m 636 332 q 567 594 636 496 q 354 692 497 692 q 130 594 210 692 q 49 340 50 497 q 135 79 49 176 q 390 -18 221 -18 q 515 -2 463 -18 q 626 46 567 14 l 597 110 q 492 66 542 81 q 386 51 442 51 q 197 127 257 51 q 136 332 138 203 l 636 332 m 139 392 q 201 558 149 496 q 350 619 254 619 q 549 392 526 619 l 139 392 m 172 1017 l 314 818 l 397 818 l 536 1017 l 460 1031 l 356 879 l 253 1031 l 172 1017 z "},"ğ":{"ha":711,"x_min":49,"x_max":613,"o":"m 613 -86 q 578 -206 613 -153 q 478 -289 543 -258 q 326 -319 413 -319 q 209 -303 281 -319 q 97 -262 138 -286 l 124 -199 q 214 -233 168 -219 q 324 -247 260 -246 q 469 -206 413 -247 q 525 -85 525 -164 l 525 40 q 356 -18 446 -18 q 129 79 210 -18 q 49 338 49 176 q 87 519 50 439 q 194 646 124 600 q 361 692 264 692 q 536 622 446 692 l 556 674 l 613 674 l 613 -86 m 354 54 q 525 126 453 54 l 525 553 q 451 602 490 585 q 357 619 411 619 q 194 541 250 619 q 136 339 138 463 q 190 131 136 208 q 354 54 244 54 m 464 1015 q 432 937 464 972 q 349 901 400 901 q 263 937 294 901 q 232 1015 232 972 l 168 1015 q 213 888 168 939 q 349 835 258 836 q 484 888 439 836 q 529 1015 529 939 l 464 1015 z "},"ì":{"ha":268,"x_min":22,"x_max":196,"o":"m 90 674 l 90 0 l 178 0 l 178 674 l 90 674 m 121 1031 l 22 1031 l 140 818 l 196 836 l 121 1031 z "},"í":{"ha":268,"x_min":71,"x_max":244,"o":"m 90 674 l 90 0 l 178 0 l 178 674 l 90 674 m 146 1031 l 71 836 l 126 818 l 244 1031 l 146 1031 z "},"î":{"ha":268,"x_min":-49,"x_max":315,"o":"m 90 674 l 90 0 l 178 0 l 178 674 l 90 674 m 315 832 l 174 1031 l 90 1031 l -49 832 l 28 818 l 132 969 l 235 818 l 315 832 z "},"ï":{"ha":268,"x_min":-37,"x_max":300,"o":"m 90 674 l 90 0 l 178 0 l 178 674 l 90 674 m 22 858 q 66 876 49 858 q 83 919 83 893 q 66 960 83 943 q 22 978 49 978 q -19 960 -1 978 q -37 919 -37 943 q -19 876 -37 894 q 22 858 -1 858 m 240 858 q 283 876 267 858 q 300 919 300 893 q 283 961 300 944 q 240 978 267 978 q 198 960 215 978 q 181 919 181 943 q 198 876 181 893 q 240 858 215 858 z "},"ī":{"ha":268,"x_min":-43,"x_max":292,"o":"m 90 674 l 90 0 l 178 0 l 178 674 l 90 674 m 283 957 l -43 957 l -43 889 l 292 889 l 283 957 z "},"į":{"ha":268,"x_min":14,"x_max":269,"o":"m 136 858 q 89 878 108 858 q 69 925 69 897 q 89 972 69 951 q 136 992 108 992 q 182 972 163 992 q 201 925 201 951 q 182 878 201 897 q 136 858 163 858 m 269 -246 q 222 -276 251 -264 q 158 -287 192 -287 q 55 -250 96 -287 q 14 -154 14 -212 q 38 -76 14 -119 q 100 0 63 -32 l 90 0 l 90 674 l 178 674 l 178 0 l 175 0 q 115 -67 139 -25 q 90 -149 90 -110 q 111 -205 90 -187 q 163 -222 132 -222 q 239 -193 203 -222 l 269 -246 z "},"ľ":{"ha":476,"x_min":104,"x_max":435,"o":"m 104 967 l 104 0 l 190 0 l 190 981 l 104 967 m 369 975 q 321 955 340 975 q 301 908 301 935 q 318 864 301 883 q 360 842 335 844 q 338 781 357 807 q 282 732 318 756 l 307 692 q 397 778 360 718 q 435 899 435 838 q 415 953 435 932 q 369 975 396 975 z "},"ñ":{"ha":717,"x_min":90,"x_max":632,"o":"m 176 481 q 292 578 222 539 q 415 618 363 618 q 546 451 546 618 l 546 1 l 632 1 l 632 468 q 581 631 632 569 q 425 692 529 692 q 290 656 363 692 q 175 571 218 621 l 161 674 l 90 674 l 90 0 l 176 0 l 176 481 m 485 971 q 467 926 482 940 q 432 911 451 911 q 365 944 396 911 q 275 976 333 976 q 160 850 160 976 l 222 850 q 241 896 225 881 q 276 911 257 911 q 349 878 311 911 q 432 844 383 844 q 549 971 549 844 l 485 971 z "},"ń":{"ha":717,"x_min":90,"x_max":632,"o":"m 176 481 q 292 578 222 539 q 415 618 363 618 q 546 451 546 618 l 546 1 l 632 1 l 632 468 q 581 631 632 569 q 425 692 529 692 q 290 656 363 692 q 175 571 218 621 l 161 674 l 90 674 l 90 0 l 176 0 l 176 481 m 383 1031 l 308 836 l 364 818 l 482 1031 l 383 1031 z "},"ň":{"ha":717,"x_min":90,"x_max":632,"o":"m 176 481 q 292 578 222 539 q 415 618 363 618 q 546 451 546 618 l 546 1 l 632 1 l 632 468 q 581 631 632 569 q 425 692 529 692 q 290 656 363 692 q 175 571 218 621 l 161 674 l 90 674 l 90 0 l 176 0 l 176 481 m 193 1017 l 335 818 l 418 818 l 557 1017 l 481 1031 l 376 879 l 274 1031 l 193 1017 z "},"ò":{"ha":732,"x_min":49,"x_max":683,"o":"m 683 333 q 643 152 683 232 q 528 27 603 72 q 353 -18 453 -18 q 190 28 258 -18 q 85 155 121 74 q 49 340 49 236 q 89 520 50 440 q 201 646 128 600 q 371 692 274 692 q 601 597 519 692 q 683 333 683 501 m 363 54 q 533 132 471 54 q 596 332 594 210 q 538 540 596 461 q 369 619 479 619 q 199 542 261 619 q 136 342 138 464 q 194 133 136 213 q 363 54 253 54 m 353 1031 l 254 1031 l 372 818 l 428 836 l 353 1031 z "},"ó":{"ha":732,"x_min":49,"x_max":683,"o":"m 683 333 q 643 152 683 232 q 528 27 603 72 q 353 -18 453 -18 q 190 28 258 -18 q 85 155 121 74 q 49 340 49 236 q 89 520 50 440 q 201 646 128 600 q 371 692 274 692 q 601 597 519 692 q 683 333 683 501 m 363 54 q 533 132 471 54 q 596 332 594 210 q 538 540 596 461 q 369 619 479 619 q 199 542 261 619 q 136 342 138 464 q 194 133 136 213 q 363 54 253 54 m 378 1031 l 303 836 l 358 818 l 476 1031 l 378 1031 z "},"ô":{"ha":732,"x_min":49,"x_max":683,"o":"m 683 333 q 643 152 683 232 q 528 27 603 72 q 353 -18 453 -18 q 190 28 258 -18 q 85 155 121 74 q 49 340 49 236 q 89 520 50 440 q 201 646 128 600 q 371 692 274 692 q 601 597 519 692 q 683 333 683 501 m 363 54 q 533 132 471 54 q 596 332 594 210 q 538 540 596 461 q 369 619 479 619 q 199 542 261 619 q 136 342 138 464 q 194 133 136 213 q 363 54 253 54 m 547 832 l 406 1031 l 322 1031 l 183 832 l 260 818 l 364 969 l 467 818 l 547 832 z "},"õ":{"ha":732,"x_min":49,"x_max":683,"o":"m 683 333 q 643 152 683 232 q 528 27 603 72 q 353 -18 453 -18 q 190 28 258 -18 q 85 155 121 74 q 49 340 49 236 q 89 520 50 440 q 201 646 128 600 q 371 692 274 692 q 601 597 519 692 q 683 333 683 501 m 363 54 q 533 132 471 54 q 596 332 594 210 q 538 540 596 461 q 369 619 479 619 q 199 542 261 619 q 136 342 138 464 q 194 133 136 213 q 363 54 253 54 m 479 971 q 461 926 476 940 q 426 911 446 911 q 360 944 390 911 q 269 976 328 976 q 154 850 154 976 l 217 850 q 235 896 219 881 q 271 911 251 911 q 343 878 306 911 q 426 844 378 844 q 543 971 543 844 l 479 971 z "},"ö":{"ha":732,"x_min":49,"x_max":683,"o":"m 683 333 q 643 152 683 232 q 528 27 603 72 q 353 -18 453 -18 q 190 28 258 -18 q 85 155 121 74 q 49 340 49 236 q 89 520 50 440 q 201 646 128 600 q 371 692 274 692 q 601 597 519 692 q 683 333 683 501 m 363 54 q 533 132 471 54 q 596 332 594 210 q 538 540 596 461 q 369 619 479 619 q 199 542 261 619 q 136 342 138 464 q 194 133 136 213 q 363 54 253 54 m 254 858 q 298 876 281 858 q 315 919 315 893 q 298 960 315 943 q 254 978 281 978 q 213 960 231 978 q 194 919 194 943 q 213 876 194 894 q 254 858 231 858 m 472 858 q 515 876 499 858 q 532 919 532 893 q 515 961 532 944 q 472 978 499 978 q 430 960 447 978 q 413 919 413 943 q 430 876 413 893 q 472 858 447 858 z "},"ō":{"ha":732,"x_min":49,"x_max":683,"o":"m 683 333 q 643 152 683 232 q 528 27 603 72 q 353 -18 453 -18 q 190 28 258 -18 q 85 155 121 74 q 49 340 49 236 q 89 520 50 440 q 201 646 128 600 q 371 692 274 692 q 601 597 519 692 q 683 333 683 501 m 363 54 q 533 132 471 54 q 596 332 594 210 q 538 540 596 461 q 369 619 479 619 q 199 542 261 619 q 136 342 138 464 q 194 133 136 213 q 363 54 253 54 m 515 957 l 189 957 l 189 889 l 524 889 l 515 957 z "},"ő":{"ha":732,"x_min":49,"x_max":683,"o":"m 683 333 q 643 152 683 232 q 528 27 603 72 q 353 -18 453 -18 q 190 28 258 -18 q 85 155 121 74 q 49 340 49 236 q 89 520 50 440 q 201 646 128 600 q 371 692 274 692 q 601 597 519 692 q 683 333 683 501 m 363 54 q 533 132 471 54 q 596 332 594 210 q 538 540 596 461 q 369 619 479 619 q 199 542 261 619 q 136 342 138 464 q 194 133 136 213 q 363 54 253 54 m 296 1031 l 221 836 l 276 818 l 394 1031 l 296 1031 m 490 1031 l 415 836 l 471 818 l 589 1031 l 490 1031 z "},"ŕ":{"ha":431,"x_min":90,"x_max":417,"o":"m 176 481 q 288 567 219 528 q 417 606 357 606 l 393 674 q 283 640 346 674 q 172 567 219 606 l 147 674 l 90 674 l 90 0 l 176 0 l 176 481 m 225 1031 l 150 836 l 206 818 l 324 1031 l 225 1031 z "},"ř":{"ha":431,"x_min":35,"x_max":417,"o":"m 176 481 q 288 567 219 528 q 417 606 357 606 l 393 674 q 283 640 346 674 q 172 567 219 606 l 147 674 l 90 674 l 90 0 l 176 0 l 176 481 m 35 1017 l 176 818 l 260 818 l 399 1017 l 322 1031 l 218 879 l 115 1031 l 35 1017 z "},"ś":{"ha":582,"x_min":51,"x_max":533,"o":"m 57 35 q 156 -3 93 11 q 267 -18 219 -18 q 464 33 394 -18 q 533 172 533 83 q 308 381 533 301 q 180 438 225 408 q 133 511 135 468 q 179 591 133 560 q 296 622 225 622 q 389 610 350 622 q 474 575 428 597 l 501 636 q 407 676 469 660 q 299 692 344 692 q 118 642 185 692 q 51 506 51 593 q 112 388 51 433 q 269 310 172 342 q 453 165 453 246 q 404 81 453 110 q 269 51 356 51 q 85 99 182 51 l 57 35 m 308 1031 l 233 836 l 289 818 l 407 1031 l 308 1031 z "},"š":{"ha":582,"x_min":51,"x_max":533,"o":"m 57 35 q 156 -3 93 11 q 267 -18 219 -18 q 464 33 394 -18 q 533 172 533 83 q 308 381 533 301 q 180 438 225 408 q 133 511 135 468 q 179 591 133 560 q 296 622 225 622 q 389 610 350 622 q 474 575 428 597 l 501 636 q 407 676 469 660 q 299 692 344 692 q 118 642 185 692 q 51 506 51 593 q 112 388 51 433 q 269 310 172 342 q 453 165 453 246 q 404 81 453 110 q 269 51 356 51 q 85 99 182 51 l 57 35 m 118 1017 l 260 818 l 343 818 l 482 1017 l 406 1031 l 301 879 l 199 1031 l 118 1017 z "},"ť":{"ha":564,"x_min":24,"x_max":522,"o":"m 457 975 q 408 955 428 975 q 389 908 389 935 q 406 864 389 883 q 447 842 422 844 q 425 781 444 807 q 369 732 406 756 l 394 692 q 485 778 447 718 q 522 899 522 838 q 503 953 522 932 q 457 975 483 975 m 211 865 l 124 835 l 124 660 l 24 660 l 25 594 l 124 594 l 124 161 q 168 28 124 75 q 288 -18 213 -18 q 351 -10 328 -18 q 379 -1 375 -3 l 363 69 q 306 57 333 57 q 234 88 257 57 q 211 171 211 118 l 211 594 l 363 594 l 333 660 l 211 660 l 211 865 z "},"ù":{"ha":717,"x_min":85,"x_max":626,"o":"m 540 194 q 424 97 494 136 q 301 57 354 57 q 171 224 171 57 l 171 674 l 85 674 l 85 207 q 136 44 85 106 q 292 -17 188 -17 q 426 19 354 -17 q 542 104 499 54 l 556 0 l 626 0 l 626 675 l 540 675 l 540 194 m 333 1031 l 235 1031 l 353 818 l 408 836 l 333 1031 z "},"ú":{"ha":717,"x_min":85,"x_max":626,"o":"m 540 194 q 424 97 494 136 q 301 57 354 57 q 171 224 171 57 l 171 674 l 85 674 l 85 207 q 136 44 85 106 q 292 -17 188 -17 q 426 19 354 -17 q 542 104 499 54 l 556 0 l 626 0 l 626 675 l 540 675 l 540 194 m 358 1031 l 283 836 l 339 818 l 457 1031 l 358 1031 z "},"û":{"ha":717,"x_min":85,"x_max":626,"o":"m 540 194 q 424 97 494 136 q 301 57 354 57 q 171 224 171 57 l 171 674 l 85 674 l 85 207 q 136 44 85 106 q 292 -17 188 -17 q 426 19 354 -17 q 542 104 499 54 l 556 0 l 626 0 l 626 675 l 540 675 l 540 194 m 528 832 l 386 1031 l 303 1031 l 164 832 l 240 818 l 344 969 l 447 818 l 528 832 z "},"ü":{"ha":717,"x_min":85,"x_max":626,"o":"m 540 194 q 424 97 494 136 q 301 57 354 57 q 171 224 171 57 l 171 674 l 85 674 l 85 207 q 136 44 85 106 q 292 -17 188 -17 q 426 19 354 -17 q 542 104 499 54 l 556 0 l 626 0 l 626 675 l 540 675 l 540 194 m 235 858 q 278 876 261 858 q 296 919 296 893 q 278 960 296 943 q 235 978 261 978 q 193 960 211 978 q 175 919 175 943 q 193 876 175 894 q 235 858 211 858 m 453 858 q 496 876 479 858 q 513 919 513 893 q 496 961 513 944 q 453 978 479 978 q 410 960 428 978 q 393 919 393 943 q 410 876 393 893 q 453 858 428 858 z "},"ū":{"ha":717,"x_min":85,"x_max":626,"o":"m 540 194 q 424 97 494 136 q 301 57 354 57 q 171 224 171 57 l 171 674 l 85 674 l 85 207 q 136 44 85 106 q 292 -17 188 -17 q 426 19 354 -17 q 542 104 499 54 l 556 0 l 626 0 l 626 675 l 540 675 l 540 194 m 496 957 l 169 957 l 169 889 l 504 889 l 496 957 z "},"ů":{"ha":717,"x_min":85,"x_max":626,"o":"m 540 194 q 424 97 494 136 q 301 57 354 57 q 171 224 171 57 l 171 674 l 85 674 l 85 207 q 136 44 85 106 q 292 -17 188 -17 q 426 19 354 -17 q 542 104 499 54 l 556 0 l 626 0 l 626 675 l 540 675 l 540 194 m 350 1054 q 263 1021 300 1054 q 226 938 226 988 q 263 857 226 889 q 350 825 299 825 q 437 857 401 825 q 472 938 472 889 q 436 1021 472 988 q 350 1054 400 1054 m 350 879 q 307 896 325 879 q 289 938 289 913 q 307 981 289 964 q 350 999 325 999 q 393 981 375 999 q 411 938 411 964 q 393 896 411 913 q 350 879 375 879 z "},"ű":{"ha":717,"x_min":85,"x_max":626,"o":"m 540 194 q 424 97 494 136 q 301 57 354 57 q 171 224 171 57 l 171 674 l 85 674 l 85 207 q 136 44 85 106 q 292 -17 188 -17 q 426 19 354 -17 q 542 104 499 54 l 556 0 l 626 0 l 626 675 l 540 675 l 540 194 m 276 1031 l 201 836 l 257 818 l 375 1031 l 276 1031 m 471 1031 l 396 836 l 451 818 l 569 1031 l 471 1031 z "},"ų":{"ha":717,"x_min":85,"x_max":722,"o":"m 722 -246 q 674 -276 704 -264 q 611 -287 644 -287 q 508 -250 549 -287 q 467 -154 467 -212 q 492 -74 467 -118 q 556 1 517 -31 l 542 104 q 426 19 499 54 q 292 -17 354 -17 q 136 44 188 -17 q 85 207 85 106 l 85 674 l 171 674 l 171 224 q 301 57 171 57 q 424 97 354 57 q 540 194 494 136 l 540 675 l 626 675 l 626 0 l 628 0 q 567 -67 592 -25 q 543 -149 543 -110 q 564 -205 543 -187 q 615 -222 585 -222 q 692 -193 656 -222 l 722 -246 z "},"ý":{"ha":608,"x_min":14,"x_max":594,"o":"m 222 -136 q 179 -199 206 -179 q 90 -249 153 -219 l 114 -304 q 229 -251 181 -290 q 299 -156 278 -212 l 594 674 l 511 674 l 303 115 l 82 690 l 14 654 l 267 -10 l 222 -136 m 311 1031 l 236 836 l 292 818 l 410 1031 l 311 1031 z "},"ÿ":{"ha":608,"x_min":14,"x_max":594,"o":"m 222 -136 q 179 -199 206 -179 q 90 -249 153 -219 l 114 -304 q 229 -251 181 -290 q 299 -156 278 -212 l 594 674 l 511 674 l 303 115 l 82 690 l 14 654 l 267 -10 l 222 -136 m 188 858 q 231 876 214 858 q 249 919 249 893 q 231 960 249 943 q 188 978 214 978 q 146 960 164 978 q 128 919 128 943 q 146 876 128 894 q 188 858 164 858 m 406 858 q 449 876 432 858 q 465 919 465 893 q 449 961 465 944 q 406 978 432 978 q 363 960 381 978 q 346 919 346 943 q 363 876 346 893 q 406 858 381 858 z "},"ź":{"ha":600,"x_min":32,"x_max":568,"o":"m 94 606 l 458 606 l 32 43 l 43 0 l 560 0 l 546 67 l 136 67 l 568 629 l 564 674 l 72 674 l 94 606 m 325 1031 l 250 836 l 306 818 l 424 1031 l 325 1031 z "},"ż":{"ha":600,"x_min":32,"x_max":568,"o":"m 94 606 l 458 606 l 32 43 l 43 0 l 560 0 l 546 67 l 136 67 l 568 629 l 564 674 l 72 674 l 94 606 m 315 858 q 361 878 342 858 q 381 925 381 897 q 361 972 381 951 q 315 992 342 992 q 268 972 288 992 q 249 925 249 951 q 268 878 249 897 q 315 858 288 858 z "},"ž":{"ha":600,"x_min":32,"x_max":568,"o":"m 94 606 l 458 606 l 32 43 l 43 0 l 560 0 l 546 67 l 136 67 l 568 629 l 564 674 l 72 674 l 94 606 m 135 1017 l 276 818 l 360 818 l 499 1017 l 422 1031 l 318 879 l 215 1031 l 135 1017 z "},"ş":{"ha":582,"x_min":51,"x_max":533,"o":"m 533 172 q 473 39 533 89 q 301 -17 413 -11 l 279 -75 q 358 -113 325 -81 q 390 -183 390 -146 q 346 -275 390 -243 q 235 -307 301 -307 q 180 -299 210 -307 q 132 -281 150 -292 l 153 -222 q 235 -242 200 -242 q 291 -226 267 -242 q 315 -186 315 -211 q 279 -138 315 -158 q 190 -112 243 -118 l 228 -15 q 133 2 181 -11 q 57 35 86 15 l 85 99 q 269 51 182 51 q 404 81 356 51 q 453 165 453 110 q 269 310 453 246 q 112 388 172 342 q 51 506 51 433 q 118 642 51 593 q 299 692 185 692 q 407 676 344 692 q 501 636 469 660 l 474 575 q 389 610 428 597 q 296 622 350 622 q 179 591 225 622 q 133 511 133 560 q 180 438 135 468 q 308 381 225 408 q 533 172 533 301 z "},"ţ":{"ha":414,"x_min":24,"x_max":379,"o":"m 250 -75 q 328 -113 296 -81 q 361 -183 361 -146 q 317 -275 361 -243 q 206 -307 272 -307 q 151 -299 181 -307 q 103 -281 121 -292 l 124 -222 q 206 -242 171 -242 q 262 -226 238 -242 q 286 -186 286 -211 q 250 -138 286 -158 q 161 -112 214 -118 l 206 0 q 145 61 167 21 q 124 161 124 101 l 124 594 l 25 594 l 24 660 l 124 660 l 124 835 l 211 865 l 211 660 l 333 660 l 363 594 l 211 594 l 211 171 q 234 88 211 118 q 306 57 257 57 q 363 69 333 57 l 379 -1 q 351 -10 375 -3 q 288 -18 328 -18 l 272 -18 l 250 -75 z "},"ș":{"ha":582,"x_min":51,"x_max":533,"o":"m 57 35 q 156 -3 93 11 q 267 -18 219 -18 q 464 33 394 -18 q 533 172 533 83 q 308 381 533 301 q 180 438 225 408 q 133 511 135 468 q 179 591 133 560 q 296 622 225 622 q 389 610 350 622 q 474 575 428 597 l 501 636 q 407 676 469 660 q 299 692 344 692 q 118 642 185 692 q 51 506 51 593 q 112 388 51 433 q 269 310 172 342 q 453 165 453 246 q 404 81 453 110 q 269 51 356 51 q 85 99 182 51 l 57 35 m 275 -29 q 228 -49 249 -29 q 208 -96 208 -68 q 225 -139 208 -119 q 268 -161 242 -158 q 247 -220 267 -194 q 189 -271 226 -246 l 214 -312 q 305 -226 268 -286 q 342 -104 342 -167 q 323 -50 342 -71 q 275 -29 304 -29 z "},"­":{"ha":167,"x_min":0,"x_max":0,"o":""},"µ":{"ha":731,"x_min":99,"x_max":640,"o":"m 640 1 l 569 1 l 556 104 q 440 19 513 54 q 306 -17 368 -17 q 185 14 233 -17 l 185 -289 l 99 -304 l 99 674 l 185 674 l 185 224 q 315 57 185 57 q 438 97 368 57 q 554 194 508 136 l 554 675 l 640 675 l 640 1 z "},"ˉ":{"ha":363,"x_min":14,"x_max":349,"o":"m 342 957 l 14 957 l 14 889 l 349 889 l 342 957 z "},"ℓ":{"ha":486,"x_min":14,"x_max":444,"o":"m 33 257 q 108 310 71 276 l 108 208 q 148 41 108 99 q 290 -17 188 -17 q 421 28 375 -17 l 392 81 q 299 57 333 57 q 215 98 235 57 q 196 221 196 139 l 196 381 q 374 594 304 482 q 444 797 444 707 q 399 927 444 879 q 282 975 354 975 q 156 925 204 975 q 108 786 108 875 l 108 400 q 64 360 94 386 q 14 321 33 333 l 33 257 m 357 794 q 313 645 357 725 q 196 486 268 565 l 196 786 q 220 875 196 849 q 282 903 244 901 q 357 794 357 903 z "},"Ω":{"ha":997,"x_min":63,"x_max":935,"o":"m 842 469 q 818 313 842 394 q 753 165 794 231 q 660 69 711 99 l 653 0 l 926 0 l 935 69 l 768 69 q 890 238 844 126 q 935 468 935 349 q 882 719 935 607 q 731 898 829 832 q 499 967 632 964 q 267 898 365 964 q 115 719 168 832 q 63 468 63 607 q 108 238 63 350 q 228 69 153 126 l 63 69 l 71 0 l 343 0 l 336 69 q 243 165 285 99 q 178 313 201 231 q 154 469 154 394 q 199 685 154 589 q 322 835 243 781 q 499 889 400 889 q 675 835 597 889 q 797 685 753 781 q 842 469 842 589 z "},"∆":{"ha":822,"x_min":14,"x_max":808,"o":"m 808 0 l 808 14 l 447 944 l 357 944 l 14 0 l 808 0 m 403 833 l 697 69 l 121 69 l 403 833 z "},"∕":{"ha":535,"x_min":14,"x_max":521,"o":"m 92 -6 l 521 981 l 442 986 l 14 0 l 92 -6 z "},"∙":{"ha":311,"x_min":42,"x_max":269,"o":"m 156 340 q 236 374 203 340 q 269 453 269 407 q 236 534 269 500 q 156 568 203 568 q 75 534 108 568 q 42 453 42 500 q 75 374 42 407 q 156 340 108 340 z "},"₺":{"ha":668,"x_min":0,"x_max":640,"o":"m 206 0 q 413 63 313 0 q 577 233 514 126 q 640 460 640 339 l 553 460 q 501 271 553 361 q 367 126 449 181 q 206 71 286 71 l 206 540 l 481 636 l 468 699 l 206 606 l 206 682 l 481 779 l 468 840 l 206 747 l 206 981 l 119 967 l 119 717 l 0 675 l 11 613 l 119 650 l 119 576 l 0 533 l 11 471 l 119 510 l 119 0 l 206 0 z "},"₽":{"ha":765,"x_min":51,"x_max":717,"o":"m 218 282 l 624 282 l 631 218 l 218 218 l 218 0 l 132 0 l 132 218 l 58 218 l 51 282 l 132 282 l 132 372 l 58 372 l 51 436 l 132 436 l 132 944 l 376 944 q 625 876 533 944 q 717 660 717 807 q 617 440 715 514 q 361 367 518 367 l 218 367 l 218 282 m 364 440 q 556 493 483 440 q 629 658 628 546 q 565 822 629 774 q 379 871 501 871 l 218 871 l 218 440 l 364 440 z "},"¢":{"ha":626,"x_min":49,"x_max":583,"o":"m 576 39 q 501 6 546 19 q 413 -14 456 -8 l 413 -154 l 342 -154 l 342 -18 q 127 88 206 -10 q 49 340 49 186 q 85 512 49 435 q 187 636 121 589 q 342 690 253 683 l 342 826 l 413 840 l 413 689 q 505 668 457 683 q 583 633 553 653 l 556 572 q 469 608 506 597 q 369 619 432 619 q 199 542 261 619 q 136 342 138 464 q 194 133 136 213 q 363 54 253 54 q 462 65 428 54 q 549 101 496 75 l 576 39 z "},"£":{"ha":599,"x_min":76,"x_max":585,"o":"m 576 69 l 218 69 q 265 214 265 124 l 265 458 l 485 458 l 454 522 l 265 522 l 265 757 q 361 874 265 874 q 391 869 374 874 q 417 858 408 864 l 433 932 q 391 944 417 938 q 342 950 365 950 q 223 897 268 950 q 178 757 178 844 l 178 522 l 76 522 l 79 458 l 178 458 l 178 185 q 83 69 178 71 l 90 0 l 585 0 l 576 69 z "},"¤":{"ha":922,"x_min":42,"x_max":881,"o":"m 736 125 q 800 332 799 215 q 738 549 800 460 l 881 696 l 833 754 l 689 607 q 588 669 644 647 q 467 692 532 692 q 239 604 339 690 l 89 754 l 42 696 l 188 547 q 124 340 124 454 q 185 121 124 215 l 42 -25 l 89 -82 l 235 65 q 332 5 276 26 q 450 -18 388 -17 q 580 4 519 -18 q 685 68 640 26 l 833 -82 l 881 -25 l 736 125 m 713 332 q 678 190 713 253 q 586 91 644 126 q 454 56 528 56 q 277 135 343 56 q 211 342 211 215 q 244 483 211 419 q 336 582 278 546 q 468 618 394 618 q 599 581 543 618 q 683 478 654 543 q 713 332 713 413 z "},"¥":{"ha":758,"x_min":14,"x_max":744,"o":"m 413 176 l 671 176 l 683 108 l 413 108 l 413 0 l 325 0 l 325 108 l 86 108 l 75 176 l 325 176 l 326 360 l 86 360 l 75 429 l 300 429 l 14 922 l 90 965 l 369 467 l 651 944 l 744 944 l 436 429 l 671 429 l 683 360 l 414 360 l 413 176 z "},"€":{"ha":824,"x_min":0,"x_max":789,"o":"m 547 57 q 663 68 615 57 q 756 99 711 79 l 789 32 q 680 -4 750 11 q 550 -19 610 -19 q 280 72 386 -19 q 136 310 174 163 l 13 310 l 0 379 l 122 379 q 117 467 117 418 q 124 563 117 511 l 13 563 l 0 631 l 138 631 q 290 872 179 781 q 558 964 401 964 q 682 950 610 964 q 789 913 754 936 l 761 849 q 669 879 710 869 q 560 889 628 889 q 360 818 447 888 q 233 631 272 749 l 597 631 l 608 563 l 217 563 q 208 468 208 517 q 215 379 208 428 l 597 379 l 608 310 l 231 310 q 347 126 265 194 q 547 57 429 57 z "},"$":{"ha":706,"x_min":63,"x_max":657,"o":"m 250 -11 q 78 40 139 6 l 99 107 q 204 69 143 85 q 329 53 265 53 q 510 100 446 53 q 575 222 575 147 q 547 313 575 275 q 465 383 518 351 q 318 454 411 415 q 63 736 63 563 q 113 871 63 813 q 250 953 163 929 l 250 1093 l 314 1107 l 314 965 l 357 967 q 407 964 374 967 l 407 1097 l 472 1111 l 472 954 q 590 913 535 939 l 560 847 q 467 882 510 869 q 360 894 424 894 q 201 851 260 894 q 143 736 143 808 q 172 646 143 683 q 251 578 200 608 q 403 500 303 547 q 549 420 496 457 q 629 336 601 383 q 657 222 657 289 q 608 86 657 144 q 472 1 560 28 l 472 -154 l 407 -154 l 407 -12 q 331 -18 375 -18 l 314 -18 l 314 -154 l 250 -154 l 250 -11 z "},",":{"ha":222,"x_min":28,"x_max":181,"o":"m 114 131 q 67 112 88 131 q 47 67 47 93 q 65 22 47 42 q 107 1 82 3 q 85 -59 106 -33 q 28 -110 65 -85 l 53 -150 q 144 -65 107 -124 q 181 57 181 -6 q 162 110 181 90 q 114 131 143 131 z "},".":{"ha":215,"x_min":42,"x_max":174,"o":"m 108 0 q 154 19 135 0 q 174 67 174 39 q 154 112 174 93 q 108 131 135 131 q 61 112 81 131 q 42 67 42 93 q 61 19 42 39 q 108 0 81 0 z "},"!":{"ha":217,"x_min":42,"x_max":175,"o":"m 161 975 l 58 975 l 81 301 l 139 272 l 161 975 m 110 131 q 63 111 83 131 q 42 67 42 92 q 63 19 42 39 q 110 0 83 0 q 156 19 138 0 q 175 67 175 39 q 156 112 175 93 q 110 131 138 131 z "},"¡":{"ha":217,"x_min":42,"x_max":175,"o":"m 110 840 q 156 860 136 840 q 175 908 175 881 q 156 955 175 935 q 110 975 136 975 q 62 955 82 975 q 42 908 42 935 q 62 860 42 881 q 110 840 82 840 m 58 0 l 161 0 l 139 674 l 81 701 l 58 0 z "},":":{"ha":215,"x_min":42,"x_max":174,"o":"m 107 493 q 154 513 135 493 q 174 558 174 532 q 154 606 174 585 q 107 626 135 626 q 61 606 81 626 q 42 558 42 585 q 61 513 42 532 q 107 493 81 493 m 107 50 q 154 69 135 50 q 174 117 174 89 q 154 164 174 144 q 107 183 135 183 q 61 164 81 183 q 42 117 42 144 q 61 69 42 89 q 107 50 81 50 z "},";":{"ha":224,"x_min":28,"x_max":182,"o":"m 115 493 q 163 513 143 493 q 182 558 182 532 q 163 606 182 585 q 115 626 143 626 q 68 606 88 626 q 49 558 49 585 q 68 513 49 532 q 115 493 88 493 m 114 183 q 67 164 88 183 q 47 117 47 144 q 64 72 47 90 q 107 51 81 54 q 85 -8 106 18 q 28 -60 65 -35 l 53 -100 q 143 -15 106 -75 q 181 106 181 44 q 162 163 181 142 q 114 183 143 183 z "},"?":{"ha":561,"x_min":14,"x_max":519,"o":"m 258 975 q 135 955 185 975 q 14 890 85 935 l 25 815 q 137 880 88 860 q 256 900 186 900 q 387 864 344 900 q 429 746 429 828 q 361 603 429 668 q 182 504 293 539 l 193 218 l 257 193 l 268 461 q 451 590 383 513 q 519 747 519 668 q 455 914 519 853 q 258 975 390 975 m 224 131 q 177 112 196 131 q 158 67 158 93 q 177 19 158 39 q 224 0 196 0 q 271 19 251 0 q 290 67 290 39 q 271 112 290 93 q 224 131 251 131 z "},"¿":{"ha":561,"x_min":42,"x_max":547,"o":"m 338 729 q 385 749 365 729 q 404 797 404 769 q 385 844 404 824 q 338 864 365 864 q 291 844 311 864 q 271 797 271 824 q 291 749 271 769 q 338 729 311 729 m 303 -111 q 431 -91 378 -111 q 547 -29 483 -71 l 536 49 q 424 -16 474 4 q 306 -36 375 -36 q 175 -1 217 -36 q 133 117 133 35 q 201 259 133 194 q 379 358 268 324 l 368 644 l 304 671 l 294 403 q 110 274 179 353 q 42 114 42 194 q 106 -51 42 10 q 303 -111 169 -111 z "},"*":{"ha":471,"x_min":14,"x_max":457,"o":"m 200 915 l 31 951 l 14 897 l 185 864 l 64 692 l 114 656 l 236 819 l 357 656 l 406 692 l 286 864 l 457 897 l 439 951 l 269 915 l 268 1075 l 201 1075 l 200 915 z "},"\"":{"ha":425,"x_min":28,"x_max":383,"o":"m 115 975 q 67 955 86 975 q 47 908 47 935 q 64 864 47 883 q 106 842 81 844 q 83 781 103 807 q 28 732 64 756 l 53 692 q 143 778 106 718 q 181 899 181 838 q 161 953 181 932 q 115 975 142 975 m 318 975 q 271 955 290 975 q 251 908 251 935 q 268 864 251 883 q 311 842 285 844 q 288 781 308 807 q 232 732 268 756 l 257 692 q 346 778 308 718 q 383 899 383 838 q 364 953 383 932 q 318 975 344 975 z "},"'":{"ha":222,"x_min":28,"x_max":181,"o":"m 115 975 q 67 955 86 975 q 47 908 47 935 q 64 864 47 883 q 106 842 81 844 q 83 781 103 807 q 28 732 64 756 l 53 692 q 143 778 106 718 q 181 899 181 838 q 161 953 181 932 q 115 975 142 975 z "},"‘":{"ha":222,"x_min":42,"x_max":194,"o":"m 107 692 q 154 711 135 692 q 174 757 174 731 q 157 802 174 783 q 113 824 140 821 q 136 883 115 858 q 194 932 157 908 l 168 975 q 79 888 117 949 q 42 767 42 828 q 60 712 42 732 q 107 692 78 692 z "},"’":{"ha":222,"x_min":28,"x_max":181,"o":"m 115 975 q 67 955 86 975 q 47 908 47 935 q 64 864 47 883 q 106 842 81 844 q 83 781 103 807 q 28 732 64 756 l 53 692 q 143 778 106 718 q 181 899 181 838 q 161 953 181 932 q 115 975 142 975 z "},"‚":{"ha":222,"x_min":28,"x_max":181,"o":"m 115 131 q 67 112 86 131 q 47 67 47 93 q 64 22 47 40 q 106 1 81 3 q 83 -60 103 -33 q 28 -110 64 -86 l 53 -150 q 143 -65 106 -124 q 181 57 181 -6 q 162 110 181 90 q 115 131 143 131 z "},"“":{"ha":425,"x_min":42,"x_max":397,"o":"m 107 692 q 154 711 135 692 q 174 757 174 731 q 157 802 174 783 q 113 824 140 821 q 136 883 115 858 q 194 932 157 908 l 168 975 q 79 888 117 949 q 42 767 42 828 q 60 712 42 732 q 107 692 78 692 m 310 692 q 358 711 338 692 q 378 757 378 731 q 361 801 378 782 q 319 824 344 821 q 341 883 321 858 q 397 932 361 908 l 374 975 q 283 889 319 949 q 246 767 246 829 q 265 713 246 733 q 310 692 283 692 z "},"”":{"ha":425,"x_min":28,"x_max":383,"o":"m 115 975 q 67 955 86 975 q 47 908 47 935 q 64 864 47 883 q 106 842 81 844 q 83 781 103 807 q 28 732 64 756 l 53 692 q 143 778 106 718 q 181 899 181 838 q 161 953 181 932 q 115 975 142 975 m 318 975 q 271 955 290 975 q 251 908 251 935 q 268 864 251 883 q 311 842 285 844 q 288 781 308 807 q 232 732 268 756 l 257 692 q 346 778 308 718 q 383 899 383 838 q 364 953 383 932 q 318 975 344 975 z "},"„":{"ha":425,"x_min":28,"x_max":383,"o":"m 115 132 q 67 113 86 132 q 47 67 47 94 q 64 22 47 40 q 106 1 81 3 q 83 -59 103 -33 q 28 -108 64 -85 l 53 -150 q 143 -64 106 -124 q 181 57 181 -4 q 161 111 181 90 q 115 132 142 132 m 318 131 q 271 112 290 131 q 251 67 251 93 q 269 22 251 42 q 311 1 286 3 q 288 -60 308 -33 q 232 -110 268 -86 l 257 -150 q 347 -65 310 -124 q 383 57 383 -6 q 365 110 383 90 q 318 131 346 131 z "},"·":{"ha":215,"x_min":42,"x_max":174,"o":"m 108 297 q 154 317 135 297 q 174 364 174 338 q 154 410 174 392 q 108 429 135 429 q 61 410 81 429 q 42 364 42 392 q 61 317 42 338 q 108 297 81 297 z "},"(":{"ha":349,"x_min":69,"x_max":307,"o":"m 307 -26 q 233 100 268 14 q 178 282 199 186 q 157 446 157 378 q 178 607 157 513 q 233 786 199 701 q 307 913 268 871 l 235 938 q 111 699 153 833 q 69 444 69 564 q 111 189 69 324 q 235 -51 153 54 l 307 -26 z "},")":{"ha":349,"x_min":42,"x_max":279,"o":"m 42 913 q 114 785 79 871 q 170 605 149 700 q 192 443 192 510 q 170 281 192 376 q 114 99 149 185 q 42 -26 79 14 l 114 -51 q 237 190 194 56 q 279 444 279 325 q 237 697 279 561 q 114 938 194 832 l 42 913 z "},"[":{"ha":379,"x_min":139,"x_max":365,"o":"m 354 -61 l 218 -61 l 218 904 l 354 904 l 365 967 l 139 967 l 139 -122 l 365 -122 l 354 -61 z "},"]":{"ha":378,"x_min":14,"x_max":239,"o":"m 25 904 l 160 904 l 160 -61 l 25 -61 l 14 -122 l 239 -122 l 239 967 l 14 967 l 25 904 z "},"{":{"ha":368,"x_min":42,"x_max":354,"o":"m 185 432 q 252 483 231 447 q 274 582 274 519 q 247 679 274 621 q 221 778 221 738 q 247 831 221 810 q 321 853 272 853 l 347 853 l 354 915 l 318 915 q 190 876 233 915 q 146 769 146 838 q 171 669 146 726 q 196 569 196 614 q 163 488 196 519 q 88 456 131 456 l 42 456 l 42 400 l 88 400 q 164 369 132 400 q 196 288 196 339 q 171 189 196 246 q 146 89 146 133 q 189 -19 146 19 q 318 -58 232 -58 l 354 -58 l 347 4 l 321 4 q 247 26 272 4 q 221 81 221 49 q 247 178 221 119 q 274 276 274 236 q 251 374 274 333 q 185 432 228 414 z "},"}":{"ha":367,"x_min":14,"x_max":325,"o":"m 185 425 q 93 276 93 394 q 119 178 93 236 q 146 81 146 119 q 120 26 146 49 q 47 4 94 4 l 21 4 l 14 -58 l 49 -58 q 178 -19 135 -58 q 222 89 222 19 q 197 189 222 133 q 171 288 171 243 q 203 371 171 339 q 279 403 236 403 l 325 403 l 325 457 l 279 457 q 203 489 236 457 q 171 569 171 521 q 197 669 171 615 q 222 769 222 726 q 178 876 222 838 q 49 915 135 915 l 14 915 l 21 853 l 47 853 q 120 831 94 853 q 146 778 146 810 q 119 679 146 738 q 93 582 93 621 q 117 483 93 524 q 185 425 140 443 z "},"/":{"ha":535,"x_min":14,"x_max":521,"o":"m 92 -6 l 521 981 l 442 986 l 14 0 l 92 -6 z "},"\\":{"ha":535,"x_min":14,"x_max":521,"o":"m 14 981 l 442 -6 l 521 0 l 93 986 l 14 981 z "},"|":{"ha":350,"x_min":132,"x_max":218,"o":"m 218 -6 l 218 981 l 132 986 l 132 0 l 218 -6 z "},"¦":{"ha":350,"x_min":132,"x_max":218,"o":"m 218 564 l 218 981 l 132 986 l 132 569 l 218 564 m 218 -6 l 218 400 l 132 406 l 132 0 l 218 -6 z "},"«":{"ha":504,"x_min":42,"x_max":476,"o":"m 265 174 l 110 340 l 265 507 l 236 564 l 42 371 l 42 310 l 236 117 l 265 174 m 476 174 l 319 340 l 476 507 l 447 564 l 253 371 l 253 310 l 447 117 l 476 174 z "},"»":{"ha":506,"x_min":28,"x_max":464,"o":"m 28 507 l 185 340 l 28 174 l 60 117 l 254 310 l 254 371 l 60 564 l 28 507 m 239 507 l 397 340 l 239 174 l 271 117 l 464 310 l 464 371 l 271 564 l 239 507 z "},"π":{"ha":790,"x_min":14,"x_max":776,"o":"m 550 604 l 550 0 l 638 0 l 638 604 l 776 604 l 776 674 l 14 674 l 14 604 l 151 604 l 151 0 l 239 0 l 239 604 l 550 604 z "},"†":{"ha":518,"x_min":42,"x_max":476,"o":"m 42 868 l 68 801 l 214 801 l 228 0 l 292 -6 l 306 801 l 476 801 l 450 868 l 306 868 l 306 1083 l 214 1088 l 214 868 l 42 868 z "},"‡":{"ha":522,"x_min":42,"x_max":481,"o":"m 481 258 l 454 326 l 303 326 l 307 742 l 481 742 l 454 811 l 303 811 l 310 1083 l 215 1088 l 222 811 l 42 811 l 68 742 l 219 742 l 215 326 l 42 326 l 68 258 l 219 258 l 213 -8 l 308 1 l 301 258 l 481 258 z "},"•":{"ha":311,"x_min":42,"x_max":269,"o":"m 156 340 q 236 374 203 340 q 269 453 269 407 q 236 534 269 500 q 156 568 203 568 q 75 534 108 568 q 42 453 42 500 q 75 374 42 407 q 156 340 108 340 z "},"…":{"ha":610,"x_min":42,"x_max":568,"o":"m 104 0 q 149 18 131 0 q 167 63 167 36 q 149 107 167 89 q 104 125 131 125 q 60 107 78 125 q 42 63 42 89 q 60 18 42 36 q 104 0 78 0 m 308 0 q 353 18 335 0 q 371 63 371 36 q 353 107 371 89 q 308 125 335 125 q 263 107 282 125 q 244 63 244 89 q 263 18 244 36 q 308 0 282 0 m 506 0 q 550 18 532 0 q 568 63 568 36 q 550 107 568 89 q 506 125 532 125 q 460 107 479 125 q 442 63 442 89 q 460 18 442 36 q 506 0 479 0 z "},"‹":{"ha":293,"x_min":42,"x_max":265,"o":"m 265 176 l 114 340 l 265 504 l 236 567 l 42 374 l 42 307 l 236 115 l 265 176 z "},"›":{"ha":296,"x_min":28,"x_max":254,"o":"m 28 504 l 183 340 l 28 176 l 60 115 l 254 307 l 254 374 l 60 567 l 28 504 z "},"-":{"ha":439,"x_min":42,"x_max":397,"o":"m 53 344 l 397 344 l 386 414 l 42 414 l 53 344 z "},"_":{"ha":610,"x_min":42,"x_max":568,"o":"m 53 0 l 568 0 l 557 69 l 42 69 l 53 0 z "},"–":{"ha":610,"x_min":42,"x_max":568,"o":"m 53 344 l 568 344 l 557 414 l 42 414 l 53 344 z "},"—":{"ha":742,"x_min":42,"x_max":700,"o":"m 53 344 l 700 344 l 689 414 l 42 414 l 53 344 z "},"#":{"ha":690,"x_min":42,"x_max":649,"o":"m 288 515 l 332 697 l 261 697 l 218 515 l 42 515 l 53 447 l 200 447 l 157 264 l 42 264 l 53 194 l 140 194 l 96 8 l 165 1 l 211 194 l 401 194 l 357 8 l 425 1 l 471 194 l 649 194 l 639 264 l 488 264 l 531 447 l 649 447 l 639 515 l 549 515 l 593 697 l 521 697 l 478 515 l 288 515 m 228 264 l 272 447 l 461 447 l 417 264 l 228 264 z "},"%":{"ha":1165,"x_min":49,"x_max":1117,"o":"m 408 -6 l 838 981 l 756 986 l 328 0 l 408 -6 m 265 975 q 155 946 204 975 q 77 863 106 917 q 49 739 49 810 q 108 566 49 628 q 267 504 167 504 q 421 568 360 504 q 482 739 482 632 q 423 913 482 850 q 265 975 364 975 m 265 904 q 358 863 321 904 q 394 739 394 821 q 356 615 394 656 q 267 575 318 575 q 174 616 211 575 q 136 739 136 657 q 174 863 136 822 q 265 904 213 904 m 901 469 q 791 440 840 469 q 713 358 742 411 q 685 235 685 304 q 744 62 685 124 q 901 0 803 0 q 1056 64 994 0 q 1117 235 1117 128 q 1058 407 1117 344 q 901 469 999 469 m 901 400 q 992 358 956 400 q 1029 235 1029 317 q 991 112 1029 153 q 901 71 953 71 q 809 112 846 71 q 772 235 772 153 q 810 360 772 319 q 901 400 849 400 z "},"+":{"ha":743,"x_min":42,"x_max":701,"o":"m 410 738 l 331 742 l 331 414 l 42 414 l 53 344 l 331 344 l 331 11 l 410 6 l 410 344 l 701 344 l 688 414 l 410 414 l 410 738 z "},"÷":{"ha":690,"x_min":42,"x_max":649,"o":"m 344 500 q 399 524 376 500 q 421 578 421 547 q 399 633 421 611 q 344 656 376 656 q 288 633 310 656 q 265 578 265 611 q 288 524 265 547 q 344 500 311 500 m 53 344 l 649 344 l 639 414 l 42 414 l 53 344 m 347 79 q 402 103 379 79 q 425 158 425 126 q 402 213 425 190 q 347 236 379 236 q 292 213 314 236 q 269 158 269 190 q 292 102 269 125 q 347 79 314 79 z "},"×":{"ha":678,"x_min":42,"x_max":636,"o":"m 526 43 l 339 282 l 129 43 l 42 43 l 297 346 l 64 644 l 151 644 l 339 406 l 549 644 l 636 644 l 381 342 l 614 43 l 526 43 z "},"±":{"ha":683,"x_min":42,"x_max":642,"o":"m 379 738 l 301 742 l 301 486 l 42 486 l 53 419 l 301 419 l 301 157 l 379 150 l 379 419 l 642 419 l 631 486 l 379 486 l 379 738 m 53 1 l 642 1 l 631 67 l 42 67 l 53 1 z "},"<":{"ha":447,"x_min":42,"x_max":419,"o":"m 419 592 l 388 653 l 42 374 l 42 307 l 388 26 l 419 89 l 119 340 l 419 592 z "},"=":{"ha":690,"x_min":42,"x_max":649,"o":"m 53 447 l 649 447 l 639 515 l 42 515 l 53 447 m 53 194 l 649 194 l 639 264 l 42 264 l 53 194 z "},">":{"ha":449,"x_min":28,"x_max":407,"o":"m 28 592 l 328 340 l 28 89 l 60 26 l 407 307 l 407 374 l 60 653 l 28 592 z "},"°":{"ha":324,"x_min":14,"x_max":310,"o":"m 161 975 q 58 933 101 975 q 14 832 14 890 q 57 731 14 771 q 161 692 100 692 q 267 731 224 692 q 310 832 310 771 q 266 933 310 892 q 161 975 222 975 m 161 747 q 101 772 125 747 q 78 832 78 797 q 101 891 78 867 q 161 915 125 915 q 222 891 196 915 q 247 832 247 867 q 222 772 247 797 q 161 747 196 747 z "},"¹":{"ha":343,"x_min":14,"x_max":239,"o":"m 189 1063 l 14 972 l 46 921 l 163 979 l 163 467 l 239 467 l 239 1063 l 189 1063 z "},"²":{"ha":489,"x_min":35,"x_max":461,"o":"m 239 1071 q 133 1056 188 1071 q 40 1018 79 1042 l 71 957 q 149 994 103 979 q 236 1008 194 1008 q 333 976 301 1008 q 365 899 365 943 q 338 810 365 851 q 251 715 310 768 l 35 526 l 35 467 l 461 467 l 453 526 l 124 526 l 289 668 q 406 791 369 739 q 442 899 442 843 q 392 1019 442 967 q 239 1071 342 1071 z "},"³":{"ha":492,"x_min":0,"x_max":436,"o":"m 215 1071 q 108 1055 156 1071 q 13 1010 60 1039 l 43 957 q 214 1010 125 1010 q 312 980 276 1010 q 347 903 347 950 q 301 810 347 843 q 169 778 256 778 l 133 778 l 143 717 l 163 717 q 315 681 268 717 q 361 576 361 646 q 316 482 361 515 q 204 449 271 449 q 111 460 149 449 q 33 494 74 471 l 0 442 q 93 402 42 418 q 199 386 144 386 q 324 411 269 386 q 407 480 378 436 q 436 578 436 524 q 401 688 436 643 q 306 747 365 733 q 390 806 356 764 q 424 904 424 849 q 369 1024 424 976 q 215 1071 315 1071 z "},"¼":{"ha":1006,"x_min":14,"x_max":978,"o":"m 189 1063 l 14 972 l 46 921 l 163 979 l 163 467 l 239 467 l 239 1063 l 189 1063 m 146 -186 l 828 972 l 751 972 l 63 -186 l 146 -186 m 978 -43 l 871 -43 l 871 446 l 821 446 l 468 -43 l 475 -104 l 799 -104 l 799 -226 l 871 -226 l 871 -104 l 972 -104 l 978 -43 m 549 -43 l 799 306 l 799 -43 l 549 -43 z "},"½":{"ha":1029,"x_min":14,"x_max":1001,"o":"m 189 1063 l 14 972 l 46 921 l 163 979 l 163 467 l 239 467 l 239 1063 l 189 1063 m 118 -186 l 800 972 l 724 972 l 35 -186 l 118 -186 m 779 451 q 674 437 728 451 q 581 399 619 422 l 611 338 q 689 374 643 360 q 776 389 735 389 q 874 356 842 389 q 906 279 906 324 q 878 190 906 232 q 792 96 850 149 l 575 -93 l 575 -153 l 1001 -153 l 993 -93 l 664 -93 l 829 49 q 946 172 910 119 q 982 279 982 224 q 932 399 982 347 q 779 451 882 451 z "},"¾":{"ha":1054,"x_min":0,"x_max":1026,"o":"m 215 1071 q 108 1055 156 1071 q 13 1010 60 1039 l 43 957 q 214 1010 125 1010 q 312 980 276 1010 q 347 903 347 950 q 301 810 347 843 q 169 778 256 778 l 133 778 l 143 717 l 163 717 q 315 681 268 717 q 361 576 361 646 q 316 482 361 515 q 204 449 271 449 q 111 460 149 449 q 33 494 74 471 l 0 442 q 93 402 42 418 q 199 386 144 386 q 324 411 269 386 q 407 480 378 436 q 436 578 436 524 q 401 688 436 643 q 306 747 365 733 q 390 806 356 764 q 424 904 424 849 q 369 1024 424 976 q 215 1071 315 1071 m 242 -186 l 924 972 l 847 972 l 158 -186 l 242 -186 m 868 446 l 517 -43 l 522 -104 l 846 -104 l 846 -226 l 918 -226 l 918 -104 l 1021 -104 l 1026 -43 l 918 -43 l 918 446 l 868 446 m 846 306 l 846 -43 l 597 -43 l 846 306 z "},"℮":{"ha":685,"x_min":49,"x_max":636,"o":"m 636 332 q 567 594 636 496 q 354 692 497 692 q 130 594 210 692 q 49 340 50 497 q 135 79 49 176 q 390 -18 221 -18 q 515 -2 463 -18 q 626 46 567 14 l 597 110 q 492 66 542 81 q 386 51 442 51 q 197 127 257 51 q 136 332 138 203 l 636 332 m 139 392 q 201 558 149 496 q 350 619 254 619 q 549 392 526 619 l 139 392 z "},"∂":{"ha":732,"x_min":49,"x_max":683,"o":"m 157 1042 q 561 763 439 942 q 683 333 683 583 q 643 152 683 232 q 528 27 603 72 q 353 -18 453 -18 q 190 28 258 -18 q 85 155 121 74 q 49 340 49 236 q 89 520 50 440 q 201 646 128 600 q 371 692 274 692 q 542 638 467 692 q 396 831 494 744 q 132 983 297 918 l 157 1042 m 363 54 q 533 132 471 54 q 596 332 594 210 q 576 531 596 442 q 485 597 539 574 q 369 619 432 619 q 199 542 261 619 q 136 342 138 464 q 194 133 136 213 q 363 54 253 54 z "},"∏":{"ha":840,"x_min":132,"x_max":708,"o":"m 211 883 l 628 883 l 628 0 l 708 0 l 708 944 l 132 944 l 132 0 l 211 0 l 211 883 z "},"∑":{"ha":607,"x_min":42,"x_max":579,"o":"m 42 882 l 326 479 l 42 69 l 42 0 l 579 0 l 572 69 l 129 69 l 396 458 l 396 500 l 129 882 l 550 882 l 542 944 l 42 944 l 42 882 z "},"−":{"ha":663,"x_min":42,"x_max":621,"o":"m 53 344 l 621 344 l 607 414 l 42 414 l 53 344 z "},"√":{"ha":742,"x_min":14,"x_max":728,"o":"m 97 446 l 14 440 l 243 0 l 328 -6 l 728 981 l 653 986 l 289 83 l 97 446 z "},"∞":{"ha":1131,"x_min":49,"x_max":1082,"o":"m 321 636 q 180 597 242 636 q 83 491 118 558 q 49 343 49 424 q 124 142 49 218 q 324 67 199 67 q 454 109 400 67 q 550 225 508 151 q 810 67 663 67 q 952 106 890 67 q 1048 210 1014 144 q 1082 358 1082 276 q 1007 560 1082 483 q 807 636 932 636 q 676 594 731 636 q 576 481 621 553 q 462 594 526 553 q 321 636 397 636 m 606 347 q 683 499 635 435 q 807 563 732 563 q 948 503 896 563 q 1000 361 1000 444 q 949 204 1000 268 q 808 140 897 140 q 681 182 736 140 q 588 292 625 224 l 606 347 m 526 356 q 449 201 496 263 q 324 140 401 140 q 184 199 236 140 q 132 340 132 257 q 183 497 132 433 q 322 561 235 561 q 451 520 394 561 q 544 410 508 479 l 526 356 z "},"∫":{"ha":425,"x_min":0,"x_max":425,"o":"m 256 896 q 278 981 256 950 q 350 1013 301 1013 q 408 999 365 1013 l 425 1071 q 332 1088 382 1088 q 214 1036 258 1088 q 169 896 169 985 l 169 -57 q 74 -169 169 -169 q 42 -166 60 -169 q 17 -158 25 -162 l 0 -232 q 92 -249 54 -249 q 211 -196 167 -249 q 256 -56 256 -143 l 256 896 z "},"≈":{"ha":690,"x_min":42,"x_max":649,"o":"m 583 533 q 555 492 582 506 q 503 478 528 478 q 363 508 449 478 q 214 539 275 539 q 94 515 147 539 q 42 428 42 492 l 104 413 q 138 454 107 440 q 194 468 168 468 q 344 438 257 468 q 482 406 436 406 q 600 428 551 406 q 649 517 649 450 l 583 533 m 583 293 q 555 251 582 265 q 503 238 528 238 q 363 269 451 238 q 214 300 275 300 q 94 276 146 300 q 42 188 42 253 l 104 174 q 138 215 107 200 q 194 229 169 229 q 344 199 257 229 q 482 167 436 167 q 649 276 649 167 l 583 293 z "},"≠":{"ha":690,"x_min":42,"x_max":649,"o":"m 42 515 l 53 447 l 339 447 l 258 264 l 42 264 l 53 194 l 228 194 l 135 -14 l 208 -21 l 306 194 l 649 194 l 638 264 l 335 264 l 417 447 l 649 447 l 638 515 l 447 515 l 536 718 l 463 722 l 371 515 l 42 515 z "},"≤":{"ha":447,"x_min":42,"x_max":419,"o":"m 419 592 l 388 653 l 42 431 l 42 364 l 388 143 l 419 206 l 119 400 l 419 592 m 54 0 l 415 0 l 406 69 l 42 69 l 54 0 z "},"≥":{"ha":449,"x_min":28,"x_max":407,"o":"m 28 592 l 328 400 l 28 206 l 60 143 l 407 364 l 407 431 l 60 653 l 28 592 m 40 0 l 401 0 l 390 69 l 28 69 l 40 0 z "},"‰":{"ha":1678,"x_min":49,"x_max":1629,"o":"m 408 -6 l 838 981 l 756 986 l 328 0 l 408 -6 m 265 975 q 155 946 204 975 q 77 863 106 917 q 49 739 49 810 q 108 566 49 628 q 267 504 167 504 q 421 568 360 504 q 482 739 482 632 q 423 913 482 850 q 265 975 364 975 m 265 904 q 358 863 321 904 q 394 739 394 821 q 356 615 394 656 q 267 575 318 575 q 174 616 211 575 q 136 739 136 657 q 174 863 136 822 q 265 904 213 904 m 901 469 q 791 440 840 469 q 713 358 742 411 q 685 235 685 304 q 744 62 685 124 q 901 0 803 0 q 1056 64 994 0 q 1117 235 1117 128 q 1058 407 1117 344 q 901 469 999 469 m 1413 469 q 1302 440 1351 469 q 1225 358 1253 411 q 1197 235 1197 304 q 1256 62 1197 124 q 1414 0 1314 0 q 1568 64 1507 0 q 1629 235 1629 128 q 1571 408 1629 346 q 1413 469 1513 469 m 901 400 q 992 358 956 400 q 1029 235 1029 317 q 991 112 1029 153 q 901 71 953 71 q 809 112 846 71 q 772 235 772 153 q 810 360 772 319 q 901 400 849 400 m 1413 400 q 1506 358 1468 400 q 1543 235 1543 317 q 1504 112 1543 153 q 1414 71 1465 71 q 1321 112 1358 71 q 1283 235 1283 153 q 1322 360 1283 319 q 1413 400 1361 400 z "},"⁄":{"ha":535,"x_min":14,"x_max":521,"o":"m 92 -6 l 521 981 l 442 986 l 14 0 l 92 -6 z "},"◊":{"ha":722,"x_min":42,"x_max":681,"o":"m 681 428 l 378 832 l 344 832 l 42 428 l 42 404 l 344 0 l 378 0 l 681 404 l 681 428 m 360 96 l 124 415 l 360 738 l 600 415 l 360 96 z "},"©":{"ha":1099,"x_min":49,"x_max":1050,"o":"m 1050 467 q 988 719 1050 606 q 813 898 926 832 q 550 964 700 964 q 286 898 400 964 q 110 719 172 832 q 49 467 49 606 q 110 217 49 329 q 286 38 172 104 q 550 -28 400 -28 q 813 38 700 -28 q 988 217 926 104 q 1050 467 1050 329 m 131 468 q 182 688 131 590 q 328 840 233 785 q 550 896 424 896 q 772 840 676 896 q 919 688 868 785 q 971 468 971 590 q 919 249 971 346 q 772 96 868 151 q 550 40 676 40 q 328 96 424 40 q 182 249 233 151 q 131 468 131 346 m 567 147 q 672 163 613 147 q 771 206 732 179 l 743 265 q 661 228 693 239 q 567 218 629 218 q 407 283 456 218 q 358 478 358 349 q 412 657 358 589 q 572 725 465 725 q 665 715 632 725 q 720 694 697 706 q 750 678 743 682 l 778 740 q 682 782 742 767 q 575 797 622 797 q 411 756 479 797 q 308 641 343 714 q 272 475 272 568 q 348 238 272 328 q 567 147 424 147 z "},"®":{"ha":979,"x_min":49,"x_max":931,"o":"m 931 676 q 876 899 931 799 q 722 1056 822 999 q 490 1114 622 1114 q 257 1056 357 1114 q 103 899 157 999 q 49 676 49 799 q 103 456 49 554 q 257 299 157 357 q 490 242 357 242 q 722 299 622 242 q 876 456 822 357 q 931 676 931 554 m 124 678 q 168 870 124 786 q 295 1001 213 954 q 490 1049 378 1049 q 684 1001 601 1049 q 811 869 767 954 q 856 678 856 785 q 811 488 856 572 q 684 356 767 404 q 490 307 601 307 q 295 356 378 307 q 168 488 213 404 q 124 678 124 572 m 571 660 q 660 794 660 699 q 609 908 660 872 q 471 944 558 944 l 336 944 l 336 422 l 406 422 l 406 642 l 464 642 q 504 643 497 642 l 629 422 l 710 422 l 571 660 m 451 889 q 527 883 499 889 q 573 857 556 878 q 590 793 590 836 q 551 715 589 735 q 444 696 514 696 l 406 696 l 406 889 l 451 889 z "},"™":{"ha":997,"x_min":14,"x_max":935,"o":"m 14 883 l 172 883 l 172 425 l 247 425 l 247 883 l 404 883 l 400 944 l 14 944 l 14 883 m 865 425 l 935 425 l 935 944 l 904 944 l 713 671 l 514 944 l 486 944 l 486 425 l 558 425 l 558 778 l 704 564 l 721 567 l 865 779 l 865 425 z "},"&":{"ha":921,"x_min":63,"x_max":872,"o":"m 757 164 q 826 446 818 272 l 763 471 q 697 217 751 315 l 406 492 q 317 579 346 549 q 273 647 289 610 q 257 731 257 683 q 278 810 257 772 q 338 871 299 847 q 426 894 376 894 q 517 885 483 894 q 574 863 550 875 q 606 847 597 851 l 636 913 q 537 953 585 939 q 426 967 489 967 q 291 934 347 967 q 205 845 235 901 q 175 722 175 789 q 218 576 175 639 q 106 457 149 533 q 63 288 64 381 q 108 122 63 190 q 234 18 154 53 q 415 -18 314 -17 q 717 104 613 -18 l 832 0 l 872 57 l 757 164 m 658 160 q 415 54 572 54 q 285 81 346 54 q 186 160 224 107 q 149 290 149 213 q 180 431 150 369 q 264 521 210 492 l 308 479 l 658 160 z "},"@":{"ha":1061,"x_min":49,"x_max":1013,"o":"m 619 568 q 468 533 539 568 q 354 436 397 499 q 311 293 311 374 q 368 147 311 201 q 536 92 425 92 q 607 106 571 92 q 671 139 643 119 q 783 90 710 90 q 951 175 890 90 q 1013 422 1013 260 q 958 629 1013 538 q 808 773 904 721 q 588 825 711 825 q 301 754 424 825 q 114 562 179 683 q 49 296 49 440 q 111 65 49 167 q 275 -92 174 -36 q 492 -149 376 -149 q 756 -92 646 -149 l 733 -28 q 630 -64 692 -51 q 507 -76 568 -76 q 318 -31 403 -76 q 184 100 233 15 q 135 297 135 185 q 197 540 135 435 q 361 701 258 644 q 583 758 464 758 q 770 714 690 758 q 894 591 850 669 q 938 413 938 513 q 898 225 938 294 q 794 156 858 156 q 734 178 758 156 q 714 254 710 201 l 747 533 l 718 568 l 619 568 m 535 156 q 429 197 464 156 q 394 293 394 238 q 424 408 394 358 q 504 483 454 457 q 613 510 554 510 l 675 510 l 643 264 q 640 232 640 242 q 644 194 640 211 q 597 166 626 176 q 535 156 568 156 z "},"^":{"ha":571,"x_min":14,"x_max":557,"o":"m 557 199 l 326 542 l 244 542 l 14 199 l 97 199 l 286 478 l 474 199 l 557 199 z "},"~":{"ha":531,"x_min":42,"x_max":489,"o":"m 104 285 q 126 328 107 314 q 172 343 144 343 q 260 310 208 343 q 358 276 313 276 q 453 306 417 276 q 489 403 489 336 l 424 403 q 403 358 422 372 q 357 343 385 343 q 276 376 319 343 q 172 410 231 410 q 77 381 113 410 q 42 285 42 351 l 104 285 z "},"§":{"ha":781,"x_min":63,"x_max":732,"o":"m 732 340 q 709 242 732 288 q 642 165 686 197 q 657 76 657 124 q 618 -48 657 7 q 505 -133 579 -103 q 331 -164 431 -164 q 197 -147 271 -164 q 78 -106 124 -131 l 99 -39 q 204 -77 143 -61 q 329 -93 265 -93 q 510 -46 446 -93 q 575 76 575 1 q 547 167 575 129 q 465 238 518 206 q 318 308 411 269 q 63 590 63 417 q 88 687 63 642 q 157 764 113 732 q 138 854 138 807 q 174 971 138 918 q 278 1054 211 1024 q 432 1085 344 1085 q 558 1069 497 1085 q 665 1031 618 1054 l 635 965 q 542 1000 585 988 q 435 1013 499 1013 q 276 969 335 1013 q 218 854 218 926 q 247 764 218 801 q 326 696 275 726 q 478 618 378 665 q 624 538 571 575 q 704 454 676 501 q 732 340 732 407 m 600 229 q 650 340 650 276 q 622 431 650 393 q 540 501 593 469 q 393 572 486 533 q 197 703 261 629 q 143 590 143 660 q 172 500 143 538 q 251 432 200 463 q 403 354 303 401 q 522 291 474 321 q 600 229 569 261 z "},"ª":{"ha":461,"x_min":49,"x_max":413,"o":"m 96 876 q 126 888 104 879 q 171 902 147 897 q 224 907 194 907 q 306 878 278 907 q 335 801 335 850 l 335 776 l 215 776 q 95 741 142 776 q 49 643 49 706 q 94 544 49 583 q 208 504 140 504 q 281 523 247 504 q 339 567 315 542 l 354 517 l 413 517 l 413 806 q 389 889 413 850 q 322 951 365 928 q 222 975 279 975 q 148 963 192 975 q 79 935 104 951 l 96 876 m 125 643 q 156 699 125 678 q 228 719 186 719 l 335 719 l 335 647 q 278 592 311 614 q 208 569 244 569 q 148 592 171 569 q 125 643 125 614 z "},"¬":{"ha":714,"x_min":14,"x_max":672,"o":"m 25 494 l 592 494 l 592 163 l 672 156 l 672 494 l 661 564 l 14 564 l 25 494 z "},"¶":{"ha":1129,"x_min":49,"x_max":1081,"o":"m 857 876 l 857 0 l 943 0 l 943 876 l 1081 876 l 1081 944 l 389 944 q 140 876 231 944 q 49 660 49 807 q 149 440 50 514 q 404 367 247 367 l 457 367 l 457 0 l 543 0 l 543 876 l 857 876 z "},"º":{"ha":531,"x_min":49,"x_max":482,"o":"m 264 975 q 153 946 203 975 q 76 863 104 917 q 49 739 49 810 q 108 566 49 628 q 264 504 167 504 q 375 533 325 504 q 453 615 425 561 q 482 739 482 668 q 422 913 482 850 q 264 975 363 975 m 264 906 q 358 863 319 906 q 396 739 396 821 q 356 614 396 656 q 264 572 317 572 q 171 615 210 572 q 132 739 132 658 q 172 864 132 822 q 264 906 213 906 z "},"Ģ":{"ha":869,"x_min":63,"x_max":793,"o":"m 707 89 q 538 57 619 57 q 342 107 429 57 q 205 251 256 157 q 154 468 154 344 q 210 692 154 597 q 358 838 267 788 q 550 889 449 888 q 658 879 617 889 q 751 849 700 869 l 778 913 q 671 950 743 936 q 547 964 599 964 q 301 901 413 964 q 126 726 190 839 q 63 467 63 613 q 122 218 63 329 q 290 44 182 107 q 539 -19 399 -19 q 678 -1 604 -19 q 793 44 751 17 l 793 475 l 503 475 l 494 413 l 707 413 l 707 89 m 540 -29 q 494 -49 514 -29 q 474 -96 474 -68 q 490 -139 474 -119 q 533 -161 507 -158 q 512 -220 532 -194 q 454 -271 492 -246 l 479 -312 q 570 -226 533 -286 q 607 -104 607 -167 q 588 -50 607 -71 q 540 -29 569 -29 z "},"Ķ":{"ha":824,"x_min":132,"x_max":810,"o":"m 218 357 l 218 0 l 132 0 l 132 944 l 218 944 l 218 465 l 699 965 l 754 913 l 388 532 l 810 0 l 707 0 l 331 474 l 218 357 m 469 -29 q 423 -49 443 -29 q 403 -96 403 -68 q 419 -139 403 -119 q 463 -161 436 -158 q 441 -220 461 -194 q 383 -271 421 -246 l 408 -312 q 499 -226 463 -286 q 536 -104 536 -167 q 517 -50 536 -71 q 469 -29 499 -29 z "},"Ļ":{"ha":690,"x_min":132,"x_max":676,"o":"m 218 944 l 132 944 l 132 0 l 676 0 l 669 69 l 218 69 l 218 944 m 482 -29 q 435 -49 456 -29 q 415 -96 415 -68 q 432 -139 415 -119 q 475 -161 449 -158 q 453 -220 474 -194 q 396 -271 433 -246 l 421 -312 q 512 -226 475 -286 q 549 -104 549 -167 q 530 -50 549 -71 q 482 -29 511 -29 z "},"Ņ":{"ha":951,"x_min":132,"x_max":819,"o":"m 238 738 l 763 0 l 819 0 l 819 944 l 732 944 l 732 179 l 685 261 l 189 944 l 132 944 l 132 0 l 218 0 l 218 778 l 238 738 m 492 -29 q 445 -49 465 -29 q 425 -96 425 -68 q 442 -139 425 -119 q 485 -161 458 -158 q 463 -220 483 -194 q 406 -271 443 -246 l 431 -312 q 522 -226 485 -286 q 558 -104 558 -167 q 540 -50 558 -71 q 492 -29 521 -29 z "},"Ŗ":{"ha":806,"x_min":132,"x_max":792,"o":"m 218 0 l 218 397 l 361 397 q 471 404 413 397 l 694 0 l 792 0 l 547 428 q 717 675 715 494 q 626 881 717 817 q 376 944 535 944 l 132 944 l 132 0 l 218 0 m 379 871 q 565 828 500 871 q 629 672 629 785 q 555 515 628 563 q 364 468 482 468 l 218 468 l 218 871 l 379 871 m 456 -29 q 409 -49 429 -29 q 389 -96 389 -68 q 406 -139 389 -119 q 449 -161 422 -158 q 427 -220 447 -194 q 369 -271 407 -246 l 394 -312 q 485 -226 449 -286 q 522 -104 522 -167 q 503 -50 522 -71 q 456 -29 485 -29 z "},"Ț":{"ha":768,"x_min":14,"x_max":754,"o":"m 14 876 l 340 876 l 340 0 l 428 0 l 428 876 l 754 876 l 747 944 l 14 944 l 14 876 m 389 -29 q 342 -49 363 -29 q 322 -96 322 -68 q 339 -139 322 -119 q 382 -161 356 -158 q 360 -220 381 -194 q 303 -271 340 -246 l 328 -312 q 419 -226 382 -286 q 456 -104 456 -167 q 437 -50 456 -71 q 389 -29 418 -29 z "},"ģ":{"ha":711,"x_min":49,"x_max":613,"o":"m 361 786 q 314 807 332 786 q 296 864 296 828 q 333 985 296 925 q 422 1071 371 1044 l 449 1029 q 392 980 413 1006 q 368 919 371 954 q 411 897 394 917 q 428 854 428 878 q 409 806 428 825 q 361 786 390 786 m 613 -86 q 578 -206 613 -153 q 478 -289 543 -258 q 326 -319 413 -319 q 209 -303 281 -319 q 97 -262 138 -286 l 124 -199 q 214 -233 168 -219 q 324 -247 260 -246 q 469 -206 413 -247 q 525 -85 525 -164 l 525 40 q 356 -18 446 -18 q 129 79 210 -18 q 49 338 49 176 q 87 519 50 439 q 194 646 124 600 q 361 692 264 692 q 536 622 446 692 l 556 674 l 613 674 l 613 -86 m 354 54 q 525 126 453 54 l 525 553 q 451 602 490 585 q 357 619 411 619 q 194 541 250 619 q 136 339 138 463 q 190 131 136 208 q 354 54 244 54 z "},"ķ":{"ha":635,"x_min":104,"x_max":635,"o":"m 290 367 l 531 0 l 635 0 l 346 424 l 557 640 l 503 692 l 190 369 l 190 981 l 104 967 l 104 0 l 190 0 l 190 264 l 290 367 m 354 -29 q 308 -49 328 -29 q 288 -96 288 -68 q 304 -139 288 -119 q 347 -161 321 -158 q 326 -220 346 -194 q 268 -271 306 -246 l 293 -312 q 384 -226 347 -286 q 421 -104 421 -167 q 402 -50 421 -71 q 354 -29 383 -29 z "},"ļ":{"ha":294,"x_min":61,"x_max":214,"o":"m 104 967 l 104 0 l 190 0 l 190 981 l 104 967 m 147 -29 q 101 -49 121 -29 q 81 -96 81 -68 q 97 -139 81 -119 q 140 -161 114 -158 q 119 -220 139 -194 q 61 -271 99 -246 l 86 -312 q 177 -226 140 -286 q 214 -104 214 -167 q 195 -50 214 -71 q 147 -29 176 -29 z "},"ņ":{"ha":717,"x_min":90,"x_max":632,"o":"m 176 481 q 292 578 222 539 q 415 618 363 618 q 546 451 546 618 l 546 1 l 632 1 l 632 468 q 581 631 632 569 q 425 692 529 692 q 290 656 363 692 q 175 571 218 621 l 161 674 l 90 674 l 90 0 l 176 0 l 176 481 m 369 -29 q 323 -49 343 -29 q 303 -96 303 -68 q 319 -139 303 -119 q 363 -161 336 -158 q 341 -220 361 -194 q 283 -271 321 -246 l 308 -312 q 399 -226 363 -286 q 436 -104 436 -167 q 417 -50 436 -71 q 369 -29 399 -29 z "},"ŗ":{"ha":431,"x_min":50,"x_max":417,"o":"m 176 481 q 288 567 219 528 q 417 606 357 606 l 393 674 q 283 640 346 674 q 172 567 219 606 l 147 674 l 90 674 l 90 0 l 176 0 l 176 481 m 136 -29 q 90 -49 110 -29 q 69 -96 69 -68 q 86 -139 69 -119 q 129 -161 103 -158 q 108 -220 128 -194 q 50 -271 88 -246 l 75 -312 q 166 -226 129 -286 q 203 -104 203 -167 q 184 -50 203 -71 q 136 -29 165 -29 z "},"ț":{"ha":414,"x_min":24,"x_max":379,"o":"m 211 865 l 124 835 l 124 660 l 24 660 l 25 594 l 124 594 l 124 161 q 168 28 124 75 q 288 -18 213 -18 q 351 -10 328 -18 q 379 -1 375 -3 l 363 69 q 306 57 333 57 q 234 88 257 57 q 211 171 211 118 l 211 594 l 363 594 l 333 660 l 211 660 l 211 865 m 246 -29 q 199 -49 219 -29 q 179 -96 179 -68 q 196 -139 179 -119 q 239 -161 213 -158 q 217 -220 238 -194 q 160 -271 197 -246 l 185 -312 q 276 -226 239 -286 q 313 -104 313 -167 q 294 -50 313 -71 q 246 -29 275 -29 z "},"அ":{"ha":1468,"x_min":49,"x_max":1336,"o":"m 1336 -175 l 1258 -175 l 1258 111 l 1006 111 q 798 -117 942 -33 q 460 -200 654 -200 q 245 -169 339 -200 q 100 -83 151 -137 q 49 36 49 -29 q 90 137 49 100 q 208 174 131 174 l 942 174 q 964 319 964 247 q 925 499 964 419 q 815 624 886 579 q 647 669 743 669 q 463 618 535 669 q 494 621 482 621 q 618 575 569 621 q 667 460 667 529 q 617 338 667 386 q 489 290 567 290 q 360 338 413 290 q 307 457 307 385 q 353 600 307 536 q 477 701 399 664 q 647 738 556 738 q 858 684 767 738 q 998 535 949 631 q 1047 319 1047 440 q 1028 174 1047 244 l 1258 174 l 1258 713 l 1336 713 l 1336 -175 m 592 457 q 563 531 592 503 q 488 560 533 560 q 412 531 442 560 q 382 457 382 503 q 411 382 382 411 q 486 353 440 353 q 563 382 533 353 q 592 457 592 411 m 460 -132 q 737 -67 618 -132 q 915 111 856 -3 l 213 111 q 131 36 131 111 q 172 -44 131 -6 q 288 -108 213 -83 q 460 -132 364 -132 z "},"ஆ":{"ha":1758,"x_min":49,"x_max":1744,"o":"m 1507 129 q 1679 61 1614 129 q 1744 -114 1744 -7 q 1678 -324 1744 -231 q 1496 -471 1613 -418 q 1232 -524 1379 -524 q 1075 -500 1144 -524 q 965 -434 1006 -476 q 925 -336 925 -392 q 974 -223 925 -268 q 1104 -178 1024 -178 l 1133 -178 l 1133 -240 l 1104 -240 q 1034 -267 1060 -240 q 1008 -336 1008 -294 q 1071 -423 1008 -389 q 1232 -457 1133 -457 q 1453 -412 1356 -457 q 1606 -290 1551 -368 q 1661 -114 1661 -212 q 1619 12 1661 -37 q 1503 61 1576 61 q 1383 7 1431 61 q 1336 -132 1336 -47 l 1336 -175 l 1258 -175 l 1258 111 l 1006 111 q 798 -117 942 -33 q 460 -200 654 -200 q 245 -169 339 -200 q 100 -83 151 -137 q 49 36 49 -29 q 90 137 49 100 q 208 174 131 174 l 942 174 q 964 319 964 247 q 925 499 964 419 q 815 624 886 579 q 647 669 743 669 q 463 618 535 669 q 494 621 482 621 q 618 575 569 621 q 667 460 667 529 q 617 338 667 386 q 489 290 567 290 q 360 338 413 290 q 307 457 307 385 q 353 600 307 536 q 477 701 399 664 q 647 738 556 738 q 858 684 767 738 q 998 535 949 631 q 1047 319 1047 440 q 1028 174 1047 244 l 1258 174 l 1258 713 l 1336 713 l 1336 47 q 1410 108 1367 86 q 1507 129 1453 129 m 592 457 q 563 531 592 503 q 488 560 533 560 q 412 531 442 560 q 382 457 382 503 q 411 382 382 411 q 486 353 440 353 q 563 382 533 353 q 592 457 592 411 m 460 -132 q 737 -67 618 -132 q 915 111 856 -3 l 213 111 q 131 36 131 111 q 172 -44 131 -6 q 288 -108 213 -83 q 460 -132 364 -132 z "},"ஐ":{"ha":1153,"x_min":76,"x_max":1076,"o":"m 1004 140 q 1044 35 1032 82 q 1057 -69 1057 -11 q 1026 -180 1057 -131 q 939 -257 994 -229 q 814 -285 883 -285 q 679 -252 739 -285 q 585 -161 619 -219 q 485 -251 550 -218 q 339 -285 421 -285 q 204 -253 264 -285 q 110 -167 144 -222 q 76 -44 76 -112 q 451 244 76 194 l 701 278 q 925 356 857 299 q 994 497 993 413 q 949 620 994 571 q 833 669 903 669 q 697 614 751 669 q 643 476 643 558 l 643 381 l 565 381 l 565 476 q 510 615 565 560 q 368 669 454 669 q 203 604 260 669 q 235 607 222 607 q 335 569 296 607 q 375 472 375 532 q 334 378 375 415 q 231 340 293 340 q 127 378 168 340 q 86 475 86 415 q 122 610 86 550 q 223 703 158 669 q 368 738 288 738 q 504 703 444 738 q 604 607 564 668 q 833 738 688 738 q 958 706 903 738 q 1045 620 1014 675 q 1076 497 1076 565 q 701 208 1076 258 l 451 175 q 158 -44 161 136 q 209 -169 158 -119 q 339 -218 260 -218 q 444 -192 397 -218 q 519 -122 492 -167 q 546 -24 546 -78 l 546 72 l 622 72 l 622 -24 q 676 -162 622 -107 q 814 -218 731 -218 q 929 -176 883 -218 q 975 -69 975 -133 q 962 29 975 -26 q 926 132 949 85 l 1004 140 m 235 544 q 181 526 203 544 q 157 479 158 508 l 157 472 q 178 422 157 442 q 232 403 200 403 q 283 422 263 403 q 306 471 304 442 q 285 524 306 503 q 235 544 265 544 z "},"ஔ":{"ha":2793,"x_min":76,"x_max":2779,"o":"m 744 185 q 789 58 744 101 q 918 14 833 14 l 1006 14 l 1006 -49 l 918 -49 q 832 -39 869 -49 l 832 -69 q 798 -190 832 -136 q 703 -274 764 -243 q 567 -304 643 -304 q 430 -274 490 -304 q 335 -190 369 -243 q 301 -69 301 -136 l 301 0 l 379 0 l 379 -69 q 432 -189 379 -142 q 567 -236 485 -236 q 702 -189 649 -236 q 756 -69 756 -142 l 756 -4 q 694 73 715 25 q 672 185 672 121 l 672 374 l 744 374 q 778 281 746 318 q 860 243 810 243 q 937 284 910 243 q 964 392 964 325 q 911 537 964 472 q 767 638 858 601 q 561 674 675 674 q 351 635 444 674 q 206 528 258 596 q 154 374 154 460 l 154 372 q 212 445 171 418 q 308 472 253 472 q 436 426 386 472 q 486 308 486 381 q 435 188 486 235 q 306 142 385 142 q 190 172 243 142 q 107 255 138 201 q 76 374 76 308 q 139 563 76 479 q 312 694 201 647 q 561 742 422 742 q 810 697 700 742 q 983 572 921 651 q 1046 392 1046 492 q 996 235 1046 296 q 860 175 946 175 q 744 218 792 175 l 744 185 m 307 411 q 231 383 261 411 q 201 308 201 354 q 230 235 201 264 q 304 204 258 206 l 304 204 l 306 204 q 380 233 350 204 q 411 308 410 263 q 382 383 411 354 q 307 411 353 411 m 2511 650 l 2511 0 l 2433 0 l 2433 650 l 2068 650 l 2068 0 l 1990 0 l 1990 317 q 1944 499 1990 418 q 1817 624 1897 579 q 1642 669 1738 669 q 1450 626 1532 669 q 1324 505 1368 582 q 1281 329 1281 428 q 1374 101 1281 181 q 1350 196 1350 144 q 1379 310 1350 260 q 1460 390 1408 361 q 1575 418 1511 418 q 1695 390 1642 418 q 1779 310 1749 361 q 1810 196 1810 260 q 1779 83 1810 133 q 1695 3 1749 32 q 1575 -25 1642 -25 q 1371 20 1456 -25 q 1242 145 1286 65 q 1199 329 1199 225 q 1253 540 1199 447 q 1408 685 1307 633 q 1642 738 1508 738 q 1843 686 1750 738 q 1990 544 1936 635 l 1990 713 l 2774 713 l 2779 650 l 2511 650 m 1418 196 q 1463 83 1418 128 q 1575 38 1507 38 q 1690 82 1644 38 q 1735 196 1735 126 q 1690 310 1735 265 q 1575 356 1644 356 q 1463 310 1507 356 q 1418 196 1418 265 z "},"ச":{"ha":933,"x_min":63,"x_max":885,"o":"m 643 344 l 643 285 q 560 58 643 140 q 329 -25 476 -25 q 191 3 251 -25 q 97 79 131 31 q 63 189 63 128 q 106 319 63 265 q 229 394 150 374 l 229 713 l 878 713 l 885 650 l 643 650 l 643 407 l 878 407 l 885 344 l 643 344 m 325 407 l 565 407 l 565 650 l 307 650 l 307 407 l 325 407 m 328 344 q 192 301 240 344 q 144 188 144 257 q 196 84 144 125 q 329 43 247 43 q 503 107 442 43 q 565 285 565 171 l 565 344 l 328 344 z "},"எ":{"ha":1189,"x_min":76,"x_max":1175,"o":"m 906 650 l 906 0 l 828 0 l 828 650 l 532 650 q 251 563 344 650 q 158 329 158 476 q 251 101 158 181 q 228 196 228 144 q 257 310 228 260 q 338 390 286 361 q 453 418 389 418 q 573 390 519 418 q 657 310 626 361 q 688 196 688 260 q 657 83 688 133 q 573 3 626 32 q 453 -25 519 -25 q 249 20 333 -25 q 120 145 164 65 q 76 329 76 225 q 188 608 76 503 q 519 713 300 713 l 1168 713 l 1175 650 l 906 650 m 296 196 q 340 83 296 128 q 453 38 385 38 q 567 82 522 38 q 613 196 613 126 q 567 310 613 265 q 453 356 522 356 q 340 310 385 356 q 296 196 296 265 z "},"ஏ":{"ha":1189,"x_min":76,"x_max":1175,"o":"m 906 650 l 906 36 q 888 -93 906 -51 q 811 -160 871 -135 l 354 -347 l 319 -292 l 757 -110 q 814 -58 800 -92 q 828 46 828 -25 l 828 650 l 532 650 q 251 563 344 650 q 158 329 158 476 q 251 101 158 181 q 228 196 228 144 q 257 310 228 260 q 338 390 286 361 q 453 418 389 418 q 573 390 519 418 q 657 310 626 361 q 688 196 688 260 q 657 83 688 133 q 573 3 626 32 q 453 -25 519 -25 q 249 20 333 -25 q 120 145 164 65 q 76 329 76 225 q 188 608 76 503 q 519 713 300 713 l 1168 713 l 1175 650 l 906 650 m 296 196 q 340 83 296 128 q 453 38 385 38 q 567 82 522 38 q 613 196 613 126 q 567 310 613 265 q 453 356 522 356 q 340 310 385 356 q 296 196 296 265 z "},"ஹ":{"ha":2140,"x_min":76,"x_max":2064,"o":"m 1767 738 q 1987 623 1910 738 q 2064 321 2064 508 q 2008 37 2064 161 q 1848 -158 1953 -87 q 1600 -228 1743 -228 l 368 -228 q 230 -258 289 -228 q 139 -337 171 -287 l 76 -304 q 183 -204 113 -243 q 350 -165 253 -165 l 1600 -165 q 1806 -103 1719 -165 q 1936 69 1892 -42 q 1981 321 1981 179 q 1929 573 1981 479 q 1772 667 1878 667 q 1658 622 1701 667 q 1615 488 1615 576 l 1615 0 l 1539 0 l 1538 436 q 1495 606 1538 542 q 1369 669 1453 669 q 1258 619 1294 669 q 1221 456 1221 569 l 1221 0 l 746 0 l 747 63 q 826 193 797 118 q 856 354 856 268 q 812 515 856 443 q 692 628 768 588 q 519 669 615 669 q 326 626 407 669 q 201 505 244 582 q 158 329 158 428 q 251 101 158 181 q 228 196 228 144 q 257 310 228 260 q 338 390 286 361 q 453 418 389 418 q 573 390 519 418 q 657 310 626 361 q 688 196 688 260 q 657 83 688 133 q 573 3 626 32 q 453 -25 519 -25 q 249 20 333 -25 q 120 145 164 65 q 76 329 76 225 q 130 541 76 449 q 283 685 183 633 q 519 738 383 738 q 733 688 638 738 q 884 551 829 639 q 939 354 939 464 q 913 197 939 274 q 842 63 886 119 l 1143 63 l 1143 457 q 1202 668 1143 599 q 1369 738 1261 738 q 1485 706 1436 738 q 1564 617 1535 674 q 1645 706 1592 675 q 1767 738 1699 738 m 296 196 q 340 83 296 128 q 453 38 385 38 q 567 82 522 38 q 613 196 613 126 q 567 310 613 265 q 453 356 522 356 q 340 310 385 356 q 296 196 296 265 z "},"இ":{"ha":1439,"x_min":49,"x_max":1307,"o":"m 746 988 q 1030 926 901 988 q 1233 753 1158 865 q 1307 497 1307 642 l 1307 -206 l 1229 -206 l 1229 494 q 1167 720 1229 624 q 994 868 1104 817 q 746 919 883 919 q 483 869 596 919 q 308 722 371 819 q 244 485 244 624 q 325 164 244 314 q 610 211 456 211 q 807 182 713 211 q 894 444 894 328 q 835 607 894 544 q 674 669 776 669 q 496 614 558 669 q 546 621 521 621 q 669 575 621 621 q 718 460 718 529 q 668 338 718 386 q 540 290 618 290 q 411 338 464 290 q 358 457 358 385 q 399 601 358 536 q 510 701 439 665 q 674 738 582 738 q 835 700 767 738 q 940 596 903 663 q 976 444 976 529 q 878 156 976 315 q 1044 34 982 110 q 1107 -132 1107 -42 q 1053 -237 1107 -199 q 908 -275 1000 -275 q 547 -176 718 -275 q 247 -275 388 -275 q 102 -237 156 -275 q 49 -132 49 -199 q 103 17 49 -51 q 251 133 157 86 q 163 485 163 299 q 238 753 163 640 q 445 927 313 867 q 746 988 578 988 m 643 457 q 614 531 643 503 q 539 560 585 560 q 463 531 493 560 q 433 457 433 503 q 463 382 433 411 q 538 353 492 353 q 614 382 585 353 q 643 457 643 411 m 610 144 q 360 104 478 144 q 551 -92 438 -14 q 767 122 674 -3 q 610 144 686 144 m 1025 -132 q 974 -1 1025 -61 q 838 97 922 60 q 614 -131 744 -32 q 908 -207 756 -207 q 1025 -132 1025 -207 m 247 -207 q 485 -135 358 -207 q 288 72 369 -51 q 172 -19 214 33 q 131 -132 131 -71 q 247 -207 131 -207 z "},"ஈ":{"ha":1028,"x_min":132,"x_max":1014,"o":"m 593 650 l 208 650 l 208 0 l 132 0 l 132 713 l 1007 713 l 1014 650 l 669 650 l 669 0 l 593 0 l 593 650 m 400 260 q 442 277 425 260 q 460 319 460 294 q 442 361 460 344 q 400 378 425 378 q 358 361 374 378 q 342 319 342 344 q 358 276 342 293 q 400 260 374 260 m 861 260 q 903 277 886 260 q 921 319 921 294 q 903 361 921 344 q 861 378 886 378 q 819 361 835 378 q 803 319 803 344 q 819 276 803 293 q 861 260 835 260 z "},"ஜ":{"ha":1153,"x_min":76,"x_max":1076,"o":"m 875 97 q 1023 46 969 97 q 1076 -89 1076 -6 q 1046 -187 1076 -143 q 961 -256 1015 -231 q 839 -281 907 -281 l 669 -281 l 669 -218 l 839 -218 q 952 -182 910 -218 q 994 -89 994 -146 q 966 -2 994 -35 q 875 31 938 31 q 767 -4 818 31 q 635 -112 715 -39 q 531 -203 574 -169 q 435 -261 488 -237 q 326 -285 383 -285 q 145 -217 214 -285 q 76 -44 76 -150 q 451 244 76 194 l 701 278 q 925 356 857 299 q 994 497 993 413 q 949 620 994 571 q 833 669 903 669 q 697 614 751 669 q 643 476 643 558 l 643 381 l 565 381 l 565 476 q 510 615 565 560 q 368 669 454 669 q 203 604 260 669 q 235 607 222 607 q 335 569 296 607 q 375 472 375 532 q 334 378 375 415 q 231 340 293 340 q 127 378 168 340 q 86 475 86 415 q 122 610 86 550 q 223 703 158 669 q 368 738 288 738 q 504 703 444 738 q 604 607 564 668 q 833 738 688 738 q 958 706 903 738 q 1045 620 1014 675 q 1076 497 1076 565 q 701 208 1076 258 l 451 175 q 158 -44 161 136 q 203 -169 158 -121 q 326 -218 249 -218 q 444 -181 388 -218 q 586 -67 501 -143 q 689 21 649 -11 q 777 75 729 53 q 875 97 825 97 m 235 544 q 181 526 203 544 q 157 479 158 508 l 157 472 q 178 422 157 442 q 232 403 200 403 q 283 422 263 403 q 306 471 304 442 q 285 524 306 503 q 235 544 265 544 z "},"க":{"ha":1022,"x_min":63,"x_max":974,"o":"m 704 407 q 901 348 829 407 q 974 194 974 289 q 939 81 974 131 q 840 3 904 32 q 688 -25 775 -25 l 688 38 q 837 81 783 38 q 890 194 890 125 q 842 303 890 263 q 706 344 793 344 l 643 344 l 643 285 q 560 58 643 140 q 329 -25 476 -25 q 191 3 251 -25 q 97 79 131 31 q 63 189 63 128 q 106 319 63 265 q 229 394 150 374 l 229 713 l 878 713 l 885 650 l 643 650 l 643 407 l 704 407 m 325 407 l 565 407 l 565 650 l 307 650 l 307 407 l 325 407 m 328 344 q 192 301 240 344 q 144 188 144 257 q 196 84 144 125 q 329 43 247 43 q 503 107 442 43 q 565 285 565 171 l 565 344 l 328 344 z "},"ல":{"ha":1392,"x_min":76,"x_max":1315,"o":"m 1199 732 q 1286 526 1257 636 q 1315 326 1315 415 q 1061 -25 1315 -25 q 871 57 933 -25 q 808 292 808 139 l 808 360 q 724 588 808 506 q 494 669 640 669 q 318 627 394 669 q 200 508 242 585 q 158 333 158 432 q 181 204 158 263 q 249 106 204 146 q 228 196 228 146 q 257 310 228 260 q 338 390 286 361 q 453 418 389 418 q 573 390 519 418 q 657 310 626 361 q 688 196 688 260 q 657 83 688 133 q 573 3 626 32 q 453 -25 519 -25 q 249 22 335 -25 q 120 149 164 68 q 76 333 76 231 q 128 543 76 451 q 275 686 181 635 q 494 738 369 738 q 701 692 613 738 q 838 561 790 646 q 886 360 886 476 l 886 292 q 928 106 886 169 q 1061 43 971 43 q 1236 324 1236 43 q 1207 524 1236 413 q 1122 713 1178 635 l 1199 732 m 296 196 q 340 83 296 128 q 453 38 385 38 q 567 82 522 38 q 613 196 613 126 q 567 310 613 265 q 453 356 522 356 q 340 310 385 356 q 296 196 296 265 z "},"ள":{"ha":1671,"x_min":76,"x_max":1657,"o":"m 1389 650 l 1389 0 l 1311 0 l 1311 650 l 946 650 l 946 0 l 868 0 l 868 317 q 822 499 868 418 q 695 624 775 579 q 519 669 615 669 q 328 626 410 669 q 202 505 246 582 q 158 329 158 428 q 251 101 158 181 q 228 196 228 144 q 257 310 228 260 q 338 390 286 361 q 453 418 389 418 q 573 390 519 418 q 657 310 626 361 q 688 196 688 260 q 657 83 688 133 q 573 3 626 32 q 453 -25 519 -25 q 249 20 333 -25 q 120 145 164 65 q 76 329 76 225 q 131 540 76 447 q 285 685 185 633 q 519 738 386 738 q 721 686 628 738 q 868 544 814 635 l 868 713 l 1651 713 l 1657 650 l 1389 650 m 296 196 q 340 83 296 128 q 453 38 385 38 q 567 82 522 38 q 613 196 613 126 q 567 310 613 265 q 453 356 522 356 q 340 310 385 356 q 296 196 296 265 z "},"ழ":{"ha":1122,"x_min":132,"x_max":1046,"o":"m 599 -62 q 618 -148 599 -121 q 681 -175 638 -175 l 926 -175 l 932 -237 l 679 -237 q 579 -369 654 -319 q 415 -419 504 -419 q 244 -360 308 -419 q 179 -207 179 -300 l 257 -207 q 299 -311 257 -271 q 415 -351 342 -351 q 526 -322 476 -351 q 603 -226 576 -292 q 537 -165 553 -204 q 521 -60 521 -125 l 521 0 l 132 0 l 132 713 l 208 719 l 208 63 l 521 63 l 521 485 q 584 672 521 607 q 750 738 647 738 q 910 685 843 738 q 1011 538 976 632 q 1046 321 1046 443 q 973 88 1046 176 q 767 0 900 0 l 599 0 l 599 -62 m 767 63 q 913 133 863 63 q 964 321 964 204 q 908 573 964 476 q 756 669 853 669 q 642 623 685 669 q 599 488 599 576 l 599 63 l 767 63 z "},"ம":{"ha":1122,"x_min":132,"x_max":1046,"o":"m 750 738 q 910 685 843 738 q 1011 538 976 632 q 1046 321 1046 443 q 973 88 1046 176 q 767 0 900 0 l 132 0 l 132 713 l 208 719 l 208 63 l 521 63 l 521 485 q 584 672 521 607 q 750 738 647 738 m 767 63 q 913 133 863 63 q 964 321 964 204 q 908 573 964 476 q 756 669 853 669 q 642 623 685 669 q 599 488 599 576 l 599 63 l 767 63 z "},"ந":{"ha":1036,"x_min":132,"x_max":960,"o":"m 722 494 q 899 409 839 494 q 960 182 960 324 q 915 -31 960 63 q 783 -176 869 -124 q 575 -228 696 -228 l 425 -228 q 286 -258 346 -228 q 194 -337 226 -287 l 132 -304 q 238 -204 168 -243 q 406 -165 308 -165 l 575 -165 q 799 -70 721 -165 q 878 182 878 25 q 839 361 878 294 q 719 428 800 428 q 599 373 647 428 q 551 235 551 318 l 551 0 l 474 0 l 474 650 l 208 650 l 208 0 l 132 0 l 132 713 l 814 713 l 819 650 l 551 650 l 551 414 q 625 474 582 453 q 722 494 668 494 z "},"ங":{"ha":1325,"x_min":132,"x_max":1193,"o":"m 1193 0 l 474 0 l 474 63 l 654 63 q 818 120 758 63 q 878 271 878 178 q 838 394 878 347 q 725 440 799 440 q 600 385 649 440 q 551 247 551 331 l 551 210 l 474 210 l 474 650 l 208 650 l 208 0 l 132 0 l 132 713 l 814 713 l 819 650 l 551 650 l 551 425 q 630 485 585 464 q 729 507 675 507 q 898 442 836 507 q 960 271 960 376 q 932 151 960 206 q 853 63 904 97 l 1115 63 l 1115 713 l 1193 713 l 1193 0 z "},"ண":{"ha":2328,"x_min":76,"x_max":2314,"o":"m 2044 650 l 2044 0 l 1967 0 l 1967 650 l 1822 650 q 1600 599 1699 650 q 1703 438 1667 531 q 1739 238 1739 346 q 1681 47 1739 119 q 1525 -25 1624 -25 q 1368 47 1426 -25 q 1310 238 1310 119 q 1356 442 1310 347 q 1483 601 1401 536 q 1258 669 1385 669 q 1029 604 1125 669 q 1160 441 1114 536 q 1207 238 1207 346 q 1149 47 1207 119 q 992 -25 1090 -25 q 835 48 894 -25 q 776 238 776 121 q 813 435 776 342 q 915 599 849 529 q 619 669 790 669 q 377 624 482 669 q 215 498 272 578 q 158 317 158 418 q 183 193 158 249 q 253 100 207 138 q 228 196 228 142 q 257 310 228 260 q 338 390 286 361 q 453 418 389 418 q 573 390 519 418 q 657 310 626 361 q 688 196 688 260 q 657 83 688 133 q 573 3 626 32 q 453 -25 519 -25 q 249 19 335 -25 q 120 142 164 64 q 76 317 76 219 q 144 533 76 438 q 335 683 211 629 q 619 738 458 738 q 969 646 819 738 q 1258 738 1093 738 q 1549 644 1425 738 q 1822 713 1672 713 l 2307 713 l 2314 650 l 2044 650 m 1125 238 q 1086 418 1125 336 q 975 558 1047 500 q 889 417 918 500 q 860 238 860 333 q 896 98 860 153 q 992 43 932 43 q 1090 97 1054 43 q 1125 238 1125 151 m 1657 238 q 1625 415 1657 333 q 1536 557 1593 497 q 1429 418 1467 500 q 1392 238 1392 336 q 1428 98 1392 153 q 1525 43 1464 43 q 1622 97 1586 43 q 1657 238 1657 151 m 296 196 q 340 83 296 128 q 453 38 385 38 q 567 82 522 38 q 613 196 613 126 q 567 310 613 265 q 453 356 522 356 q 340 310 385 356 q 296 196 296 265 z "},"ன":{"ha":1794,"x_min":76,"x_max":1781,"o":"m 1513 650 l 1513 0 l 1435 0 l 1435 650 l 1289 650 q 1047 588 1150 650 q 1165 431 1124 521 q 1207 238 1207 340 q 1149 47 1207 119 q 992 -25 1090 -25 q 835 48 894 -25 q 776 238 776 121 q 817 432 776 342 q 933 588 858 522 q 619 669 800 669 q 377 624 482 669 q 215 498 272 578 q 158 317 158 418 q 183 193 158 249 q 253 100 207 138 q 228 196 228 142 q 257 310 228 260 q 338 390 286 361 q 453 418 389 418 q 573 390 519 418 q 657 310 626 361 q 688 196 688 260 q 657 83 688 133 q 573 3 626 32 q 453 -25 519 -25 q 249 19 335 -25 q 120 142 164 64 q 76 317 76 219 q 144 533 76 438 q 335 683 211 629 q 619 738 458 738 q 822 710 728 738 q 992 631 917 682 q 1289 713 1119 713 l 1775 713 l 1781 650 l 1513 650 m 1125 238 q 1090 409 1125 331 q 990 546 1056 488 q 894 410 928 489 q 860 238 860 331 q 896 98 860 153 q 992 43 932 43 q 1090 97 1054 43 q 1125 238 1125 151 m 296 196 q 340 83 296 128 q 453 38 385 38 q 567 82 522 38 q 613 196 613 126 q 567 310 613 265 q 453 356 522 356 q 340 310 385 356 q 296 196 296 265 z "},"ஞ":{"ha":1678,"x_min":104,"x_max":1601,"o":"m 1364 494 q 1540 409 1479 494 q 1601 182 1601 324 q 1511 -111 1601 10 q 1258 -294 1421 -232 q 882 -356 1096 -356 q 473 -287 649 -356 q 201 -85 297 -218 q 104 236 104 49 q 161 506 104 368 q 306 726 218 644 l 385 713 q 242 508 299 643 q 186 233 186 372 q 272 -51 186 67 q 515 -228 358 -168 q 882 -287 672 -287 q 1215 -234 1072 -287 q 1438 -75 1358 -181 q 1518 182 1518 31 q 1480 361 1518 294 q 1360 428 1442 428 q 1240 373 1288 428 q 1192 235 1192 318 l 1192 0 l 1115 0 l 1115 650 l 856 650 q 575 563 668 650 q 482 329 482 476 q 506 198 482 257 q 576 100 531 139 q 553 196 553 143 q 582 310 553 260 q 663 390 611 361 q 778 418 714 418 q 898 390 844 418 q 981 310 951 361 q 1011 196 1011 260 q 981 83 1011 133 q 898 3 951 32 q 778 -25 844 -25 q 573 20 658 -25 q 444 145 488 65 q 400 329 400 225 q 513 608 400 503 q 843 713 625 713 l 1454 713 l 1461 650 l 1192 650 l 1192 414 q 1364 494 1257 494 m 619 196 q 665 83 619 128 q 778 38 710 38 q 892 83 847 38 q 936 196 936 128 q 892 310 936 265 q 778 356 847 356 q 664 310 708 356 q 619 196 619 265 z "},"ஒ":{"ha":1122,"x_min":76,"x_max":1046,"o":"m 744 185 q 789 58 744 101 q 918 14 833 14 l 1006 14 l 1006 -49 l 918 -49 q 832 -39 869 -49 l 832 -69 q 798 -190 832 -136 q 703 -274 764 -243 q 567 -304 643 -304 q 430 -274 490 -304 q 335 -190 369 -243 q 301 -69 301 -136 l 301 0 l 379 0 l 379 -69 q 432 -189 379 -142 q 567 -236 485 -236 q 702 -189 649 -236 q 756 -69 756 -142 l 756 -4 q 694 73 715 25 q 672 185 672 121 l 672 374 l 744 374 q 778 281 746 318 q 860 243 810 243 q 937 284 910 243 q 964 392 964 325 q 911 537 964 472 q 767 638 858 601 q 561 674 675 674 q 351 635 444 674 q 206 528 258 596 q 154 374 154 460 l 154 372 q 212 445 171 418 q 308 472 253 472 q 436 426 386 472 q 486 308 486 381 q 435 188 486 235 q 306 142 385 142 q 190 172 243 142 q 107 255 138 201 q 76 374 76 308 q 139 563 76 479 q 312 694 201 647 q 561 742 422 742 q 810 697 700 742 q 983 572 921 651 q 1046 392 1046 492 q 996 235 1046 296 q 860 175 946 175 q 744 218 792 175 l 744 185 m 307 411 q 231 383 261 411 q 201 308 201 354 q 230 235 201 264 q 304 204 258 206 l 304 204 l 306 204 q 380 233 350 204 q 411 308 410 263 q 382 383 411 354 q 307 411 353 411 z "},"ௐ":{"ha":1122,"x_min":76,"x_max":1046,"o":"m 744 185 q 789 58 744 101 q 918 14 833 14 l 1006 14 l 1006 -49 l 918 -49 q 832 -39 869 -49 l 832 -69 q 798 -190 832 -136 q 703 -274 764 -243 q 567 -304 643 -304 q 430 -274 490 -304 q 335 -190 369 -243 q 301 -69 301 -136 l 301 0 l 379 0 l 379 -69 q 432 -189 379 -142 q 567 -236 485 -236 q 702 -189 649 -236 q 756 -69 756 -142 l 756 -4 q 694 73 715 25 q 672 185 672 121 l 672 374 l 744 374 q 778 281 746 318 q 860 243 810 243 q 937 284 910 243 q 964 392 964 325 q 911 537 964 472 q 767 638 858 601 q 561 674 675 674 q 351 635 444 674 q 206 528 258 596 q 154 374 154 460 l 154 372 q 212 445 171 418 q 308 472 253 472 q 436 426 386 472 q 486 308 486 381 q 435 188 486 235 q 306 142 385 142 q 190 172 243 142 q 107 255 138 201 q 76 374 76 308 q 139 563 76 479 q 312 694 201 647 q 561 742 422 742 q 810 697 700 742 q 983 572 921 651 q 1046 392 1046 492 q 996 235 1046 296 q 860 175 946 175 q 744 218 792 175 l 744 185 m 307 411 q 231 383 261 411 q 201 308 201 354 q 230 235 201 264 q 304 204 258 206 l 304 204 l 306 204 q 380 233 350 204 q 411 308 410 263 q 382 383 411 354 q 307 411 353 411 m 561 44 q 545 51 551 44 q 539 67 539 57 q 545 83 539 76 q 561 90 551 90 q 578 83 571 90 q 585 67 585 76 q 578 51 585 57 q 561 44 571 44 m 500 -100 l 544 -100 l 544 -43 q 559 3 544 -15 q 601 21 574 21 q 653 -1 635 21 q 672 -57 672 -22 q 653 -111 672 -90 q 599 -132 633 -132 l 465 -132 l 465 15 l 500 17 l 500 -100 m 601 -100 q 626 -88 617 -100 q 636 -57 636 -76 q 628 -23 636 -36 q 606 -10 621 -10 q 579 -44 579 -10 l 579 -100 l 601 -100 z "},"ஓ":{"ha":1122,"x_min":76,"x_max":1046,"o":"m 744 185 q 789 58 744 101 q 918 14 833 14 l 1006 14 l 1006 -49 l 918 -49 q 832 -39 869 -49 l 832 -69 q 796 -190 832 -136 q 697 -274 760 -243 q 554 -304 633 -304 q 415 -281 476 -304 q 318 -215 353 -257 q 283 -121 283 -174 q 334 -3 283 -50 q 463 43 385 43 l 490 43 l 490 -19 l 463 -19 q 392 -48 419 -19 q 365 -121 365 -76 q 419 -203 365 -171 q 554 -236 472 -236 q 699 -189 642 -236 q 756 -69 756 -142 l 756 -4 q 672 185 672 58 l 672 374 l 744 374 q 778 281 746 318 q 860 243 810 243 q 937 284 910 243 q 964 392 964 325 q 911 537 964 472 q 767 638 858 601 q 561 674 675 674 q 351 635 444 674 q 206 528 258 596 q 154 374 154 460 l 154 372 q 212 445 171 418 q 308 472 253 472 q 436 426 386 472 q 486 308 486 381 q 435 188 486 235 q 306 142 385 142 q 190 172 243 142 q 107 255 138 201 q 76 374 76 308 q 139 563 76 479 q 312 694 201 647 q 561 742 422 742 q 810 697 700 742 q 983 572 921 651 q 1046 392 1046 492 q 996 235 1046 296 q 860 175 946 175 q 744 218 792 175 l 744 185 m 307 411 q 231 383 261 411 q 201 308 201 354 q 230 235 201 264 q 304 204 258 206 l 304 204 l 306 204 q 380 233 350 204 q 411 308 410 263 q 382 383 411 354 q 307 411 353 411 z "},"ப":{"ha":982,"x_min":132,"x_max":850,"o":"m 132 0 l 132 713 l 208 719 l 208 63 l 772 63 l 772 713 l 850 713 l 850 0 l 132 0 z "},"ர":{"ha":933,"x_min":132,"x_max":919,"o":"m 651 36 q 644 -55 651 -22 q 618 -112 638 -87 q 557 -160 599 -136 l 225 -347 l 190 -286 l 503 -110 q 560 -53 546 -85 q 574 46 574 -22 l 574 650 l 208 650 l 208 0 l 132 0 l 132 713 l 914 713 l 919 650 l 651 650 l 651 36 z "},"ற":{"ha":1114,"x_min":118,"x_max":1038,"o":"m 754 738 q 967 624 896 738 q 1038 321 1038 511 q 983 37 1038 161 q 823 -158 928 -87 q 574 -228 718 -228 l 411 -228 q 272 -258 332 -228 q 181 -337 213 -287 l 118 -304 q 224 -204 154 -243 q 392 -165 294 -165 l 574 -165 q 781 -103 694 -165 q 911 69 867 -42 q 956 321 956 179 q 758 669 956 669 q 678 649 717 669 q 615 587 640 628 q 590 488 590 546 l 590 0 l 513 0 l 513 436 q 469 607 511 544 q 343 669 428 669 q 231 619 268 669 q 194 456 194 569 l 194 0 l 118 0 l 118 457 q 177 668 118 599 q 343 738 236 738 q 464 702 413 738 q 544 603 515 667 q 630 701 575 665 q 754 738 685 738 z "},"ஸ":{"ha":1790,"x_min":76,"x_max":1714,"o":"m 1596 732 q 1684 526 1654 636 q 1714 326 1714 415 q 1652 67 1714 158 q 1458 -25 1590 -25 q 1268 57 1331 -25 q 1206 292 1206 139 l 1206 469 q 1171 613 1206 560 q 1064 667 1136 667 q 932 583 978 667 q 886 360 886 499 l 886 0 l 808 0 l 808 360 q 724 588 808 506 q 494 669 640 669 q 318 627 394 669 q 200 508 242 585 q 158 333 158 432 q 181 204 158 263 q 249 106 204 146 q 228 196 228 146 q 257 310 228 260 q 338 390 286 361 q 453 418 389 418 q 573 390 519 418 q 657 310 626 361 q 688 196 688 260 q 657 83 688 133 q 573 3 626 32 q 453 -25 519 -25 q 249 22 335 -25 q 120 149 164 68 q 76 333 76 231 q 128 543 76 451 q 275 686 181 635 q 494 738 369 738 q 709 688 618 738 q 846 547 800 639 q 928 688 872 638 q 1064 738 983 738 q 1226 663 1169 738 q 1283 468 1283 589 l 1283 292 q 1326 106 1283 169 q 1458 43 1368 43 q 1592 116 1551 43 q 1633 324 1633 189 q 1604 524 1633 413 q 1519 713 1575 635 l 1596 732 m 296 196 q 340 83 296 128 q 453 38 385 38 q 567 82 522 38 q 613 196 613 126 q 567 310 613 265 q 453 356 522 356 q 340 310 385 356 q 296 196 296 265 z "},"ஶ":{"ha":1410,"x_min":118,"x_max":1333,"o":"m 1054 713 q 1260 624 1188 713 q 1333 392 1333 536 q 1299 175 1333 269 q 1197 28 1264 81 q 1038 -25 1131 -25 q 872 40 935 -25 q 808 228 808 106 l 808 650 l 594 650 l 594 256 q 530 45 594 115 q 356 -25 465 -25 q 183 45 247 -25 q 118 256 118 115 l 118 713 l 194 719 l 194 257 q 356 43 194 43 q 518 257 518 43 l 518 713 l 1054 713 m 1043 43 q 1196 140 1140 43 q 1251 392 1251 236 q 1201 579 1251 508 q 1054 650 1150 650 l 886 650 l 886 225 q 929 90 886 136 q 1043 43 972 43 z "},"ஷ":{"ha":1863,"x_min":76,"x_max":1731,"o":"m 1444 0 l 1444 -337 l 1367 -337 l 1367 0 l 746 0 l 747 63 q 826 193 797 118 q 856 354 856 268 q 812 515 856 443 q 692 628 768 588 q 519 669 615 669 q 326 626 407 669 q 201 505 244 582 q 158 329 158 428 q 251 101 158 181 q 228 196 228 144 q 257 310 228 260 q 338 390 286 361 q 453 418 389 418 q 573 390 519 418 q 657 310 626 361 q 688 196 688 260 q 657 83 688 133 q 573 3 626 32 q 453 -25 519 -25 q 249 20 333 -25 q 120 145 164 65 q 76 329 76 225 q 130 541 76 449 q 283 685 183 633 q 519 738 383 738 q 733 688 638 738 q 884 551 829 639 q 939 354 939 464 q 913 199 939 275 q 843 63 886 122 l 1367 63 l 1367 288 q 1276 276 1319 276 q 1131 306 1194 276 q 1033 390 1068 336 q 999 511 999 443 q 1061 674 999 611 q 1225 738 1124 738 q 1386 677 1328 738 q 1444 513 1444 617 l 1444 394 q 1653 650 1554 467 l 1731 650 l 1731 0 l 1444 0 m 1276 344 q 1367 358 1326 344 l 1367 506 q 1331 626 1367 583 q 1225 669 1294 669 q 1120 626 1160 669 q 1081 511 1081 582 q 1134 391 1081 438 q 1276 344 1188 344 m 1653 513 q 1444 315 1565 375 l 1444 63 l 1653 63 l 1653 513 m 296 196 q 340 83 296 128 q 453 38 385 38 q 567 82 522 38 q 613 196 613 126 q 567 310 613 265 q 453 356 522 356 q 340 310 385 356 q 296 196 296 265 z "},"த":{"ha":1036,"x_min":63,"x_max":974,"o":"m 686 407 q 839 368 774 407 q 939 260 904 329 q 974 101 974 190 q 924 -69 974 6 q 783 -186 875 -144 q 568 -228 690 -228 l 356 -228 q 217 -258 276 -228 q 125 -337 157 -287 l 63 -304 q 169 -204 99 -243 q 336 -165 239 -165 l 568 -165 q 740 -131 668 -165 q 851 -37 813 -97 q 890 101 890 24 q 836 277 890 210 q 688 344 782 344 l 643 344 l 643 285 q 560 58 643 140 q 329 -25 476 -25 q 191 3 251 -25 q 97 79 131 31 q 63 189 63 128 q 106 319 63 265 q 229 394 150 374 l 229 713 l 878 713 l 885 650 l 643 650 l 643 407 l 686 407 m 325 407 l 565 407 l 565 650 l 307 650 l 307 407 l 325 407 m 328 344 q 192 301 240 344 q 144 188 144 257 q 196 84 144 125 q 329 43 247 43 q 503 107 442 43 q 565 285 565 171 l 565 344 l 328 344 z "},"ட":{"ha":996,"x_min":132,"x_max":982,"o":"m 208 719 l 132 713 l 132 0 l 982 0 l 976 63 l 208 63 l 208 719 z "},"உ":{"ha":1363,"x_min":49,"x_max":1349,"o":"m 1349 0 l 110 0 l 110 63 l 432 63 q 594 103 522 63 q 708 215 667 143 q 749 379 749 288 q 710 528 749 461 q 602 632 672 594 q 439 669 532 669 q 290 640 357 669 q 182 554 224 610 q 272 572 219 572 q 424 517 364 572 q 483 376 483 461 q 424 233 483 289 q 272 176 364 176 q 112 234 175 176 q 49 382 49 292 q 99 565 49 483 q 238 692 149 646 q 439 738 326 738 q 644 692 556 738 q 783 564 733 646 q 832 379 832 482 q 788 192 832 275 q 663 63 744 110 l 1349 63 l 1349 0 m 272 508 q 168 473 208 508 q 128 382 128 438 q 168 282 128 321 q 272 243 208 243 q 367 281 329 243 q 406 376 406 318 q 367 471 406 433 q 272 508 329 508 z "},"ஊ":{"ha":2233,"x_min":49,"x_max":2219,"o":"m 2219 0 l 110 0 l 110 63 l 432 63 q 594 103 522 63 q 708 215 667 143 q 749 379 749 288 q 710 528 749 461 q 602 632 672 594 q 439 669 532 669 q 290 640 357 669 q 182 554 224 610 q 272 572 219 572 q 424 517 364 572 q 483 376 483 461 q 424 233 483 289 q 272 176 364 176 q 112 234 175 176 q 49 382 49 292 q 99 565 49 483 q 238 692 149 646 q 439 738 326 738 q 644 692 556 738 q 783 564 733 646 q 832 379 832 482 q 788 192 832 274 q 661 63 744 110 l 2219 63 l 2219 0 m 1258 124 q 1099 161 1169 124 q 988 265 1028 199 q 947 417 947 332 q 991 579 947 506 q 1113 695 1035 653 q 1290 738 1190 738 q 1444 706 1375 738 q 1556 615 1513 674 l 1556 713 l 2142 713 l 2149 650 l 1990 650 l 1990 149 l 1913 149 l 1913 650 l 1633 650 l 1633 149 l 1556 149 l 1556 429 q 1522 549 1556 494 q 1426 637 1488 604 q 1290 669 1365 669 q 1153 636 1214 669 q 1060 544 1093 603 q 1026 417 1026 486 q 1043 326 1026 368 q 1089 254 1060 285 q 1081 304 1081 276 q 1131 431 1081 382 q 1261 481 1182 481 q 1398 431 1344 481 q 1451 303 1451 381 q 1397 174 1451 225 q 1258 124 1343 124 m 272 508 q 168 473 208 508 q 128 382 128 438 q 168 282 128 321 q 272 243 208 243 q 367 281 329 243 q 406 376 406 318 q 367 471 406 433 q 272 508 329 508 m 1263 421 q 1178 388 1211 421 q 1144 303 1144 354 q 1178 217 1144 251 q 1263 183 1211 183 q 1349 217 1315 183 q 1382 303 1382 251 q 1348 388 1382 354 q 1263 421 1314 421 z "},"வ":{"ha":1403,"x_min":76,"x_max":1271,"o":"m 1271 0 l 746 0 l 747 63 q 826 193 797 118 q 856 354 856 268 q 812 515 856 443 q 692 628 768 588 q 519 669 615 669 q 326 626 407 669 q 201 505 244 582 q 158 329 158 428 q 251 101 158 181 q 228 196 228 144 q 257 310 228 260 q 338 390 286 361 q 453 418 389 418 q 573 390 519 418 q 657 310 626 361 q 688 196 688 260 q 657 83 688 133 q 573 3 626 32 q 453 -25 519 -25 q 249 20 333 -25 q 120 145 164 65 q 76 329 76 225 q 130 541 76 449 q 283 685 183 633 q 519 738 383 738 q 733 688 638 738 q 884 551 829 639 q 939 354 939 464 q 913 197 939 272 q 842 63 888 122 l 1193 63 l 1193 713 l 1271 713 l 1271 0 m 296 196 q 340 83 296 128 q 453 38 385 38 q 567 82 522 38 q 613 196 613 126 q 567 310 613 265 q 453 356 522 356 q 340 310 385 356 q 296 196 296 265 z "},"ஃ":{"ha":936,"x_min":76,"x_max":860,"o":"m 467 438 q 576 479 531 438 q 621 583 621 521 q 576 690 621 647 q 467 732 531 732 q 359 690 404 732 q 314 583 314 647 q 358 479 314 521 q 467 438 403 438 m 468 503 q 409 526 432 503 q 386 583 386 549 q 409 643 386 619 q 468 667 432 667 q 528 643 504 667 q 551 583 551 619 q 528 526 551 549 q 468 503 504 503 m 228 -19 q 338 23 293 -19 q 382 128 382 65 q 337 233 382 192 q 228 275 292 275 q 121 233 165 275 q 76 128 76 192 q 121 23 76 65 q 228 -19 165 -19 m 706 -19 q 815 23 769 -19 q 860 128 860 65 q 815 233 860 192 q 706 275 769 275 q 598 233 643 275 q 553 128 553 192 q 597 23 553 65 q 706 -19 642 -19 m 229 46 q 171 69 194 46 q 147 128 147 93 q 171 187 147 164 q 229 210 194 210 q 289 186 265 210 q 313 128 313 163 q 289 69 313 93 q 229 46 265 46 m 707 46 q 649 69 672 46 q 625 128 625 93 q 649 187 625 164 q 707 210 672 210 q 766 187 743 210 q 789 128 789 164 q 766 69 789 93 q 707 46 743 46 z "},"ய":{"ha":1263,"x_min":118,"x_max":1131,"o":"m 1131 0 l 536 0 l 536 72 q 460 1 506 26 q 356 -25 414 -25 q 183 45 247 -25 q 118 256 118 115 l 118 713 l 194 719 l 194 257 q 356 43 194 43 q 490 107 444 43 q 536 276 536 171 l 536 713 l 614 713 l 614 63 l 1053 63 l 1053 713 l 1131 713 l 1131 0 z "},"௮":{"ha":1468,"x_min":49,"x_max":1336,"o":"m 1336 -175 l 1258 -175 l 1258 111 l 1006 111 q 799 -117 942 -33 q 460 -200 656 -200 q 245 -169 339 -200 q 100 -83 151 -137 q 49 36 49 -29 q 90 137 49 100 q 208 174 131 174 l 442 174 q 346 276 381 213 q 311 421 311 340 q 353 585 311 513 q 472 697 396 657 q 647 738 549 738 q 858 684 767 738 q 998 535 949 631 q 1047 319 1047 440 q 1028 174 1047 244 l 1258 174 l 1258 713 l 1336 713 l 1336 -175 m 942 174 q 964 319 964 240 q 925 499 964 419 q 815 624 886 579 q 647 669 743 669 q 515 638 572 669 q 426 549 457 606 q 394 421 394 492 q 428 294 394 350 q 523 206 463 238 q 660 174 583 174 l 942 174 m 460 -132 q 737 -67 618 -132 q 915 111 856 -1 l 213 111 q 131 36 131 111 q 172 -44 131 -6 q 288 -108 213 -83 q 460 -132 364 -132 z "},"௫":{"ha":1706,"x_min":104,"x_max":1574,"o":"m 1496 467 q 1424 757 1496 631 q 1214 955 1353 883 q 881 1026 1075 1026 q 507 940 664 1026 q 268 699 350 853 q 186 346 186 544 q 253 10 186 153 q 451 -210 321 -132 q 765 -287 581 -287 q 1042 -231 924 -287 q 1226 -67 1161 -174 q 1290 182 1290 39 q 1252 361 1290 294 q 1132 428 1214 428 q 1012 373 1060 428 q 964 235 964 318 l 964 0 l 888 0 l 888 650 l 600 650 l 600 0 l 522 0 l 522 713 l 1226 713 l 1233 650 l 964 650 l 964 414 q 1136 494 1029 494 q 1313 409 1251 494 q 1374 182 1374 324 q 1298 -102 1374 19 q 1085 -290 1222 -224 q 765 -356 947 -356 q 408 -269 557 -356 q 182 -23 260 -182 q 104 349 104 136 q 197 735 104 565 q 465 999 289 904 q 881 1094 640 1094 q 1253 1015 1097 1094 q 1492 793 1410 935 q 1574 469 1574 651 l 1574 0 l 1496 0 l 1496 467 z "},"௪":{"ha":1114,"x_min":63,"x_max":1051,"o":"m 643 344 l 643 285 q 560 58 643 140 q 329 -25 476 -25 q 191 3 251 -25 q 97 79 131 31 q 63 189 63 128 q 106 319 63 265 q 229 394 150 374 l 229 713 l 878 713 l 885 650 l 643 650 l 643 407 l 979 407 l 979 713 l 1051 713 l 1051 344 l 643 344 m 325 407 l 565 407 l 565 650 l 307 650 l 307 407 l 325 407 m 328 344 q 192 301 240 344 q 144 188 144 257 q 196 84 144 125 q 329 43 247 43 q 503 107 442 43 q 565 285 565 171 l 565 344 l 328 344 z "},"௯":{"ha":1296,"x_min":63,"x_max":1247,"o":"m 1017 435 q 1185 369 1122 435 q 1247 201 1247 304 q 1235 99 1247 144 q 1194 -8 1222 53 l 1115 0 q 1151 101 1138 44 q 1164 201 1164 157 q 1126 323 1164 278 q 1017 368 1088 368 q 942 354 981 368 q 1016 263 989 318 q 1043 143 1043 208 q 999 22 1043 69 q 888 -25 956 -25 q 774 22 818 -25 q 731 143 731 69 q 750 253 731 201 q 804 343 769 304 q 781 344 796 344 l 643 344 l 643 285 q 560 58 643 140 q 329 -25 476 -25 q 191 3 251 -25 q 97 79 131 31 q 63 189 63 128 q 106 319 63 265 q 229 394 150 374 l 229 713 l 878 713 l 885 650 l 643 650 l 643 407 l 779 407 q 865 393 828 407 q 1017 435 933 435 m 325 407 l 565 407 l 565 650 l 307 650 l 307 407 l 325 407 m 328 344 q 192 301 240 344 q 144 188 144 257 q 196 84 144 125 q 329 43 247 43 q 503 107 442 43 q 565 285 565 171 l 565 344 l 328 344 m 961 143 q 939 242 961 197 q 879 313 917 286 q 830 240 847 283 q 813 143 813 196 q 833 73 813 100 q 888 46 854 46 q 940 73 919 46 q 961 143 961 100 z "},"௧":{"ha":1022,"x_min":63,"x_max":974,"o":"m 704 407 q 901 348 829 407 q 974 194 974 289 q 939 81 974 131 q 840 3 904 32 q 688 -25 775 -25 l 688 38 q 837 81 783 38 q 890 194 890 125 q 842 303 890 263 q 706 344 793 344 l 643 344 l 643 285 q 560 58 643 140 q 329 -25 476 -25 q 191 3 251 -25 q 97 79 131 31 q 63 189 63 128 q 106 319 63 265 q 229 394 150 374 l 229 713 l 878 713 l 885 650 l 643 650 l 643 407 l 704 407 m 325 407 l 565 407 l 565 650 l 307 650 l 307 407 l 325 407 m 328 344 q 192 301 240 344 q 144 188 144 257 q 196 84 144 125 q 329 43 247 43 q 503 107 442 43 q 565 285 565 171 l 565 344 l 328 344 z "},"௭":{"ha":1031,"x_min":76,"x_max":906,"o":"m 906 0 l 828 0 l 828 650 l 532 650 q 251 563 344 650 q 158 329 158 476 q 251 101 158 181 q 228 196 228 144 q 257 310 228 260 q 338 390 286 361 q 453 418 389 418 q 573 390 519 418 q 657 310 626 361 q 688 196 688 260 q 657 83 688 133 q 573 3 626 32 q 453 -25 519 -25 q 249 20 333 -25 q 120 145 164 65 q 76 329 76 225 q 188 608 76 503 q 519 713 300 713 l 906 714 l 906 0 m 296 196 q 340 83 296 128 q 453 38 385 38 q 567 82 522 38 q 613 196 613 126 q 567 310 613 265 q 453 356 522 356 q 340 310 385 356 q 296 196 296 265 z "},"௬":{"ha":1471,"x_min":63,"x_max":1457,"o":"m 1457 0 l 1021 0 l 1021 63 q 1156 107 1106 63 q 1207 219 1207 151 q 1168 322 1207 282 q 1068 361 1129 361 q 947 315 994 361 q 900 194 900 268 l 900 0 l 824 0 l 824 194 q 776 302 824 261 q 643 344 729 343 l 643 285 q 560 58 643 140 q 329 -25 476 -25 q 191 3 251 -25 q 97 79 131 31 q 63 189 63 128 q 106 319 63 265 q 229 394 150 374 l 229 713 l 878 713 l 885 650 l 643 650 l 643 407 q 774 382 718 406 q 863 315 831 358 q 949 401 893 369 q 1072 432 1004 432 q 1228 373 1168 432 q 1289 219 1289 314 q 1270 131 1289 171 q 1214 63 1251 90 l 1457 63 l 1457 0 m 325 407 l 565 407 l 565 650 l 307 650 l 307 407 l 325 407 m 329 43 q 503 107 442 43 q 565 285 565 171 l 565 344 l 328 344 q 192 301 240 344 q 144 188 144 257 q 196 84 144 125 q 329 43 247 43 z "},"௩":{"ha":1129,"x_min":132,"x_max":1115,"o":"m 1115 0 l 474 0 l 474 63 l 654 63 q 818 120 758 63 q 878 271 878 178 q 838 394 878 347 q 725 440 799 440 q 600 385 649 440 q 551 247 551 331 l 551 210 l 474 210 l 474 650 l 208 650 l 208 0 l 132 0 l 132 713 l 814 713 l 819 650 l 551 650 l 551 425 q 630 485 585 464 q 729 507 675 507 q 898 442 836 507 q 960 271 960 376 q 932 151 960 206 q 853 63 904 97 l 1115 63 l 1115 0 z "},"௨":{"ha":1063,"x_min":49,"x_max":1049,"o":"m 1049 0 l 110 0 l 110 63 l 432 63 q 594 103 522 63 q 708 215 667 143 q 749 379 749 288 q 710 528 749 461 q 602 632 672 594 q 439 669 532 669 q 290 640 357 669 q 182 554 224 610 q 272 572 219 572 q 424 517 364 572 q 483 376 483 461 q 424 233 483 289 q 272 176 364 176 q 112 234 175 176 q 49 382 49 292 q 99 565 49 483 q 238 692 149 646 q 439 738 326 738 q 644 692 556 738 q 783 564 733 646 q 832 379 832 482 q 788 192 832 275 q 663 63 744 110 l 1049 63 l 1049 0 m 272 508 q 168 473 208 508 q 128 382 128 438 q 168 282 128 321 q 272 243 208 243 q 367 281 329 243 q 406 376 406 318 q 367 471 406 433 q 272 508 329 508 z "},"௦":{"ha":990,"x_min":76,"x_max":914,"o":"m 494 738 q 708 688 613 738 q 858 552 803 639 q 914 357 913 465 q 858 160 913 247 q 708 24 803 74 q 494 -25 613 -25 q 281 24 376 -25 q 131 160 186 74 q 76 357 76 247 q 131 552 76 465 q 281 688 186 639 q 494 738 376 738 m 494 43 q 667 83 590 43 q 787 195 743 124 q 831 357 831 267 q 787 518 831 447 q 667 629 743 589 q 494 669 590 669 q 322 629 399 669 q 202 518 246 589 q 158 357 158 447 q 202 195 158 267 q 322 83 246 124 q 494 43 399 43 z "},"௱":{"ha":1339,"x_min":118,"x_max":1325,"o":"m 1056 0 l 979 0 l 979 650 l 614 650 l 614 0 l 536 0 l 536 436 q 490 606 536 542 q 356 669 444 669 q 194 456 194 669 l 194 0 l 118 0 l 118 457 q 183 667 118 597 q 356 738 247 738 q 460 712 414 738 q 536 640 506 686 l 536 713 l 1318 713 l 1325 650 l 1056 650 l 1056 0 z "},"௰":{"ha":1090,"x_min":76,"x_max":1014,"o":"m 896 732 q 984 526 954 636 q 1014 326 1014 415 q 952 67 1014 158 q 758 -25 890 -25 q 544 97 607 -25 q 331 -25 482 -25 q 76 326 76 -25 q 106 526 76 415 q 193 732 135 636 l 269 713 q 185 524 214 635 q 156 324 156 413 q 331 43 156 43 q 463 106 421 43 q 506 292 506 169 l 506 469 l 583 469 l 583 292 q 758 43 583 43 q 892 116 851 43 q 933 324 933 189 q 904 524 933 413 q 819 713 875 635 l 896 732 z "},"௲":{"ha":1497,"x_min":63,"x_max":1449,"o":"m 1203 188 q 1329 156 1274 188 q 1417 67 1385 124 q 1449 -60 1449 10 q 1410 -198 1449 -139 q 1303 -290 1372 -257 q 1146 -322 1235 -322 l 932 -322 q 816 -340 854 -322 q 751 -396 778 -357 l 693 -354 q 783 -284 717 -308 q 940 -260 849 -260 l 1146 -260 q 1306 -203 1246 -260 q 1365 -58 1365 -147 q 1320 72 1365 18 q 1204 125 1275 125 l 1183 125 l 1183 93 q 1149 -35 1183 19 q 1057 -120 1115 -90 q 928 -150 999 -150 q 756 -101 818 -150 q 693 26 693 -53 q 750 143 693 99 q 910 188 807 188 l 1106 188 l 1106 344 l 643 344 l 643 285 q 560 58 643 140 q 329 -25 476 -25 q 191 3 251 -25 q 97 79 131 31 q 63 189 63 128 q 106 319 63 265 q 229 394 150 374 l 229 713 l 878 713 l 885 650 l 643 650 l 643 407 l 1388 407 l 1393 344 l 1183 344 l 1183 188 l 1203 188 m 325 407 l 565 407 l 565 650 l 307 650 l 307 407 l 325 407 m 328 344 q 192 301 240 344 q 144 188 144 257 q 196 84 144 125 q 329 43 247 43 q 503 107 442 43 q 565 285 565 171 l 565 344 l 328 344 m 913 125 q 810 97 844 125 q 775 25 775 69 q 815 -53 775 -24 q 928 -82 854 -82 q 1053 -33 1001 -82 q 1106 93 1106 17 l 1106 125 l 913 125 z "},"௹":{"ha":1478,"x_min":104,"x_max":1401,"o":"m 1164 494 q 1340 409 1279 494 q 1401 182 1401 324 q 1326 -111 1401 10 q 1112 -294 1250 -232 q 789 -356 974 -356 q 280 -162 456 -356 q 104 388 104 32 q 197 815 104 625 q 453 1113 289 1006 q 824 1219 617 1219 q 1083 1180 969 1219 q 1258 1078 1196 1140 q 1319 953 1319 1017 q 1282 855 1319 893 q 1188 817 1244 817 q 1087 853 1126 817 q 1047 946 1047 890 q 1079 1030 1047 996 q 1164 1071 1111 1064 q 1014 1126 1103 1106 q 824 1147 925 1147 q 495 1050 640 1147 q 268 779 350 953 q 186 385 186 606 q 339 -115 186 58 q 789 -287 492 -287 q 1176 -168 1035 -287 q 1318 182 1318 -49 q 1280 361 1318 294 q 1160 428 1242 428 q 1040 373 1088 428 q 992 235 992 318 l 992 0 l 915 0 l 915 650 l 600 650 l 600 0 l 522 0 l 522 713 l 1254 713 l 1261 650 l 992 650 l 992 414 q 1065 474 1021 453 q 1164 494 1110 494 m 1188 874 q 1238 894 1218 874 q 1258 944 1258 914 q 1238 994 1258 974 q 1188 1014 1218 1014 q 1137 994 1157 1014 q 1117 944 1117 974 q 1137 894 1117 914 q 1188 874 1157 874 z "},"௺":{"ha":1360,"x_min":132,"x_max":1360,"o":"m 1360 783 l 974 783 l 974 846 q 1082 888 1042 846 q 1122 997 1122 931 q 1072 1108 1122 1064 q 946 1151 1022 1151 q 846 1136 894 1151 q 907 1042 885 1096 q 929 926 929 989 q 884 806 929 853 q 768 758 839 758 q 651 806 697 758 q 604 926 604 854 q 633 1044 604 989 q 711 1140 661 1100 q 640 1151 678 1151 q 481 1090 543 1151 q 419 933 419 1028 q 469 774 419 836 q 601 713 518 713 l 814 713 l 819 650 l 551 650 l 551 414 q 625 474 582 453 q 722 494 668 494 q 899 409 839 494 q 960 182 960 324 q 915 -31 960 63 q 783 -176 869 -124 q 575 -228 696 -228 l 425 -228 q 286 -258 346 -228 q 194 -337 226 -287 l 132 -304 q 238 -204 168 -243 q 406 -165 308 -165 l 575 -165 q 799 -70 721 -165 q 878 182 878 25 q 839 361 878 294 q 719 428 800 428 q 599 373 647 428 q 551 235 551 318 l 551 0 l 474 0 l 474 650 l 208 650 l 208 0 l 132 0 l 132 713 l 431 713 q 362 806 386 749 q 338 933 338 864 q 376 1081 338 1015 q 484 1183 415 1146 q 640 1219 553 1219 q 782 1183 718 1219 q 946 1219 858 1219 q 1078 1191 1019 1219 q 1171 1112 1138 1163 q 1204 997 1204 1061 q 1138 846 1204 904 l 1360 846 l 1360 783 m 847 926 q 829 1026 847 982 q 778 1101 811 1071 q 711 1026 735 1071 q 688 926 688 981 q 710 855 688 883 q 768 826 733 826 q 825 855 803 826 q 847 926 847 883 z "},"௴":{"ha":1639,"x_min":132,"x_max":1639,"o":"m 1639 783 l 1253 783 l 1253 846 q 1361 888 1321 846 q 1401 997 1401 931 q 1353 1109 1401 1067 q 1225 1151 1304 1151 q 1125 1136 1174 1151 q 1186 1042 1164 1096 q 1208 926 1208 989 q 1163 806 1208 853 q 1047 758 1118 758 q 930 806 976 758 q 883 926 883 854 q 912 1044 883 989 q 990 1140 940 1100 q 919 1151 957 1151 q 760 1090 822 1151 q 699 933 699 1028 q 725 811 699 864 q 799 733 751 758 q 981 601 917 713 q 1046 321 1046 490 q 973 88 1046 176 q 767 0 900 0 l 132 0 l 132 713 l 208 719 l 208 63 l 521 63 l 521 485 q 566 651 521 588 q 689 731 611 714 q 617 933 617 807 q 656 1081 617 1015 q 763 1183 694 1146 q 919 1219 832 1219 q 1061 1183 997 1219 q 1225 1219 1138 1219 q 1358 1191 1299 1219 q 1450 1112 1417 1163 q 1483 997 1483 1061 q 1467 913 1483 951 q 1418 846 1450 874 l 1639 846 l 1639 783 m 1126 926 q 1108 1026 1126 981 q 1057 1101 1090 1071 q 990 1026 1014 1071 q 967 926 967 981 q 990 855 967 883 q 1047 826 1013 826 q 1104 855 1082 826 q 1126 926 1126 883 m 964 321 q 908 573 964 476 q 756 669 853 669 q 642 623 685 669 q 599 488 599 576 l 599 63 l 767 63 q 913 133 863 63 q 964 321 964 204 z "},"௸":{"ha":2524,"x_min":76,"x_max":2392,"o":"m 2106 0 l 2106 -337 l 2028 -337 l 2028 0 l 1426 0 l 1426 63 q 1483 222 1464 136 q 1503 376 1503 307 q 1433 589 1503 508 q 1233 669 1364 669 q 1028 604 1119 669 q 1160 442 1114 536 q 1207 238 1207 347 q 1149 47 1207 119 q 992 -25 1090 -25 q 835 48 894 -25 q 776 238 776 121 q 813 436 776 343 q 915 599 850 529 q 619 669 790 669 q 377 624 482 669 q 215 498 272 578 q 158 317 158 418 q 183 193 158 249 q 253 100 207 138 q 228 196 228 142 q 257 310 228 260 q 338 390 286 361 q 453 418 389 418 q 573 390 519 418 q 657 310 626 361 q 688 196 688 260 q 657 83 688 133 q 573 3 626 32 q 453 -25 519 -25 q 249 19 335 -25 q 120 142 164 64 q 76 317 76 219 q 144 533 76 438 q 335 683 211 629 q 619 738 458 738 q 968 646 818 738 q 1092 714 1024 690 q 1233 738 1160 738 q 1424 691 1344 738 q 1543 563 1503 644 q 1583 374 1583 481 q 1510 63 1583 221 l 2028 63 l 2028 288 q 1938 276 1981 276 q 1792 306 1856 276 q 1694 390 1729 336 q 1660 511 1660 443 q 1722 674 1660 611 q 1886 738 1785 738 q 2047 677 1989 738 q 2106 513 2106 617 l 2106 394 q 2314 650 2215 467 l 2392 650 l 2392 0 l 2106 0 m 1938 344 q 2028 358 1988 344 l 2028 506 q 1992 626 2028 583 q 1886 669 1956 669 q 1781 626 1821 669 q 1742 511 1742 582 q 1795 391 1742 438 q 1938 344 1849 344 m 1125 238 q 1086 418 1125 336 q 975 558 1047 500 q 890 417 919 499 q 860 238 860 335 q 896 98 860 153 q 992 43 932 43 q 1090 97 1054 43 q 1125 238 1125 151 m 2314 513 q 2106 315 2226 375 l 2106 63 l 2314 63 l 2314 513 m 296 196 q 340 83 296 128 q 453 38 385 38 q 567 82 522 38 q 613 196 613 126 q 567 310 613 265 q 453 356 522 356 q 340 310 385 356 q 296 196 296 265 z "},"௳":{"ha":1207,"x_min":76,"x_max":1193,"o":"m 1193 0 l 746 0 l 747 63 q 826 193 797 118 q 856 354 856 268 q 812 515 856 443 q 692 628 768 588 q 519 669 615 669 q 326 626 407 669 q 201 505 244 582 q 158 329 158 428 q 251 101 158 181 q 228 196 228 144 q 257 310 228 260 q 338 390 286 361 q 453 418 389 418 q 573 390 519 418 q 657 310 626 361 q 688 196 688 260 q 657 83 688 133 q 573 3 626 32 q 453 -25 519 -25 q 249 20 333 -25 q 120 145 164 65 q 76 329 76 225 q 130 541 76 449 q 283 685 183 633 q 519 738 383 738 q 733 688 638 738 q 884 551 829 639 q 939 354 939 464 q 913 199 939 275 q 843 63 886 122 l 1193 63 l 1193 0 m 296 196 q 340 83 296 128 q 453 38 385 38 q 567 82 522 38 q 613 196 613 126 q 567 310 613 265 q 453 356 522 356 q 340 310 385 356 q 296 196 296 265 z "},"௶":{"ha":1333,"x_min":132,"x_max":1201,"o":"m 847 -185 q 778 -330 835 -267 q 631 -428 721 -393 q 435 -464 542 -464 q 276 -439 344 -464 q 169 -369 207 -414 q 132 -268 132 -325 q 177 -162 132 -203 q 307 -122 222 -122 l 772 -122 l 772 0 l 132 0 l 132 713 l 208 719 l 208 63 l 772 63 l 772 713 l 850 713 l 850 -122 l 1124 -122 l 1124 713 l 1201 713 l 1201 -185 l 847 -185 m 435 -396 q 588 -369 517 -396 q 706 -294 658 -342 q 768 -185 754 -246 l 307 -185 q 214 -268 214 -185 q 276 -360 214 -324 q 435 -396 339 -396 z "},"௷":{"ha":1806,"x_min":76,"x_max":1792,"o":"m 1792 0 l 1406 0 l 1406 63 q 1515 105 1475 63 q 1554 214 1554 147 q 1504 324 1554 281 q 1378 368 1454 368 q 1260 344 1314 368 q 1326 256 1303 308 q 1350 143 1350 204 q 1306 22 1350 69 q 1193 -25 1263 -25 q 1081 22 1125 -25 q 1038 143 1038 69 q 1061 250 1038 200 q 1126 340 1085 300 q 1088 344 1108 344 l 906 344 l 906 0 l 828 0 l 828 650 l 532 650 q 251 563 344 650 q 158 329 158 476 q 251 101 158 181 q 228 196 228 144 q 257 310 228 260 q 338 390 286 361 q 453 418 389 418 q 573 390 519 418 q 657 310 626 361 q 688 196 688 260 q 657 83 688 133 q 573 3 626 32 q 453 -25 519 -25 q 249 20 333 -25 q 120 145 164 65 q 76 329 76 225 q 188 608 76 503 q 519 713 300 713 l 1168 713 l 1175 650 l 906 650 l 906 407 l 1086 407 q 1190 386 1143 407 q 1378 435 1275 435 q 1511 406 1451 435 q 1604 328 1571 378 q 1638 214 1638 278 q 1620 128 1638 168 q 1571 63 1603 89 l 1792 63 l 1792 0 m 296 196 q 340 83 296 128 q 453 38 385 38 q 567 82 522 38 q 613 196 613 126 q 567 310 613 265 q 453 356 522 356 q 340 310 385 356 q 296 196 296 265 m 1267 143 q 1247 235 1267 193 q 1194 306 1228 278 q 1140 233 1160 275 q 1119 143 1119 192 q 1140 73 1119 100 q 1193 46 1161 46 q 1247 73 1226 46 q 1267 143 1267 100 z "},"௵":{"ha":2385,"x_min":104,"x_max":2308,"o":"m 2071 494 q 2247 409 2186 494 q 2308 182 2308 324 q 2219 -108 2308 10 q 1967 -283 2129 -225 q 1590 -342 1806 -342 l 882 -342 q 471 -267 647 -342 q 199 -62 294 -193 q 104 236 104 69 q 161 506 104 368 q 306 726 218 644 l 385 713 q 242 508 299 643 q 186 233 186 372 q 271 -32 186 85 q 513 -214 356 -149 q 882 -279 669 -279 l 1590 -279 q 1924 -232 1781 -283 q 2147 -76 2067 -181 q 2226 182 2226 29 q 2188 361 2226 294 q 2067 428 2149 428 q 1947 373 1994 428 q 1900 235 1900 318 l 1900 0 l 1822 0 l 1822 650 l 1544 650 l 1544 0 l 1069 0 l 1071 63 q 1150 193 1121 118 q 1179 354 1179 268 q 1136 515 1179 443 q 1016 628 1093 588 q 843 669 939 669 q 650 626 732 669 q 525 505 568 582 q 482 329 482 428 q 506 198 482 257 q 576 100 531 139 q 553 196 553 143 q 582 310 553 260 q 663 390 611 361 q 778 418 714 418 q 898 390 844 418 q 981 310 951 361 q 1011 196 1011 260 q 981 83 1011 133 q 898 3 951 32 q 778 -25 844 -25 q 573 20 658 -25 q 444 145 488 65 q 400 329 400 225 q 453 541 400 449 q 607 685 507 633 q 843 738 707 738 q 1057 688 961 738 q 1208 551 1153 639 q 1263 354 1263 464 q 1237 198 1263 274 q 1167 63 1211 122 l 1467 63 l 1467 713 l 2163 713 l 2168 650 l 1900 650 l 1900 414 q 1974 474 1931 453 q 2071 494 2017 494 m 619 196 q 665 83 619 128 q 778 38 710 38 q 892 83 847 38 q 936 196 936 128 q 892 310 936 265 q 778 356 847 356 q 664 310 708 356 q 619 196 619 265 z "},"ௗ":{"ha":1671,"x_min":76,"x_max":1657,"o":"m 1389 650 l 1389 0 l 1311 0 l 1311 650 l 946 650 l 946 0 l 868 0 l 868 317 q 822 499 868 418 q 695 624 775 579 q 519 669 615 669 q 328 626 410 669 q 202 505 246 582 q 158 329 158 428 q 251 101 158 181 q 228 196 228 144 q 257 310 228 260 q 338 390 286 361 q 453 418 389 418 q 573 390 519 418 q 657 310 626 361 q 688 196 688 260 q 657 83 688 133 q 573 3 626 32 q 453 -25 519 -25 q 249 20 333 -25 q 120 145 164 65 q 76 329 76 225 q 131 540 76 447 q 285 685 185 633 q 519 738 386 738 q 721 686 628 738 q 868 544 814 635 l 868 713 l 1651 713 l 1657 650 l 1389 650 m 296 196 q 340 83 296 128 q 453 38 385 38 q 567 82 522 38 q 613 196 613 126 q 567 310 613 265 q 453 356 522 356 q 340 310 385 356 q 296 196 296 265 z "},"ா":{"ha":906,"x_min":132,"x_max":892,"o":"m 546 0 l 546 650 l 208 650 l 208 0 l 132 0 l 132 713 l 886 713 l 892 650 l 624 650 l 624 0 l 546 0 z "},"ை":{"ha":1660,"x_min":76,"x_max":1583,"o":"m 1233 738 q 1424 691 1344 738 q 1543 563 1503 644 q 1583 374 1583 481 q 1554 182 1583 286 q 1465 -19 1525 78 l 1389 0 q 1474 184 1444 79 q 1503 376 1503 289 q 1433 589 1503 508 q 1233 669 1364 669 q 1028 604 1119 669 q 1160 442 1114 536 q 1207 238 1207 347 q 1149 47 1207 119 q 992 -25 1090 -25 q 835 48 894 -25 q 776 238 776 121 q 813 436 776 343 q 915 599 850 529 q 619 669 790 669 q 377 624 482 669 q 215 498 272 578 q 158 317 158 418 q 183 193 158 249 q 253 100 207 138 q 228 196 228 142 q 257 310 228 260 q 338 390 286 361 q 453 418 389 418 q 573 390 519 418 q 657 310 626 361 q 688 196 688 260 q 657 83 688 133 q 573 3 626 32 q 453 -25 519 -25 q 249 19 335 -25 q 120 142 164 64 q 76 317 76 219 q 144 533 76 438 q 335 683 211 629 q 619 738 458 738 q 968 646 818 738 q 1092 714 1024 690 q 1233 738 1160 738 m 1125 238 q 1086 418 1125 336 q 975 558 1047 500 q 890 417 919 499 q 860 238 860 335 q 896 98 860 153 q 992 43 932 43 q 1090 97 1054 43 q 1125 238 1125 151 m 296 196 q 340 83 296 128 q 453 38 385 38 q 567 82 522 38 q 613 196 613 126 q 567 310 613 265 q 453 356 522 356 q 340 310 385 356 q 296 196 296 265 z "},"ௌ":{"ha":3490,"x_min":83,"x_max":3476,"o":"m 526 938 q 835 817 726 938 q 943 479 943 697 l 943 0 l 865 0 l 865 479 q 778 769 865 668 q 526 869 692 869 q 333 815 415 869 q 208 663 251 760 q 165 442 165 565 q 184 292 165 361 q 236 169 203 222 q 235 196 235 178 q 264 310 235 260 q 344 390 293 361 q 460 418 396 418 q 580 390 526 418 q 664 310 633 361 q 694 196 694 260 q 664 83 694 133 q 580 3 633 32 q 460 -25 526 -25 q 266 35 351 -25 q 132 202 181 96 q 83 442 83 308 q 137 699 83 586 q 291 874 190 811 q 526 938 392 938 m 460 356 q 347 310 392 356 q 303 196 303 265 q 347 83 303 128 q 460 38 392 38 q 574 82 529 38 q 619 196 619 126 q 574 310 619 265 q 460 356 529 356 m 3208 650 l 3208 0 l 3131 0 l 3131 650 l 2765 650 l 2765 0 l 2688 0 l 2688 317 q 2641 499 2688 418 q 2515 624 2594 579 q 2339 669 2435 669 q 2147 626 2229 669 q 2022 505 2065 582 q 1978 329 1978 428 q 2071 101 1978 181 q 2047 196 2047 144 q 2076 310 2047 260 q 2157 390 2106 361 q 2272 418 2208 418 q 2392 390 2339 418 q 2476 310 2446 361 q 2507 196 2507 260 q 2476 83 2507 133 q 2392 3 2446 32 q 2272 -25 2339 -25 q 2068 20 2153 -25 q 1940 145 1983 65 q 1896 329 1896 225 q 1950 540 1896 447 q 2105 685 2004 633 q 2339 738 2206 738 q 2540 686 2447 738 q 2688 544 2633 635 l 2688 713 l 3471 713 l 3476 650 l 3208 650 m 2115 196 q 2160 83 2115 128 q 2272 38 2204 38 q 2387 82 2342 38 q 2432 196 2432 126 q 2387 310 2432 265 q 2272 356 2342 356 q 2160 310 2204 356 q 2115 196 2115 265 m 1433 638 q 1463 649 1451 638 q 1474 678 1474 660 q 1463 708 1474 696 q 1433 719 1451 719 q 1404 708 1415 719 q 1393 678 1393 696 q 1404 649 1393 660 q 1433 638 1415 638 m 1310 697 q 1281 686 1292 697 q 1269 657 1269 675 q 1281 628 1269 639 q 1310 617 1292 617 q 1339 628 1328 617 q 1350 657 1350 639 q 1339 686 1350 675 q 1310 697 1328 697 m 1558 617 q 1588 628 1576 617 q 1599 657 1599 639 q 1588 686 1599 675 q 1558 697 1576 697 q 1529 686 1540 697 q 1518 657 1518 675 q 1529 628 1518 639 q 1558 617 1540 617 m 1204 628 q 1174 616 1186 628 q 1163 586 1163 604 q 1174 557 1163 568 q 1204 546 1186 546 q 1233 557 1222 546 q 1244 586 1244 568 q 1233 616 1244 604 q 1204 628 1222 628 m 1664 546 q 1694 557 1682 546 q 1706 586 1706 568 q 1694 616 1706 604 q 1664 628 1682 628 q 1635 616 1646 628 q 1624 586 1624 604 q 1635 557 1624 568 q 1664 546 1646 546 m 1138 518 q 1108 506 1119 518 q 1096 476 1096 494 q 1108 447 1096 458 q 1138 436 1119 436 q 1167 447 1156 436 q 1178 476 1178 458 q 1167 506 1178 494 q 1138 518 1156 518 m 1731 436 q 1760 447 1749 436 q 1771 476 1771 458 q 1760 506 1771 494 q 1731 518 1749 518 q 1701 506 1713 518 q 1690 476 1690 494 q 1701 447 1690 458 q 1731 436 1713 436 m 1118 399 q 1088 387 1100 399 q 1076 357 1076 375 q 1088 328 1076 339 q 1118 318 1100 318 q 1147 328 1136 318 q 1158 357 1158 339 q 1147 387 1158 375 q 1118 399 1136 399 m 1750 318 q 1780 328 1768 318 q 1792 357 1792 339 q 1780 387 1792 375 q 1750 399 1768 399 q 1721 387 1732 399 q 1710 357 1710 375 q 1721 328 1710 339 q 1750 318 1732 318 m 1138 282 q 1108 271 1119 282 q 1096 242 1096 260 q 1108 213 1096 224 q 1138 201 1119 201 q 1167 213 1156 201 q 1178 242 1178 224 q 1167 271 1178 260 q 1138 282 1156 282 m 1731 201 q 1760 213 1749 201 q 1771 242 1771 224 q 1760 271 1771 260 q 1731 282 1749 282 q 1701 271 1713 282 q 1690 242 1690 260 q 1701 213 1690 224 q 1731 201 1713 201 m 1203 171 q 1173 160 1185 171 q 1161 131 1161 149 q 1173 101 1161 113 q 1203 90 1185 90 q 1232 101 1221 90 q 1243 131 1243 113 q 1232 160 1243 149 q 1203 171 1221 171 m 1665 90 q 1695 101 1683 90 q 1707 131 1707 113 q 1695 160 1707 149 q 1665 171 1683 171 q 1636 160 1647 171 q 1625 131 1625 149 q 1636 101 1625 113 q 1665 90 1647 90 m 1310 103 q 1281 91 1292 103 q 1269 61 1269 79 q 1281 32 1269 43 q 1310 21 1292 21 q 1339 32 1328 21 q 1350 61 1350 43 q 1339 91 1350 79 q 1310 103 1328 103 m 1558 21 q 1588 32 1576 21 q 1599 61 1599 43 q 1588 91 1599 79 q 1558 103 1576 103 q 1529 91 1540 103 q 1518 61 1518 79 q 1529 32 1518 43 q 1558 21 1540 21 m 1433 0 q 1463 11 1451 0 q 1474 40 1474 22 q 1463 70 1474 58 q 1433 82 1451 82 q 1404 70 1415 82 q 1393 40 1393 58 q 1404 11 1393 22 q 1433 0 1415 0 z "},"ெ":{"ha":1068,"x_min":76,"x_max":936,"o":"m 519 938 q 828 817 719 938 q 936 479 936 697 l 936 0 l 858 0 l 858 479 q 772 769 858 668 q 519 869 685 869 q 326 815 408 869 q 201 663 244 760 q 158 442 158 565 q 177 292 158 361 q 229 169 196 222 q 228 196 228 178 q 257 310 228 260 q 338 390 286 361 q 453 418 389 418 q 573 390 519 418 q 657 310 626 361 q 688 196 688 260 q 657 83 688 133 q 573 3 626 32 q 453 -25 519 -25 q 259 35 344 -25 q 125 202 174 96 q 76 442 76 308 q 130 699 76 586 q 284 874 183 811 q 519 938 385 938 m 453 356 q 340 310 385 356 q 296 196 296 265 q 340 83 296 128 q 453 38 385 38 q 567 82 522 38 q 613 196 613 126 q 567 310 613 265 q 453 356 522 356 z "},"ே":{"ha":921,"x_min":76,"x_max":844,"o":"m 650 378 q 790 324 735 378 q 844 188 844 269 q 808 79 844 128 q 703 3 771 31 q 547 -25 636 -25 q 294 38 400 -25 q 132 209 188 100 q 76 457 76 318 q 132 703 76 594 q 294 875 188 813 q 547 938 400 938 q 703 910 636 938 q 808 833 771 882 q 844 725 844 785 q 790 589 844 643 q 650 535 735 535 q 509 589 565 535 q 453 725 453 643 q 477 813 453 774 q 543 876 501 851 l 526 875 q 332 813 415 869 q 203 663 249 756 q 158 457 158 569 q 203 251 158 344 q 332 100 249 157 q 526 38 415 43 l 543 36 q 478 100 501 61 q 454 188 454 139 q 510 324 454 269 q 650 378 565 378 m 651 603 q 738 638 704 603 q 772 725 772 672 q 738 811 772 776 q 651 846 704 846 q 564 812 599 846 q 529 725 529 778 q 564 638 529 672 q 651 603 599 603 m 651 310 q 564 275 599 310 q 529 188 529 240 q 564 101 529 135 q 651 67 599 67 q 738 101 704 67 q 772 188 772 135 q 738 275 772 240 q 651 310 704 310 z "},"ி":{"ha":340,"x_min":-517,"x_max":208,"o":"m -197 1107 q 16 1055 -76 1107 q 158 910 108 1003 q 208 699 208 817 l 208 0 l 132 0 l 132 699 q 92 875 132 797 q -23 997 51 953 q -197 1040 -97 1040 q -370 993 -307 1040 q -433 871 -433 946 q -261 713 -433 713 l -168 713 l -168 663 l -261 663 q -451 719 -386 663 q -517 871 -515 776 q -478 993 -517 939 q -366 1077 -439 1047 q -197 1107 -293 1107 z "},"ொ":{"ha":2640,"x_min":76,"x_max":2611,"o":"m 519 938 q 828 817 719 938 q 936 479 936 697 l 936 0 l 858 0 l 858 479 q 772 769 858 668 q 519 869 685 869 q 326 815 408 869 q 201 663 244 760 q 158 442 158 565 q 177 292 158 361 q 229 169 196 222 q 228 196 228 178 q 257 310 228 260 q 338 390 286 361 q 453 418 389 418 q 573 390 519 418 q 657 310 626 361 q 688 196 688 260 q 657 83 688 133 q 573 3 626 32 q 453 -25 519 -25 q 259 35 344 -25 q 125 202 174 96 q 76 442 76 308 q 130 699 76 586 q 284 874 183 811 q 519 938 385 938 m 453 356 q 340 310 385 356 q 296 196 296 265 q 340 83 296 128 q 453 38 385 38 q 567 82 522 38 q 613 196 613 126 q 567 310 613 265 q 453 356 522 356 m 2265 0 l 2265 650 l 1928 650 l 1928 0 l 1851 0 l 1851 713 l 2606 713 l 2611 650 l 2343 650 l 2343 0 l 2265 0 m 1394 638 q 1424 649 1413 638 q 1435 678 1435 660 q 1424 708 1435 696 q 1394 719 1413 719 q 1365 708 1376 719 q 1354 678 1354 696 q 1365 649 1354 660 q 1394 638 1376 638 m 1271 697 q 1242 686 1253 697 q 1231 657 1231 675 q 1242 628 1231 639 q 1271 617 1253 617 q 1300 628 1289 617 q 1311 657 1311 639 q 1300 686 1311 675 q 1271 697 1289 697 m 1519 617 q 1549 628 1538 617 q 1560 657 1560 639 q 1549 686 1560 675 q 1519 697 1538 697 q 1490 686 1501 697 q 1479 657 1479 675 q 1490 628 1479 639 q 1519 617 1501 617 m 1165 628 q 1135 616 1147 628 q 1124 586 1124 604 q 1135 557 1124 568 q 1165 546 1147 546 q 1194 557 1183 546 q 1206 586 1206 568 q 1194 616 1206 604 q 1165 628 1183 628 m 1625 546 q 1655 557 1643 546 q 1667 586 1667 568 q 1655 616 1667 604 q 1625 628 1643 628 q 1596 616 1607 628 q 1585 586 1585 604 q 1596 557 1585 568 q 1625 546 1607 546 m 1099 518 q 1069 506 1081 518 q 1057 476 1057 494 q 1069 447 1057 458 q 1099 436 1081 436 q 1128 447 1117 436 q 1139 476 1139 458 q 1128 506 1139 494 q 1099 518 1117 518 m 1692 436 q 1721 447 1710 436 q 1732 476 1732 458 q 1721 506 1732 494 q 1692 518 1710 518 q 1663 506 1674 518 q 1651 476 1651 494 q 1663 447 1651 458 q 1692 436 1674 436 m 1079 399 q 1049 387 1061 399 q 1038 357 1038 375 q 1049 328 1038 339 q 1079 318 1061 318 q 1108 328 1097 318 q 1119 357 1119 339 q 1108 387 1119 375 q 1079 399 1097 399 m 1711 318 q 1741 328 1729 318 q 1753 357 1753 339 q 1741 387 1753 375 q 1711 399 1729 399 q 1682 387 1693 399 q 1671 357 1671 375 q 1682 328 1671 339 q 1711 318 1693 318 m 1099 282 q 1069 271 1081 282 q 1057 242 1057 260 q 1069 213 1057 224 q 1099 201 1081 201 q 1128 213 1117 201 q 1139 242 1139 224 q 1128 271 1139 260 q 1099 282 1117 282 m 1692 201 q 1721 213 1710 201 q 1732 242 1732 224 q 1721 271 1732 260 q 1692 282 1710 282 q 1663 271 1674 282 q 1651 242 1651 260 q 1663 213 1651 224 q 1692 201 1674 201 m 1164 171 q 1134 160 1146 171 q 1122 131 1122 149 q 1134 101 1122 113 q 1164 90 1146 90 q 1193 101 1182 90 q 1204 131 1204 113 q 1193 160 1204 149 q 1164 171 1182 171 m 1626 90 q 1656 101 1644 90 q 1668 131 1668 113 q 1656 160 1668 149 q 1626 171 1644 171 q 1597 160 1608 171 q 1586 131 1586 149 q 1597 101 1586 113 q 1626 90 1608 90 m 1271 103 q 1242 91 1253 103 q 1231 61 1231 79 q 1242 32 1231 43 q 1271 21 1253 21 q 1300 32 1289 21 q 1311 61 1311 43 q 1300 91 1311 79 q 1271 103 1289 103 m 1519 21 q 1549 32 1538 21 q 1560 61 1560 43 q 1549 91 1560 79 q 1519 103 1538 103 q 1490 91 1501 103 q 1479 61 1479 79 q 1490 32 1479 43 q 1519 21 1501 21 m 1394 0 q 1424 11 1413 0 q 1435 40 1435 22 q 1424 70 1435 58 q 1394 82 1413 82 q 1365 70 1376 82 q 1354 40 1354 58 q 1365 11 1354 22 q 1394 0 1376 0 z "},"ோ":{"ha":2494,"x_min":76,"x_max":2465,"o":"m 650 378 q 790 324 735 378 q 844 188 844 269 q 808 79 844 128 q 703 3 771 31 q 547 -25 636 -25 q 294 38 400 -25 q 132 209 188 100 q 76 457 76 318 q 132 703 76 594 q 294 875 188 813 q 547 938 400 938 q 703 910 636 938 q 808 833 771 882 q 844 725 844 785 q 790 589 844 643 q 650 535 735 535 q 509 589 565 535 q 453 725 453 643 q 477 813 453 774 q 543 876 501 851 l 526 875 q 332 813 415 869 q 203 663 249 756 q 158 457 158 569 q 203 251 158 344 q 332 100 249 157 q 526 38 415 43 l 543 36 q 478 100 501 61 q 454 188 454 139 q 510 324 454 269 q 650 378 565 378 m 651 603 q 738 638 704 603 q 772 725 772 672 q 738 811 772 776 q 651 846 704 846 q 564 812 599 846 q 529 725 529 778 q 564 638 529 672 q 651 603 599 603 m 651 310 q 564 275 599 310 q 529 188 529 240 q 564 101 529 135 q 651 67 599 67 q 738 101 704 67 q 772 188 772 135 q 738 275 772 240 q 651 310 704 310 m 2119 0 l 2119 650 l 1782 650 l 1782 0 l 1706 0 l 1706 713 l 2460 713 l 2465 650 l 2197 650 l 2197 0 l 2119 0 m 1264 638 q 1293 649 1282 638 q 1304 678 1304 660 q 1293 708 1304 696 q 1264 719 1282 719 q 1235 708 1246 719 q 1224 678 1224 696 q 1235 649 1224 660 q 1264 638 1246 638 m 1140 697 q 1111 686 1122 697 q 1100 657 1100 675 q 1111 628 1100 639 q 1140 617 1122 617 q 1169 628 1158 617 q 1181 657 1181 639 q 1169 686 1181 675 q 1140 697 1158 697 m 1389 617 q 1418 628 1407 617 q 1429 657 1429 639 q 1418 686 1429 675 q 1389 697 1407 697 q 1360 686 1371 697 q 1349 657 1349 675 q 1360 628 1349 639 q 1389 617 1371 617 m 1035 628 q 1005 616 1017 628 q 993 586 993 604 q 1005 557 993 568 q 1035 546 1017 546 q 1064 557 1053 546 q 1075 586 1075 568 q 1064 616 1075 604 q 1035 628 1053 628 m 1494 546 q 1524 557 1513 546 q 1536 586 1536 568 q 1524 616 1536 604 q 1494 628 1513 628 q 1465 616 1476 628 q 1454 586 1454 604 q 1465 557 1454 568 q 1494 546 1476 546 m 968 518 q 938 506 950 518 q 926 476 926 494 q 938 447 926 458 q 968 436 950 436 q 997 447 986 436 q 1008 476 1008 458 q 997 506 1008 494 q 968 518 986 518 m 1561 436 q 1590 447 1579 436 q 1601 476 1601 458 q 1590 506 1601 494 q 1561 518 1579 518 q 1532 506 1543 518 q 1521 476 1521 494 q 1532 447 1521 458 q 1561 436 1543 436 m 949 399 q 919 387 931 399 q 907 357 907 375 q 919 328 907 339 q 949 318 931 318 q 978 328 967 318 q 989 357 989 339 q 978 387 989 375 q 949 399 967 399 m 1581 318 q 1610 328 1599 318 q 1622 357 1622 339 q 1610 387 1622 375 q 1581 399 1599 399 q 1551 387 1563 399 q 1540 357 1540 375 q 1551 328 1540 339 q 1581 318 1563 318 m 968 282 q 938 271 950 282 q 926 242 926 260 q 938 213 926 224 q 968 201 950 201 q 997 213 986 201 q 1008 242 1008 224 q 997 271 1008 260 q 968 282 986 282 m 1561 201 q 1590 213 1579 201 q 1601 242 1601 224 q 1590 271 1601 260 q 1561 282 1579 282 q 1532 271 1543 282 q 1521 242 1521 260 q 1532 213 1521 224 q 1561 201 1543 201 m 1033 171 q 1003 160 1015 171 q 992 131 992 149 q 1003 101 992 113 q 1033 90 1015 90 q 1063 101 1051 90 q 1074 131 1074 113 q 1063 160 1074 149 q 1033 171 1051 171 m 1496 90 q 1526 101 1514 90 q 1538 131 1538 113 q 1526 160 1538 149 q 1496 171 1514 171 q 1467 160 1478 171 q 1456 131 1456 149 q 1467 101 1456 113 q 1496 90 1478 90 m 1140 103 q 1111 91 1122 103 q 1100 61 1100 79 q 1111 32 1100 43 q 1140 21 1122 21 q 1169 32 1158 21 q 1181 61 1181 43 q 1169 91 1181 79 q 1140 103 1158 103 m 1389 21 q 1418 32 1407 21 q 1429 61 1429 43 q 1418 91 1429 79 q 1389 103 1407 103 q 1360 91 1371 103 q 1349 61 1349 79 q 1360 32 1349 43 q 1389 21 1371 21 m 1264 0 q 1293 11 1282 0 q 1304 40 1304 22 q 1293 70 1304 58 q 1264 82 1282 82 q 1235 70 1246 82 q 1224 40 1224 58 q 1235 11 1224 22 q 1264 0 1246 0 z "},"ு":{"ha":651,"x_min":-210,"x_max":603,"o":"m 367 713 q 488 684 435 713 q 572 605 542 656 q 603 492 603 554 q 572 377 603 428 q 488 298 542 326 q 367 269 435 269 q 244 298 299 269 q 158 377 189 326 q 128 492 128 428 q 197 650 128 589 l -210 650 l -210 713 l 367 713 m 367 332 q 476 377 433 332 q 519 492 519 422 q 476 606 519 561 q 367 650 433 650 q 252 606 297 650 q 207 492 207 561 q 252 377 207 422 q 367 332 297 332 z "},"ூ":{"ha":906,"x_min":-210,"x_max":857,"o":"m 506 850 q 686 804 606 850 q 812 676 767 758 q 857 493 857 594 q 804 300 857 386 q 657 166 751 214 q 446 118 563 118 l 367 118 l 367 181 l 446 181 q 616 221 542 181 q 732 332 690 261 q 774 493 774 403 q 739 642 774 576 q 643 745 704 708 q 506 782 582 782 q 294 713 375 782 l 367 713 q 488 684 435 713 q 572 605 542 656 q 603 492 603 554 q 572 377 603 428 q 488 298 542 326 q 367 269 435 269 q 244 300 299 269 q 158 384 189 331 q 128 504 128 438 q 158 650 128 582 l -210 650 l -210 713 l 197 713 q 328 814 249 778 q 506 850 408 850 m 519 492 q 476 606 519 561 q 367 650 433 650 l 243 650 q 207 504 207 586 q 252 381 207 431 q 367 332 297 332 q 476 377 433 332 q 519 492 519 422 z "},"ஂ":{"ha":0,"x_min":-153,"x_max":154,"o":"m 0 886 q 109 928 64 886 q 154 1032 154 969 q 108 1138 154 1096 q 0 1181 63 1181 q -108 1138 -62 1181 q -153 1032 -153 1096 q -108 928 -153 969 q 0 886 -64 886 m 0 951 q -60 974 -36 951 q -83 1032 -83 997 q -60 1092 -83 1068 q 0 1115 -36 1115 q 59 1092 36 1115 q 82 1032 82 1068 q 59 974 82 997 q 0 951 36 951 z "},"்":{"ha":0,"x_min":-58,"x_max":60,"o":"m 0 886 q 42 903 25 886 q 60 944 60 919 q 42 987 60 969 q 0 1004 25 1004 q -42 988 -26 1004 q -58 944 -58 971 q -42 903 -58 919 q 0 886 -26 886 z "},"ீ":{"ha":0,"x_min":-526,"x_max":67,"o":"m -222 1219 q -76 1183 -143 1219 q 28 1086 -10 1146 q 67 958 67 1026 q 27 857 67 897 q -72 817 -12 817 q -172 853 -132 817 q -212 946 -212 890 q -174 1037 -212 1001 q -76 1072 -136 1072 q -42 1068 -58 1072 q -117 1129 -71 1107 q -222 1151 -164 1151 q -382 1090 -319 1151 q -444 933 -444 1028 q -394 774 -444 836 q -261 713 -344 713 l -261 657 q -398 692 -337 657 q -492 791 -458 728 q -526 933 -526 854 q -487 1081 -526 1015 q -380 1183 -449 1146 q -222 1219 -311 1219 m -72 874 q -22 894 -42 874 q -1 944 -1 914 q -22 994 -1 974 q -72 1014 -42 1014 q -123 994 -103 1014 q -143 944 -143 974 q -123 894 -143 914 q -72 874 -103 874 z "}}}
